STARTFONT 2.1
COMMENT This font contains 16x16 kanji glyphs from
COMMENT Japanese Industrial Standard, JIS X 9051-1984
COMMENT padded with one pixel on all sides, plus JIS X 0212-1990 glyphs
COMMENT designed by Koichi Yasuoka <yasuoka@kudpc.kyoto-u.ac.jp> et al.
COMMENT Some Korean symbols derived from Daewoo's X11 font contribution.
COMMENT $Id: 18x18ja.bdf,v 1.17 2002-08-26 18:05:49+01 mgk25 Rel $
COMMENT Send bug reports to Markus Kuhn <http://www.cl.cam.ac.uk/~mgk25/>
FONT -Misc-Fixed-Medium-R-Normal-ja-18-120-100-100-C-180-ISO10646-1
SIZE 12 100 100
FONTBOUNDINGBOX 18 18 0 -3
STARTPROPERTIES 20
FONT_ASCENT 15
FONT_DESCENT 3
DEFAULT_CHAR 0
COPYRIGHT "Public domain font.  Share and enjoy."
FONTNAME_REGISTRY ""
FOUNDRY "Misc"
FAMILY_NAME "Fixed"
WEIGHT_NAME "Medium"
SLANT "R"
SETWIDTH_NAME "Normal"
ADD_STYLE_NAME "ja"
PIXEL_SIZE 18
POINT_SIZE 120
RESOLUTION_X 100
RESOLUTION_Y 100
SPACING "C"
AVERAGE_WIDTH 180
CHARSET_REGISTRY "ISO10646"
CHARSET_ENCODING "1"
_XMBDFED_INFO "Edited with xmbdfed 4.3."
ENDPROPERTIES
CHARS 19168
STARTCHAR char0
ENCODING 0
SWIDTH 1080 0
DWIDTH 18 0
BBX 18 18 0 -3
BITMAP
000000
000000
555500
000000
400100
000000
400100
000000
400100
000000
400100
000000
400100
000000
555500
000000
000000
000000
ENDCHAR
STARTCHAR space
ENCODING 32
SWIDTH 1080 0
DWIDTH 18 0
BBX 18 18 0 -3
BITMAP
000000
000000
000000
000000
000000
000000
000000
000000
000000
000000
000000
000000
000000
000000
000000
000000
000000
000000
ENDCHAR
STARTCHAR exclam
ENCODING 33
SWIDTH 1080 0
DWIDTH 18 0
BBX 18 18 0 -3
BITMAP
000000
000000
00C000
00C000
00C000
00C000
00C000
008000
008000
008000
008000
000000
000000
00C000
00C000
000000
000000
000000
ENDCHAR
STARTCHAR quotedbl
ENCODING 34
SWIDTH 1080 0
DWIDTH 18 0
BBX 18 18 0 -3
BITMAP
000000
000000
021000
021000
021000
021000
000000
000000
000000
000000
000000
000000
000000
000000
000000
000000
000000
000000
ENDCHAR
STARTCHAR numbersign
ENCODING 35
SWIDTH 1080 0
DWIDTH 18 0
BBX 18 18 0 -3
BITMAP
000000
010800
010800
010800
010800
0FFE00
0FFE00
021000
021000
021000
021000
1FFC00
1FFC00
042000
042000
042000
042000
000000
ENDCHAR
STARTCHAR dollar
ENCODING 36
SWIDTH 1080 0
DWIDTH 18 0
BBX 18 18 0 -3
BITMAP
000000
000000
008000
03F000
049800
088C00
088000
048000
038000
00F000
008800
008400
088400
0C8800
07F000
008000
000000
000000
ENDCHAR
STARTCHAR percent
ENCODING 37
SWIDTH 1080 0
DWIDTH 18 0
BBX 18 18 0 -3
BITMAP
000000
000000
1C0100
220200
220400
220800
221000
222000
1C4000
008E00
011100
021100
041100
081100
101100
200E00
000000
000000
ENDCHAR
STARTCHAR ampersand
ENCODING 38
SWIDTH 1080 0
DWIDTH 18 0
BBX 18 18 0 -3
BITMAP
000000
000000
078000
0C4000
084000
08C000
0D8000
073E00
060800
0F1800
199000
30F000
206000
20F100
119B00
0F0E00
000000
000000
ENDCHAR
STARTCHAR quotesingle
ENCODING 39
SWIDTH 1080 0
DWIDTH 18 0
BBX 18 18 0 -3
BITMAP
000000
000000
008000
008000
008000
008000
000000
000000
000000
000000
000000
000000
000000
000000
000000
000000
000000
000000
ENDCHAR
STARTCHAR parenleft
ENCODING 40
SWIDTH 1080 0
DWIDTH 18 0
BBX 18 18 0 -3
BITMAP
000000
000800
001000
003000
002000
006000
004000
004000
004000
004000
004000
004000
006000
002000
003000
001000
000800
000000
ENDCHAR
STARTCHAR parenright
ENCODING 41
SWIDTH 1080 0
DWIDTH 18 0
BBX 18 18 0 -3
BITMAP
000000
040000
020000
030000
010000
018000
008000
008000
008000
008000
008000
008000
018000
010000
030000
020000
040000
000000
ENDCHAR
STARTCHAR asterisk
ENCODING 42
SWIDTH 1080 0
DWIDTH 18 0
BBX 18 18 0 -3
BITMAP
000000
000000
000000
000000
000000
008000
0C9800
06B000
03E000
008000
03E000
06B000
0C9800
008000
000000
000000
000000
000000
ENDCHAR
STARTCHAR plus
ENCODING 43
SWIDTH 1080 0
DWIDTH 18 0
BBX 18 18 0 -3
BITMAP
000000
000000
000000
008000
008000
008000
008000
008000
1FFE00
008000
008000
008000
008000
008000
008000
000000
000000
000000
ENDCHAR
STARTCHAR comma
ENCODING 44
SWIDTH 1080 0
DWIDTH 18 0
BBX 18 18 0 -3
BITMAP
000000
000000
000000
000000
000000
000000
000000
000000
000000
000000
000000
000000
000000
180000
180000
080000
100000
000000
ENDCHAR
STARTCHAR hyphen
ENCODING 45
SWIDTH 1080 0
DWIDTH 18 0
BBX 18 18 0 -3
BITMAP
000000
000000
000000
000000
000000
000000
000000
000000
1FFE00
000000
000000
000000
000000
000000
000000
000000
000000
000000
ENDCHAR
STARTCHAR period
ENCODING 46
SWIDTH 1080 0
DWIDTH 18 0
BBX 18 18 0 -3
BITMAP
000000
000000
000000
000000
000000
000000
000000
000000
000000
000000
000000
000000
000000
180000
180000
000000
000000
000000
ENDCHAR
STARTCHAR slash
ENCODING 47
SWIDTH 1080 0
DWIDTH 18 0
BBX 18 18 0 -3
BITMAP
000000
000080
000100
000200
000400
000800
001000
002000
004000
008000
010000
020000
040000
080000
100000
200000
400000
000000
ENDCHAR
STARTCHAR zero
ENCODING 48
SWIDTH 1080 0
DWIDTH 18 0
BBX 18 18 0 -3
BITMAP
000000
000000
01E000
021000
040800
040800
0C0C00
080400
080400
080400
080400
0C0C00
040800
040800
021000
01E000
000000
000000
ENDCHAR
STARTCHAR one
ENCODING 49
SWIDTH 1080 0
DWIDTH 18 0
BBX 18 18 0 -3
BITMAP
000000
000000
004000
00C000
014000
024000
004000
004000
004000
004000
004000
004000
004000
004000
004000
01F000
000000
000000
ENDCHAR
STARTCHAR two
ENCODING 50
SWIDTH 1080 0
DWIDTH 18 0
BBX 18 18 0 -3
BITMAP
000000
000000
03F000
060800
0C0400
080400
000400
000C00
001800
003000
006000
00C000
018000
030000
060000
0FFC00
000000
000000
ENDCHAR
STARTCHAR three
ENCODING 51
SWIDTH 1080 0
DWIDTH 18 0
BBX 18 18 0 -3
BITMAP
000000
000000
01F000
070800
0C0400
000400
000400
000800
03F000
000800
000400
000400
000400
000C00
003800
0FE000
000000
000000
ENDCHAR
STARTCHAR four
ENCODING 52
SWIDTH 1080 0
DWIDTH 18 0
BBX 18 18 0 -3
BITMAP
000000
000000
003000
007000
00D000
019000
031000
061000
0C1000
181000
101000
1FFE00
001000
001000
001000
007C00
000000
000000
ENDCHAR
STARTCHAR five
ENCODING 53
SWIDTH 1080 0
DWIDTH 18 0
BBX 18 18 0 -3
BITMAP
000000
000000
0FFC00
080000
080000
080000
080000
0BF000
0C0800
080400
000400
000400
000C00
001800
007000
0FC000
000000
000000
ENDCHAR
STARTCHAR six
ENCODING 54
SWIDTH 1080 0
DWIDTH 18 0
BBX 18 18 0 -3
BITMAP
000000
000000
007800
01C000
030000
060000
040000
0DE000
0A1800
0C0C00
080400
080400
0C0400
040C00
061800
01E000
000000
000000
ENDCHAR
STARTCHAR seven
ENCODING 55
SWIDTH 1080 0
DWIDTH 18 0
BBX 18 18 0 -3
BITMAP
000000
000000
1FFC00
100800
101800
101000
003000
002000
006000
004000
00C000
008000
008000
018000
010000
010000
000000
000000
ENDCHAR
STARTCHAR eight
ENCODING 56
SWIDTH 1080 0
DWIDTH 18 0
BBX 18 18 0 -3
BITMAP
000000
000000
01E000
061800
0C0C00
080400
080400
040800
03F000
040800
080400
080400
080400
0C0C00
061800
01E000
000000
000000
ENDCHAR
STARTCHAR nine
ENCODING 57
SWIDTH 1080 0
DWIDTH 18 0
BBX 18 18 0 -3
BITMAP
000000
000000
01E000
061800
0C0800
080C00
080400
080400
0C0C00
061400
01EC00
000800
001800
003000
00E000
078000
000000
000000
ENDCHAR
STARTCHAR colon
ENCODING 58
SWIDTH 1080 0
DWIDTH 18 0
BBX 18 18 0 -3
BITMAP
000000
000000
000000
000000
000000
000000
000000
00C000
00C000
000000
000000
000000
000000
00C000
00C000
000000
000000
000000
ENDCHAR
STARTCHAR semicolon
ENCODING 59
SWIDTH 1080 0
DWIDTH 18 0
BBX 18 18 0 -3
BITMAP
000000
000000
000000
000000
000000
000000
000000
00C000
00C000
000000
000000
000000
000000
00C000
00C000
004000
008000
000000
ENDCHAR
STARTCHAR less
ENCODING 60
SWIDTH 1080 0
DWIDTH 18 0
BBX 18 18 0 -3
BITMAP
000000
000000
000300
000C00
003000
00C000
030000
0C0000
300000
0C0000
020000
018000
006000
001000
000C00
000300
000000
000000
ENDCHAR
STARTCHAR equal
ENCODING 61
SWIDTH 1080 0
DWIDTH 18 0
BBX 18 18 0 -3
BITMAP
000000
000000
000000
000000
000000
000000
1FFE00
000000
000000
000000
1FFE00
000000
000000
000000
000000
000000
000000
000000
ENDCHAR
STARTCHAR greater
ENCODING 62
SWIDTH 1080 0
DWIDTH 18 0
BBX 18 18 0 -3
BITMAP
000000
000000
300000
0C0000
030000
00C000
003000
000C00
000300
000C00
001000
006000
018000
020000
0C0000
300000
000000
000000
ENDCHAR
STARTCHAR question
ENCODING 63
SWIDTH 1080 0
DWIDTH 18 0
BBX 18 18 0 -3
BITMAP
000000
000000
03F000
040800
080400
080400
040400
001800
006000
008000
008000
000000
000000
00C000
00C000
000000
000000
000000
ENDCHAR
STARTCHAR at
ENCODING 64
SWIDTH 1080 0
DWIDTH 18 0
BBX 18 18 0 -3
BITMAP
000000
000000
000000
01E000
061800
080400
08D400
113200
122200
122200
126400
09B800
080200
060C00
01F000
000000
000000
000000
ENDCHAR
STARTCHAR A
ENCODING 65
SWIDTH 1080 0
DWIDTH 18 0
BBX 18 18 0 -3
BITMAP
000000
000000
008000
01C000
014000
036000
022000
063000
041000
07F000
0C1800
080800
180C00
100400
7C1F00
000000
000000
000000
ENDCHAR
STARTCHAR B
ENCODING 66
SWIDTH 1080 0
DWIDTH 18 0
BBX 18 18 0 -3
BITMAP
000000
000000
1FF000
040800
040400
040400
040400
040800
07F000
040C00
040200
040200
040200
040400
1FF800
000000
000000
000000
ENDCHAR
STARTCHAR C
ENCODING 67
SWIDTH 1080 0
DWIDTH 18 0
BBX 18 18 0 -3
BITMAP
000000
000000
01E400
061400
0C0C00
080400
180400
100000
100000
100000
180000
080400
0C0C00
061800
01E000
000000
000000
000000
ENDCHAR
STARTCHAR D
ENCODING 68
SWIDTH 1080 0
DWIDTH 18 0
BBX 18 18 0 -3
BITMAP
000000
000000
1FE000
041800
040C00
040400
040600
040200
040200
040200
040600
040400
040C00
041800
1FE000
000000
000000
000000
ENDCHAR
STARTCHAR E
ENCODING 69
SWIDTH 1080 0
DWIDTH 18 0
BBX 18 18 0 -3
BITMAP
000000
000000
1FFC00
040400
040200
040000
042000
042000
07E000
042000
042000
040000
040200
040400
1FFC00
000000
000000
000000
ENDCHAR
STARTCHAR F
ENCODING 70
SWIDTH 1080 0
DWIDTH 18 0
BBX 18 18 0 -3
BITMAP
000000
000000
1FFC00
040400
040400
040000
042000
042000
07E000
042000
042000
040000
040000
040000
1F0000
000000
000000
000000
ENDCHAR
STARTCHAR G
ENCODING 71
SWIDTH 1080 0
DWIDTH 18 0
BBX 18 18 0 -3
BITMAP
000000
000000
03C800
0C3800
180800
100800
300000
200000
200000
203E00
300800
100800
181800
0C2800
03C800
000000
000000
000000
ENDCHAR
STARTCHAR H
ENCODING 72
SWIDTH 1080 0
DWIDTH 18 0
BBX 18 18 0 -3
BITMAP
000000
000000
3E1F00
080400
080400
080400
080400
080400
0FFC00
080400
080400
080400
080400
080400
3E1F00
000000
000000
000000
ENDCHAR
STARTCHAR I
ENCODING 73
SWIDTH 1080 0
DWIDTH 18 0
BBX 18 18 0 -3
BITMAP
000000
000000
03E000
008000
008000
008000
008000
008000
008000
008000
008000
008000
008000
008000
03E000
000000
000000
000000
ENDCHAR
STARTCHAR J
ENCODING 74
SWIDTH 1080 0
DWIDTH 18 0
BBX 18 18 0 -3
BITMAP
000000
000000
007C00
001000
001000
001000
001000
001000
001000
001000
001000
001000
081000
0C2000
07C000
000000
000000
000000
ENDCHAR
STARTCHAR K
ENCODING 75
SWIDTH 1080 0
DWIDTH 18 0
BBX 18 18 0 -3
BITMAP
000000
000000
3E7C00
083000
086000
08C000
098000
0B0000
0F0000
098000
08C000
086000
083000
081800
3E3E00
000000
000000
000000
ENDCHAR
STARTCHAR L
ENCODING 76
SWIDTH 1080 0
DWIDTH 18 0
BBX 18 18 0 -3
BITMAP
000000
000000
1F0000
040000
040000
040000
040000
040000
040000
040000
040000
040400
040400
040400
1FFC00
000000
000000
000000
ENDCHAR
STARTCHAR M
ENCODING 77
SWIDTH 1080 0
DWIDTH 18 0
BBX 18 18 0 -3
BITMAP
000000
000000
780F00
180C00
1C1C00
141400
141400
163400
122400
122400
136400
114400
11C400
108400
788F00
000000
000000
000000
ENDCHAR
STARTCHAR N
ENCODING 78
SWIDTH 1080 0
DWIDTH 18 0
BBX 18 18 0 -3
BITMAP
000000
000000
3C1F00
0E0400
0A0400
0B0400
098400
088400
08C400
086400
082400
083400
081C00
080C00
3C0400
000000
000000
000000
ENDCHAR
STARTCHAR O
ENCODING 79
SWIDTH 1080 0
DWIDTH 18 0
BBX 18 18 0 -3
BITMAP
000000
000000
01E000
061800
0C0C00
080400
180600
100200
100200
100200
180600
080400
0C0C00
061800
01E000
000000
000000
000000
ENDCHAR
STARTCHAR P
ENCODING 80
SWIDTH 1080 0
DWIDTH 18 0
BBX 18 18 0 -3
BITMAP
000000
000000
1FF000
040800
040400
040400
040400
040800
07F000
040000
040000
040000
040000
040000
1F0000
000000
000000
000000
ENDCHAR
STARTCHAR Q
ENCODING 81
SWIDTH 1080 0
DWIDTH 18 0
BBX 18 18 0 -3
BITMAP
000000
000000
03C000
0C3000
181800
100800
300C00
200400
200400
200400
300C00
118800
1A5800
0C3000
03D200
000C00
000000
000000
ENDCHAR
STARTCHAR R
ENCODING 82
SWIDTH 1080 0
DWIDTH 18 0
BBX 18 18 0 -3
BITMAP
000000
000000
3FE000
081000
080800
080800
080800
081000
0FE000
082000
083000
081000
081800
080800
3E3E00
000000
000000
000000
ENDCHAR
STARTCHAR S
ENCODING 83
SWIDTH 1080 0
DWIDTH 18 0
BBX 18 18 0 -3
BITMAP
000000
000000
03E400
041400
080C00
080400
080400
060000
01E000
001800
080400
080400
0C0400
0A0800
09F000
000000
000000
000000
ENDCHAR
STARTCHAR T
ENCODING 84
SWIDTH 1080 0
DWIDTH 18 0
BBX 18 18 0 -3
BITMAP
000000
000000
3FFE00
208200
208200
008000
008000
008000
008000
008000
008000
008000
008000
008000
03E000
000000
000000
000000
ENDCHAR
STARTCHAR U
ENCODING 85
SWIDTH 1080 0
DWIDTH 18 0
BBX 18 18 0 -3
BITMAP
000000
000000
3E1F00
080400
080400
080400
080400
080400
080400
080400
080400
080400
0C0C00
061800
01E000
000000
000000
000000
ENDCHAR
STARTCHAR V
ENCODING 86
SWIDTH 1080 0
DWIDTH 18 0
BBX 18 18 0 -3
BITMAP
000000
000000
3E1F00
080400
0C0C00
040800
041800
061000
021000
023000
032000
016000
014000
01C000
008000
000000
000000
000000
ENDCHAR
STARTCHAR W
ENCODING 87
SWIDTH 1080 0
DWIDTH 18 0
BBX 18 18 0 -3
BITMAP
000000
000000
7CCF80
10C200
10C200
11E200
192600
092400
0B3400
0A1400
0A1400
0E1C00
061800
040800
040800
000000
000000
000000
ENDCHAR
STARTCHAR X
ENCODING 88
SWIDTH 1080 0
DWIDTH 18 0
BBX 18 18 0 -3
BITMAP
000000
000000
3E3E00
080800
0C1800
063000
036000
01C000
008000
01C000
036000
063000
0C1800
080800
3C3E00
000000
000000
000000
ENDCHAR
STARTCHAR Y
ENCODING 89
SWIDTH 1080 0
DWIDTH 18 0
BBX 18 18 0 -3
BITMAP
000000
000000
3E3E00
080800
0C1800
041000
063000
022000
036000
01C000
008000
008000
008000
008000
03E000
000000
000000
000000
ENDCHAR
STARTCHAR Z
ENCODING 90
SWIDTH 1080 0
DWIDTH 18 0
BBX 18 18 0 -3
BITMAP
000000
000000
0FFC00
081800
083000
002000
006000
00C000
008000
018000
030000
020000
060400
0C0400
1FFC00
000000
000000
000000
ENDCHAR
STARTCHAR bracketleft
ENCODING 91
SWIDTH 1080 0
DWIDTH 18 0
BBX 18 18 0 -3
BITMAP
000000
00F800
008000
008000
008000
008000
008000
008000
008000
008000
008000
008000
008000
008000
008000
008000
00F800
000000
ENDCHAR
STARTCHAR backslash
ENCODING 92
SWIDTH 1080 0
DWIDTH 18 0
BBX 18 18 0 -3
BITMAP
000000
400000
200000
100000
080000
040000
020000
010000
008000
004000
002000
001000
000800
000400
000200
000100
000080
000000
ENDCHAR
STARTCHAR bracketright
ENCODING 93
SWIDTH 1080 0
DWIDTH 18 0
BBX 18 18 0 -3
BITMAP
000000
07C000
004000
004000
004000
004000
004000
004000
004000
004000
004000
004000
004000
004000
004000
004000
07C000
000000
ENDCHAR
STARTCHAR asciicircum
ENCODING 94
SWIDTH 1080 0
DWIDTH 18 0
BBX 18 18 0 -3
BITMAP
000000
00C000
033000
000000
000000
000000
000000
000000
000000
000000
000000
000000
000000
000000
000000
000000
000000
000000
ENDCHAR
STARTCHAR underscore
ENCODING 95
SWIDTH 1080 0
DWIDTH 18 0
BBX 18 18 0 -3
BITMAP
000000
000000
000000
000000
000000
000000
000000
000000
000000
000000
000000
000000
000000
000000
000000
000000
7FFF80
000000
ENDCHAR
STARTCHAR grave
ENCODING 96
SWIDTH 1080 0
DWIDTH 18 0
BBX 18 18 0 -3
BITMAP
000000
018000
006000
000000
000000
000000
000000
000000
000000
000000
000000
000000
000000
000000
000000
000000
000000
000000
ENDCHAR
STARTCHAR a
ENCODING 97
SWIDTH 1080 0
DWIDTH 18 0
BBX 18 18 0 -3
BITMAP
000000
000000
000000
000000
000000
000000
000000
07C000
002000
002000
07E000
082000
082000
086800
079800
000000
000000
000000
ENDCHAR
STARTCHAR b
ENCODING 98
SWIDTH 1080 0
DWIDTH 18 0
BBX 18 18 0 -3
BITMAP
000000
000000
0E0000
020000
020000
020000
020000
02F000
030800
020400
020400
020400
020400
030800
02F000
000000
000000
000000
ENDCHAR
STARTCHAR c
ENCODING 99
SWIDTH 1080 0
DWIDTH 18 0
BBX 18 18 0 -3
BITMAP
000000
000000
000000
000000
000000
000000
000000
01F000
020800
040000
040000
040000
040000
020800
01F000
000000
000000
000000
ENDCHAR
STARTCHAR d
ENCODING 100
SWIDTH 1080 0
DWIDTH 18 0
BBX 18 18 0 -3
BITMAP
000000
000000
007000
001000
001000
001000
001000
03D000
043000
081000
081000
081000
081000
043000
03DC00
000000
000000
000000
ENDCHAR
STARTCHAR e
ENCODING 101
SWIDTH 1080 0
DWIDTH 18 0
BBX 18 18 0 -3
BITMAP
000000
000000
000000
000000
000000
000000
000000
01E000
021000
040800
07F800
040000
040000
020800
01F000
000000
000000
000000
ENDCHAR
STARTCHAR f
ENCODING 102
SWIDTH 1080 0
DWIDTH 18 0
BBX 18 18 0 -3
BITMAP
000000
000000
007800
008800
010000
010000
010000
0FE000
010000
010000
010000
010000
010000
010000
07C000
000000
000000
000000
ENDCHAR
STARTCHAR g
ENCODING 103
SWIDTH 1080 0
DWIDTH 18 0
BBX 18 18 0 -3
BITMAP
000000
000000
000000
000000
000000
000000
000000
03EC00
041000
041000
041000
03E000
040000
07F800
080400
080400
07F800
000000
ENDCHAR
STARTCHAR h
ENCODING 104
SWIDTH 1080 0
DWIDTH 18 0
BBX 18 18 0 -3
BITMAP
000000
000000
1C0000
040000
040000
040000
040000
05E000
063000
041000
041000
041000
041000
041000
1E3C00
000000
000000
000000
ENDCHAR
STARTCHAR i
ENCODING 105
SWIDTH 1080 0
DWIDTH 18 0
BBX 18 18 0 -3
BITMAP
000000
000000
000000
018000
018000
000000
000000
038000
008000
008000
008000
008000
008000
008000
03E000
000000
000000
000000
ENDCHAR
STARTCHAR j
ENCODING 106
SWIDTH 1080 0
DWIDTH 18 0
BBX 18 18 0 -3
BITMAP
000000
000000
000000
003000
003000
000000
000000
007000
001000
001000
001000
001000
001000
001000
001000
042000
07C000
000000
ENDCHAR
STARTCHAR k
ENCODING 107
SWIDTH 1080 0
DWIDTH 18 0
BBX 18 18 0 -3
BITMAP
000000
000000
1C0000
040000
040000
040000
040000
047C00
043000
04C000
070000
048000
046000
041800
1F3E00
000000
000000
000000
ENDCHAR
STARTCHAR l
ENCODING 108
SWIDTH 1080 0
DWIDTH 18 0
BBX 18 18 0 -3
BITMAP
000000
000000
038000
008000
008000
008000
008000
008000
008000
008000
008000
008000
008000
008000
03E000
000000
000000
000000
ENDCHAR
STARTCHAR m
ENCODING 109
SWIDTH 1080 0
DWIDTH 18 0
BBX 18 18 0 -3
BITMAP
000000
000000
000000
000000
000000
000000
000000
373800
18C400
108400
108400
108400
108400
108400
39CE00
000000
000000
000000
ENDCHAR
STARTCHAR n
ENCODING 110
SWIDTH 1080 0
DWIDTH 18 0
BBX 18 18 0 -3
BITMAP
000000
000000
000000
000000
000000
000000
000000
1DE000
063000
041000
041000
041000
041000
041000
1E3C00
000000
000000
000000
ENDCHAR
STARTCHAR o
ENCODING 111
SWIDTH 1080 0
DWIDTH 18 0
BBX 18 18 0 -3
BITMAP
000000
000000
000000
000000
000000
000000
000000
01E000
021000
040800
040800
040800
040800
021000
01E000
000000
000000
000000
ENDCHAR
STARTCHAR p
ENCODING 112
SWIDTH 1080 0
DWIDTH 18 0
BBX 18 18 0 -3
BITMAP
000000
000000
000000
000000
000000
000000
000000
0EF000
030800
020400
020400
020400
030800
02F000
020000
020000
0F8000
000000
ENDCHAR
STARTCHAR q
ENCODING 113
SWIDTH 1080 0
DWIDTH 18 0
BBX 18 18 0 -3
BITMAP
000000
000000
000000
000000
000000
000000
000000
03D000
043000
081000
081000
081000
043000
03D000
001000
001000
007C00
000000
ENDCHAR
STARTCHAR r
ENCODING 114
SWIDTH 1080 0
DWIDTH 18 0
BBX 18 18 0 -3
BITMAP
000000
000000
000000
000000
000000
000000
000000
073800
014800
018000
010000
010000
010000
010000
07C000
000000
000000
000000
ENDCHAR
STARTCHAR s
ENCODING 115
SWIDTH 1080 0
DWIDTH 18 0
BBX 18 18 0 -3
BITMAP
000000
000000
000000
000000
000000
000000
000000
03E800
041800
040800
03C000
003000
040800
060800
05F000
000000
000000
000000
ENDCHAR
STARTCHAR t
ENCODING 116
SWIDTH 1080 0
DWIDTH 18 0
BBX 18 18 0 -3
BITMAP
000000
000000
000000
010000
010000
010000
010000
0FF000
010000
010000
010000
010000
010000
008800
007800
000000
000000
000000
ENDCHAR
STARTCHAR u
ENCODING 117
SWIDTH 1080 0
DWIDTH 18 0
BBX 18 18 0 -3
BITMAP
000000
000000
000000
000000
000000
000000
000000
1C7000
041000
041000
041000
041000
041000
063000
03DC00
000000
000000
000000
ENDCHAR
STARTCHAR v
ENCODING 118
SWIDTH 1080 0
DWIDTH 18 0
BBX 18 18 0 -3
BITMAP
000000
000000
000000
000000
000000
000000
000000
1E3C00
041000
063000
022000
036000
014000
01C000
008000
000000
000000
000000
ENDCHAR
STARTCHAR w
ENCODING 119
SWIDTH 1080 0
DWIDTH 18 0
BBX 18 18 0 -3
BITMAP
000000
000000
000000
000000
000000
000000
000000
3CCF00
08C400
0DEC00
052800
052800
073800
021000
021000
000000
000000
000000
ENDCHAR
STARTCHAR x
ENCODING 120
SWIDTH 1080 0
DWIDTH 18 0
BBX 18 18 0 -3
BITMAP
000000
000000
000000
000000
000000
000000
000000
0F3C00
021000
012000
00C000
012000
021000
040800
1F3E00
000000
000000
000000
ENDCHAR
STARTCHAR y
ENCODING 121
SWIDTH 1080 0
DWIDTH 18 0
BBX 18 18 0 -3
BITMAP
000000
000000
000000
000000
000000
000000
000000
1E3C00
041000
063000
022000
036000
014000
00C000
018000
130000
1E0000
000000
ENDCHAR
STARTCHAR z
ENCODING 122
SWIDTH 1080 0
DWIDTH 18 0
BBX 18 18 0 -3
BITMAP
000000
000000
000000
000000
000000
000000
000000
07F800
041000
042000
004000
008000
010800
020800
07F800
000000
000000
000000
ENDCHAR
STARTCHAR braceleft
ENCODING 123
SWIDTH 1080 0
DWIDTH 18 0
BBX 18 18 0 -3
BITMAP
000000
000800
001000
002000
002000
002000
002000
002000
004000
002000
002000
002000
002000
002000
002000
001000
000800
000000
ENDCHAR
STARTCHAR bar
ENCODING 124
SWIDTH 1080 0
DWIDTH 18 0
BBX 18 18 0 -3
BITMAP
000000
008000
008000
008000
008000
008000
008000
008000
008000
008000
008000
008000
008000
008000
008000
008000
008000
000000
ENDCHAR
STARTCHAR braceright
ENCODING 125
SWIDTH 1080 0
DWIDTH 18 0
BBX 18 18 0 -3
BITMAP
000000
040000
020000
010000
010000
010000
010000
010000
008000
010000
010000
010000
010000
010000
010000
020000
040000
000000
ENDCHAR
STARTCHAR asciitilde
ENCODING 126
SWIDTH 1080 0
DWIDTH 18 0
BBX 18 18 0 -3
BITMAP
000000
019000
026000
000000
000000
000000
000000
000000
000000
000000
000000
000000
000000
000000
000000
000000
000000
000000
ENDCHAR
STARTCHAR space
ENCODING 160
SWIDTH 1080 0
DWIDTH 18 0
BBX 18 18 0 -3
BITMAP
000000
000000
000000
000000
000000
000000
000000
000000
000000
000000
000000
000000
000000
000000
000000
000000
000000
000000
ENDCHAR
STARTCHAR exclamdown
ENCODING 161
SWIDTH 1080 0
DWIDTH 18 0
BBX 18 18 0 -3
BITMAP
000000
000000
00C000
00C000
000000
000000
008000
008000
008000
008000
00C000
00C000
00C000
00C000
00C000
000000
000000
000000
ENDCHAR
STARTCHAR cent
ENCODING 162
SWIDTH 1080 0
DWIDTH 18 0
BBX 18 18 0 -3
BITMAP
000000
000000
000000
000000
000000
000000
001000
01E000
023000
044800
044000
048000
048000
030800
01F000
020000
000000
000000
ENDCHAR
STARTCHAR sterling
ENCODING 163
SWIDTH 1080 0
DWIDTH 18 0
BBX 18 18 0 -3
BITMAP
000000
000000
00F800
010400
020200
020000
020000
020000
020000
3FF800
010000
010000
1D0000
230100
22C200
1C3C00
000000
000000
ENDCHAR
STARTCHAR currency
ENCODING 164
SWIDTH 1080 0
DWIDTH 18 0
BBX 18 18 0 -3
BITMAP
000000
000000
100200
080400
05E800
021000
040800
080400
080400
080400
080400
040800
021000
05E800
080400
100200
000000
000000
ENDCHAR
STARTCHAR yen
ENCODING 165
SWIDTH 1080 0
DWIDTH 18 0
BBX 18 18 0 -3
BITMAP
000000
000000
3E1F00
080400
080400
040800
3FFF00
021000
022000
014000
3FFF00
008000
008000
008000
008000
03E000
000000
000000
ENDCHAR
STARTCHAR brokenbar
ENCODING 166
SWIDTH 1080 0
DWIDTH 18 0
BBX 18 18 0 -3
BITMAP
000000
000000
008000
008000
008000
008000
008000
008000
000000
000000
008000
008000
008000
008000
008000
008000
000000
000000
ENDCHAR
STARTCHAR section
ENCODING 167
SWIDTH 1080 0
DWIDTH 18 0
BBX 18 18 0 -3
BITMAP
000000
000000
03E000
063800
061800
070000
03C000
067000
041800
060800
039800
00F000
003800
061800
071800
01F000
000000
000000
ENDCHAR
STARTCHAR dieresis
ENCODING 168
SWIDTH 1080 0
DWIDTH 18 0
BBX 18 18 0 -3
BITMAP
000000
033000
033000
000000
000000
000000
000000
000000
000000
000000
000000
000000
000000
000000
000000
000000
000000
000000
ENDCHAR
STARTCHAR copyright
ENCODING 169
SWIDTH 1080 0
DWIDTH 18 0
BBX 18 18 0 -3
BITMAP
000000
01E000
061800
080400
11E200
221100
240900
440080
440080
440080
440080
240900
221100
11E200
080400
061800
01E000
000000
ENDCHAR
STARTCHAR ordfeminine
ENCODING 170
SWIDTH 1080 0
DWIDTH 18 0
BBX 18 18 0 -3
BITMAP
000000
0C0000
020000
0E0000
120000
0E0000
000000
1E0000
000000
000000
000000
000000
000000
000000
000000
000000
000000
000000
ENDCHAR
STARTCHAR guillemotleft
ENCODING 171
SWIDTH 1080 0
DWIDTH 18 0
BBX 18 18 0 -3
BITMAP
000000
000000
000000
000000
000000
000000
009000
012000
024000
048000
048000
024000
012000
009000
000000
000000
000000
000000
ENDCHAR
STARTCHAR logicalnot
ENCODING 172
SWIDTH 1080 0
DWIDTH 18 0
BBX 18 18 0 -3
BITMAP
000000
000000
000000
000000
000000
000000
000000
1FFE00
000200
000200
000200
000200
000000
000000
000000
000000
000000
000000
ENDCHAR
STARTCHAR hyphen
ENCODING 173
SWIDTH 1080 0
DWIDTH 18 0
BBX 18 18 0 -3
BITMAP
000000
000000
000000
000000
000000
000000
000000
000000
03F000
000000
000000
000000
000000
000000
000000
000000
000000
000000
ENDCHAR
STARTCHAR registered
ENCODING 174
SWIDTH 1080 0
DWIDTH 18 0
BBX 18 18 0 -3
BITMAP
000000
01E000
061800
080400
13E200
221100
220900
421080
43E080
421080
421080
220900
220900
100200
080400
061800
01E000
000000
ENDCHAR
STARTCHAR macron
ENCODING 175
SWIDTH 1080 0
DWIDTH 18 0
BBX 18 18 0 -3
BITMAP
000000
01E000
000000
000000
000000
000000
000000
000000
000000
000000
000000
000000
000000
000000
000000
000000
000000
000000
ENDCHAR
STARTCHAR degree
ENCODING 176
SWIDTH 1080 0
DWIDTH 18 0
BBX 18 18 0 -3
BITMAP
000000
000000
0C0000
120000
120000
0C0000
000000
000000
000000
000000
000000
000000
000000
000000
000000
000000
000000
000000
ENDCHAR
STARTCHAR plusminus
ENCODING 177
SWIDTH 1080 0
DWIDTH 18 0
BBX 18 18 0 -3
BITMAP
000000
000000
000000
008000
008000
008000
008000
1FFE00
008000
008000
008000
008000
000000
000000
1FFE00
000000
000000
000000
ENDCHAR
STARTCHAR twosuperior
ENCODING 178
SWIDTH 1080 0
DWIDTH 18 0
BBX 18 18 0 -3
BITMAP
000000
00C000
012000
002000
00C000
010000
01E000
000000
000000
000000
000000
000000
000000
000000
000000
000000
000000
000000
ENDCHAR
STARTCHAR threesuperior
ENCODING 179
SWIDTH 1080 0
DWIDTH 18 0
BBX 18 18 0 -3
BITMAP
000000
00C000
012000
004000
002000
012000
00C000
000000
000000
000000
000000
000000
000000
000000
000000
000000
000000
000000
ENDCHAR
STARTCHAR acute
ENCODING 180
SWIDTH 1080 0
DWIDTH 18 0
BBX 18 18 0 -3
BITMAP
000000
006000
018000
000000
000000
000000
000000
000000
000000
000000
000000
000000
000000
000000
000000
000000
000000
000000
ENDCHAR
STARTCHAR mu
ENCODING 181
SWIDTH 1080 0
DWIDTH 18 0
BBX 18 18 0 -3
BITMAP
000000
000000
000000
000000
000000
000000
000000
1C0800
040800
040800
040800
040800
061800
05E600
040000
040000
1F0000
000000
ENDCHAR
STARTCHAR paragraph
ENCODING 182
SWIDTH 1080 0
DWIDTH 18 0
BBX 18 18 0 -3
BITMAP
000000
000000
01F800
03C800
07C800
07C800
07C800
03C800
01C800
004800
004800
004800
004800
004800
004800
004800
004800
000000
ENDCHAR
STARTCHAR periodcentered
ENCODING 183
SWIDTH 1080 0
DWIDTH 18 0
BBX 18 18 0 -3
BITMAP
000000
000000
000000
000000
000000
000000
000000
000000
000000
00C000
00C000
000000
000000
000000
000000
000000
000000
000000
ENDCHAR
STARTCHAR cedilla
ENCODING 184
SWIDTH 1080 0
DWIDTH 18 0
BBX 18 18 0 -3
BITMAP
000000
000000
000000
000000
000000
000000
000000
000000
000000
000000
000000
000000
008000
00C000
002000
012000
00C000
000000
ENDCHAR
STARTCHAR onesuperior
ENCODING 185
SWIDTH 1080 0
DWIDTH 18 0
BBX 18 18 0 -3
BITMAP
000000
008000
018000
008000
008000
008000
01C000
000000
000000
000000
000000
000000
000000
000000
000000
000000
000000
000000
ENDCHAR
STARTCHAR ordmasculine
ENCODING 186
SWIDTH 1080 0
DWIDTH 18 0
BBX 18 18 0 -3
BITMAP
000000
0C0000
120000
120000
120000
0C0000
000000
1E0000
000000
000000
000000
000000
000000
000000
000000
000000
000000
000000
ENDCHAR
STARTCHAR guillemotright
ENCODING 187
SWIDTH 1080 0
DWIDTH 18 0
BBX 18 18 0 -3
BITMAP
000000
000000
000000
000000
000000
000000
048000
024000
012000
009000
009000
012000
024000
048000
000000
000000
000000
000000
ENDCHAR
STARTCHAR onequarter
ENCODING 188
SWIDTH 1080 0
DWIDTH 18 0
BBX 18 18 0 -3
BITMAP
000000
000000
000000
000000
020000
060000
020000
020000
021000
073000
005000
009000
00F800
001000
003800
000000
000000
000000
ENDCHAR
STARTCHAR onehalf
ENCODING 189
SWIDTH 1080 0
DWIDTH 18 0
BBX 18 18 0 -3
BITMAP
000000
000000
000000
000000
020000
060000
020000
020000
020000
073000
004800
000800
003000
004000
007800
000000
000000
000000
ENDCHAR
STARTCHAR threequarters
ENCODING 190
SWIDTH 1080 0
DWIDTH 18 0
BBX 18 18 0 -3
BITMAP
000000
000000
000000
000000
030000
048000
010000
008000
049000
033000
005000
009000
00F800
001000
003800
000000
000000
000000
ENDCHAR
STARTCHAR questiondown
ENCODING 191
SWIDTH 1080 0
DWIDTH 18 0
BBX 18 18 0 -3
BITMAP
000000
000000
00C000
00C000
000000
000000
004000
004000
018000
060000
080800
080400
080400
040800
03F000
000000
000000
000000
ENDCHAR
STARTCHAR Agrave
ENCODING 192
SWIDTH 1080 0
DWIDTH 18 0
BBX 18 18 0 -3
BITMAP
000000
010000
008000
004000
01C000
014000
036000
022000
063000
041000
0FF800
080800
180C00
100400
7C1F00
000000
000000
000000
ENDCHAR
STARTCHAR Aacute
ENCODING 193
SWIDTH 1080 0
DWIDTH 18 0
BBX 18 18 0 -3
BITMAP
000000
004000
008000
010000
01C000
014000
036000
022000
063000
041000
0FF800
080800
180C00
100400
7C3F00
000000
000000
000000
ENDCHAR
STARTCHAR Acircumflex
ENCODING 194
SWIDTH 1080 0
DWIDTH 18 0
BBX 18 18 0 -3
BITMAP
000000
008000
014000
022000
01C000
014000
036000
022000
063000
041000
0FF800
080800
180C00
100400
7C1F00
000000
000000
000000
ENDCHAR
STARTCHAR Atilde
ENCODING 195
SWIDTH 1080 0
DWIDTH 18 0
BBX 18 18 0 -3
BITMAP
000000
019000
026000
008000
01C000
014000
036000
022000
063000
041000
0FF800
080800
180C00
100400
7C1F00
000000
000000
000000
ENDCHAR
STARTCHAR Adieresis
ENCODING 196
SWIDTH 1080 0
DWIDTH 18 0
BBX 18 18 0 -3
BITMAP
000000
036000
036000
008000
01C000
014000
036000
022000
063000
041000
0FF800
080800
180C00
100400
7C1F00
000000
000000
000000
ENDCHAR
STARTCHAR Aring
ENCODING 197
SWIDTH 1080 0
DWIDTH 18 0
BBX 18 18 0 -3
BITMAP
000000
00C000
012000
00C000
01C000
014000
036000
022000
063000
041000
0FF800
080800
180C00
100400
7C1F00
000000
000000
000000
ENDCHAR
STARTCHAR AE
ENCODING 198
SWIDTH 1080 0
DWIDTH 18 0
BBX 18 18 0 -3
BITMAP
000000
000000
01FE00
00C200
01C100
014000
034800
024800
067800
044800
0FC800
084000
184100
104200
38FE00
000000
000000
000000
ENDCHAR
STARTCHAR Ccedilla
ENCODING 199
SWIDTH 1080 0
DWIDTH 18 0
BBX 18 18 0 -3
BITMAP
000000
000000
01E400
061400
0C0C00
080400
180400
100000
100000
100000
180000
080400
0C0C00
061800
01E000
004000
01C000
000000
ENDCHAR
STARTCHAR Egrave
ENCODING 200
SWIDTH 1080 0
DWIDTH 18 0
BBX 18 18 0 -3
BITMAP
000000
010000
008000
004000
1FFC00
040400
040200
042000
042000
07E000
042000
042000
040200
040400
1FFC00
000000
000000
000000
ENDCHAR
STARTCHAR Eacute
ENCODING 201
SWIDTH 1080 0
DWIDTH 18 0
BBX 18 18 0 -3
BITMAP
000000
004000
008000
010000
1FFC00
040400
040200
042000
042000
07E000
042000
042000
040200
040400
1FFC00
000000
000000
000000
ENDCHAR
STARTCHAR Ecircumflex
ENCODING 202
SWIDTH 1080 0
DWIDTH 18 0
BBX 18 18 0 -3
BITMAP
000000
008000
014000
022000
1FFC00
040400
040200
042000
042000
07E000
042000
042000
040200
040400
1FFC00
000000
000000
000000
ENDCHAR
STARTCHAR Edieresis
ENCODING 203
SWIDTH 1080 0
DWIDTH 18 0
BBX 18 18 0 -3
BITMAP
000000
036000
036000
000000
1FFC00
040400
040200
042000
042000
07E000
042000
042000
040200
040400
1FFC00
000000
000000
000000
ENDCHAR
STARTCHAR Igrave
ENCODING 204
SWIDTH 1080 0
DWIDTH 18 0
BBX 18 18 0 -3
BITMAP
000000
010000
008000
004000
03E000
008000
008000
008000
008000
008000
008000
008000
008000
008000
03E000
000000
000000
000000
ENDCHAR
STARTCHAR Iacute
ENCODING 205
SWIDTH 1080 0
DWIDTH 18 0
BBX 18 18 0 -3
BITMAP
000000
004000
008000
010000
03E000
008000
008000
008000
008000
008000
008000
008000
008000
008000
03E000
000000
000000
000000
ENDCHAR
STARTCHAR Icircumflex
ENCODING 206
SWIDTH 1080 0
DWIDTH 18 0
BBX 18 18 0 -3
BITMAP
000000
008000
014000
022000
03E000
008000
008000
008000
008000
008000
008000
008000
008000
008000
03E000
000000
000000
000000
ENDCHAR
STARTCHAR Idieresis
ENCODING 207
SWIDTH 1080 0
DWIDTH 18 0
BBX 18 18 0 -3
BITMAP
000000
036000
036000
000000
03E000
008000
008000
008000
008000
008000
008000
008000
008000
008000
03E000
000000
000000
000000
ENDCHAR
STARTCHAR Eth
ENCODING 208
SWIDTH 1080 0
DWIDTH 18 0
BBX 18 18 0 -3
BITMAP
000000
000000
1FE000
041800
040C00
040400
040600
040200
1F0200
040200
040600
040400
040C00
041800
1FE000
000000
000000
000000
ENDCHAR
STARTCHAR Ntilde
ENCODING 209
SWIDTH 1080 0
DWIDTH 18 0
BBX 18 18 0 -3
BITMAP
019000
026000
3E7F00
0E0400
0A0400
0B0400
098400
088400
08C400
086400
082400
083400
081C00
080C00
3C0400
000000
000000
000000
ENDCHAR
STARTCHAR Ograve
ENCODING 210
SWIDTH 1080 0
DWIDTH 18 0
BBX 18 18 0 -3
BITMAP
000000
010000
008000
004000
01E000
061800
0C0C00
080400
100200
100200
100200
080400
0C0C00
061800
01E000
000000
000000
000000
ENDCHAR
STARTCHAR Oacute
ENCODING 211
SWIDTH 1080 0
DWIDTH 18 0
BBX 18 18 0 -3
BITMAP
000000
004000
008000
010000
01E000
061800
0C0C00
080400
100200
100200
100200
080400
0C0C00
061800
01E000
000000
000000
000000
ENDCHAR
STARTCHAR Ocircumflex
ENCODING 212
SWIDTH 1080 0
DWIDTH 18 0
BBX 18 18 0 -3
BITMAP
000000
008000
014000
022000
01E000
061800
0C0C00
080400
100200
100200
100200
080400
0C0C00
061800
01E000
000000
000000
000000
ENDCHAR
STARTCHAR Otilde
ENCODING 213
SWIDTH 1080 0
DWIDTH 18 0
BBX 18 18 0 -3
BITMAP
000000
019000
026000
000000
01E000
061800
0C0C00
080400
100200
100200
100200
080400
0C0C00
061800
01E000
000000
000000
000000
ENDCHAR
STARTCHAR Odieresis
ENCODING 214
SWIDTH 1080 0
DWIDTH 18 0
BBX 18 18 0 -3
BITMAP
000000
033000
033000
000000
01E000
061800
0C0C00
080400
100200
100200
100200
080400
0C0C00
061800
01E000
000000
000000
000000
ENDCHAR
STARTCHAR multiply
ENCODING 215
SWIDTH 1080 0
DWIDTH 18 0
BBX 18 18 0 -3
BITMAP
000000
000000
000000
000000
080400
040800
021000
012000
00C000
00C000
012000
021000
040800
080400
000000
000000
000000
000000
ENDCHAR
STARTCHAR Oslash
ENCODING 216
SWIDTH 1080 0
DWIDTH 18 0
BBX 18 18 0 -3
BITMAP
000000
000000
03C200
0C3400
181800
101800
302C00
204400
208400
210400
320C00
140800
181800
1C3000
23C000
000000
000000
000000
ENDCHAR
STARTCHAR Ugrave
ENCODING 217
SWIDTH 1080 0
DWIDTH 18 0
BBX 18 18 0 -3
BITMAP
000000
010000
008000
004000
3E3E00
080800
080800
080800
080800
080800
080800
080800
0C1800
063000
01C000
000000
000000
000000
ENDCHAR
STARTCHAR Uacute
ENCODING 218
SWIDTH 1080 0
DWIDTH 18 0
BBX 18 18 0 -3
BITMAP
000000
004000
008000
010000
3E3E00
080800
080800
080800
080800
080800
080800
080800
0C1800
063000
01C000
000000
000000
000000
ENDCHAR
STARTCHAR Ucircumflex
ENCODING 219
SWIDTH 1080 0
DWIDTH 18 0
BBX 18 18 0 -3
BITMAP
000000
008000
014000
022000
3E3E00
080800
080800
080800
080800
080800
080800
080800
0C1800
063000
01C000
000000
000000
000000
ENDCHAR
STARTCHAR Udieresis
ENCODING 220
SWIDTH 1080 0
DWIDTH 18 0
BBX 18 18 0 -3
BITMAP
000000
036000
036000
000000
3E3E00
080800
080800
080800
080800
080800
080800
080800
0C1800
063000
01C000
000000
000000
000000
ENDCHAR
STARTCHAR Yacute
ENCODING 221
SWIDTH 1080 0
DWIDTH 18 0
BBX 18 18 0 -3
BITMAP
004000
00A000
3F3E00
080800
0C1800
041000
063000
022000
036000
01C000
008000
008000
008000
008000
03E000
000000
000000
000000
ENDCHAR
STARTCHAR Thorn
ENCODING 222
SWIDTH 1080 0
DWIDTH 18 0
BBX 18 18 0 -3
BITMAP
000000
000000
1F0000
040000
040000
07F000
040800
040400
040400
040400
040800
07F000
040000
040000
1F0000
000000
000000
000000
ENDCHAR
STARTCHAR germandbls
ENCODING 223
SWIDTH 1080 0
DWIDTH 18 0
BBX 18 18 0 -3
BITMAP
000000
000000
00E000
019000
030800
020800
021000
02E000
021000
020800
020800
020800
020800
029800
067000
000000
000000
000000
ENDCHAR
STARTCHAR agrave
ENCODING 224
SWIDTH 1080 0
DWIDTH 18 0
BBX 18 18 0 -3
BITMAP
000000
000000
000000
020000
010000
008000
000000
07C000
002000
002000
07E000
082000
082000
086800
079800
000000
000000
000000
ENDCHAR
STARTCHAR aacute
ENCODING 225
SWIDTH 1080 0
DWIDTH 18 0
BBX 18 18 0 -3
BITMAP
000000
000000
000000
008000
010000
020000
000000
07C000
002000
002000
07E000
082000
082000
086800
079800
000000
000000
000000
ENDCHAR
STARTCHAR acircumflex
ENCODING 226
SWIDTH 1080 0
DWIDTH 18 0
BBX 18 18 0 -3
BITMAP
000000
000000
000000
010000
028000
044000
000000
07C000
002000
002000
07E000
082000
082000
086800
079800
000000
000000
000000
ENDCHAR
STARTCHAR atilde
ENCODING 227
SWIDTH 1080 0
DWIDTH 18 0
BBX 18 18 0 -3
BITMAP
000000
000000
000000
000000
032000
04C000
000000
07C000
002000
002000
07E000
082000
082000
086800
079800
000000
000000
000000
ENDCHAR
STARTCHAR adieresis
ENCODING 228
SWIDTH 1080 0
DWIDTH 18 0
BBX 18 18 0 -3
BITMAP
000000
000000
000000
000000
06C000
06C000
000000
07C000
002000
002000
07E000
082000
082000
086800
079800
000000
000000
000000
ENDCHAR
STARTCHAR aring
ENCODING 229
SWIDTH 1080 0
DWIDTH 18 0
BBX 18 18 0 -3
BITMAP
000000
000000
000000
010000
028000
010000
000000
07C000
002000
002000
07E000
082000
082000
086800
079800
000000
000000
000000
ENDCHAR
STARTCHAR ae
ENCODING 230
SWIDTH 1080 0
DWIDTH 18 0
BBX 18 18 0 -3
BITMAP
000000
000000
000000
000000
000000
000000
000000
1F3C00
00C200
008100
1FFF00
208000
208000
21C100
1E3E00
000000
000000
000000
ENDCHAR
STARTCHAR ccedilla
ENCODING 231
SWIDTH 1080 0
DWIDTH 18 0
BBX 18 18 0 -3
BITMAP
000000
000000
000000
000000
000000
000000
000000
01F000
020800
040000
040000
040000
040000
020800
01F000
004000
01C000
000000
ENDCHAR
STARTCHAR egrave
ENCODING 232
SWIDTH 1080 0
DWIDTH 18 0
BBX 18 18 0 -3
BITMAP
000000
000000
000000
010000
008000
004000
000000
01E000
021000
040800
07F800
040000
040000
020800
01F000
000000
000000
000000
ENDCHAR
STARTCHAR eacute
ENCODING 233
SWIDTH 1080 0
DWIDTH 18 0
BBX 18 18 0 -3
BITMAP
000000
000000
000000
002000
004000
008000
000000
01E000
021000
040800
07F800
040000
040000
020800
01F000
000000
000000
000000
ENDCHAR
STARTCHAR ecircumflex
ENCODING 234
SWIDTH 1080 0
DWIDTH 18 0
BBX 18 18 0 -3
BITMAP
000000
000000
000000
008000
014000
022000
000000
01E000
021000
040800
07F800
040000
040000
020800
01F000
000000
000000
000000
ENDCHAR
STARTCHAR edieresis
ENCODING 235
SWIDTH 1080 0
DWIDTH 18 0
BBX 18 18 0 -3
BITMAP
000000
000000
000000
000000
033000
033000
000000
01E000
021000
040800
07F800
040000
040000
020800
01F000
000000
000000
000000
ENDCHAR
STARTCHAR igrave
ENCODING 236
SWIDTH 1080 0
DWIDTH 18 0
BBX 18 18 0 -3
BITMAP
000000
000000
000000
010000
008000
004000
000000
038000
008000
008000
008000
008000
008000
008000
03E000
000000
000000
000000
ENDCHAR
STARTCHAR iacute
ENCODING 237
SWIDTH 1080 0
DWIDTH 18 0
BBX 18 18 0 -3
BITMAP
000000
000000
000000
004000
008000
010000
000000
038000
008000
008000
008000
008000
008000
008000
03E000
000000
000000
000000
ENDCHAR
STARTCHAR icircumflex
ENCODING 238
SWIDTH 1080 0
DWIDTH 18 0
BBX 18 18 0 -3
BITMAP
000000
000000
000000
008000
014000
022000
000000
038000
008000
008000
008000
008000
008000
008000
03E000
000000
000000
000000
ENDCHAR
STARTCHAR idieresis
ENCODING 239
SWIDTH 1080 0
DWIDTH 18 0
BBX 18 18 0 -3
BITMAP
000000
000000
000000
000000
036000
036000
000000
038000
008000
008000
008000
008000
008000
008000
03E000
000000
000000
000000
ENDCHAR
STARTCHAR eth
ENCODING 240
SWIDTH 1080 0
DWIDTH 18 0
BBX 18 18 0 -3
BITMAP
000000
000000
078600
00F800
007000
019000
001000
03D800
0C2800
181800
100800
100800
101800
181000
0C3000
03C000
000000
000000
ENDCHAR
STARTCHAR ntilde
ENCODING 241
SWIDTH 1080 0
DWIDTH 18 0
BBX 18 18 0 -3
BITMAP
000000
000000
000000
000000
032000
04C000
000000
1DE000
063000
041000
041000
041000
041000
041000
1E3C00
000000
000000
000000
ENDCHAR
STARTCHAR ograve
ENCODING 242
SWIDTH 1080 0
DWIDTH 18 0
BBX 18 18 0 -3
BITMAP
000000
000000
000000
010000
008000
004000
000000
01E000
021000
040800
040800
040800
040800
021000
01E000
000000
000000
000000
ENDCHAR
STARTCHAR oacute
ENCODING 243
SWIDTH 1080 0
DWIDTH 18 0
BBX 18 18 0 -3
BITMAP
000000
000000
000000
002000
004000
008000
000000
01E000
021000
040800
040800
040800
040800
021000
01E000
000000
000000
000000
ENDCHAR
STARTCHAR ocircumflex
ENCODING 244
SWIDTH 1080 0
DWIDTH 18 0
BBX 18 18 0 -3
BITMAP
000000
000000
000000
008000
014000
022000
000000
01E000
021000
040800
040800
040800
040800
021000
01E000
000000
000000
000000
ENDCHAR
STARTCHAR otilde
ENCODING 245
SWIDTH 1080 0
DWIDTH 18 0
BBX 18 18 0 -3
BITMAP
000000
000000
000000
000000
019000
026000
000000
01E000
021000
040800
040800
040800
040800
021000
01E000
000000
000000
000000
ENDCHAR
STARTCHAR odieresis
ENCODING 246
SWIDTH 1080 0
DWIDTH 18 0
BBX 18 18 0 -3
BITMAP
000000
000000
000000
000000
033000
033000
000000
01E000
021000
040800
040800
040800
040800
021000
01E000
000000
000000
000000
ENDCHAR
STARTCHAR divide
ENCODING 247
SWIDTH 1080 0
DWIDTH 18 0
BBX 18 18 0 -3
BITMAP
000000
000000
000000
000000
00C000
00C000
000000
000000
1FFE00
000000
000000
00C000
00C000
000000
000000
000000
000000
000000
ENDCHAR
STARTCHAR oslash
ENCODING 248
SWIDTH 1080 0
DWIDTH 18 0
BBX 18 18 0 -3
BITMAP
000000
000000
000000
000000
000000
000000
000000
01E800
021000
042800
044800
048800
050800
021000
05E000
000000
000000
000000
ENDCHAR
STARTCHAR ugrave
ENCODING 249
SWIDTH 1080 0
DWIDTH 18 0
BBX 18 18 0 -3
BITMAP
000000
000000
000000
020000
010000
008000
000000
1C7000
041000
041000
041000
041000
041000
063000
03DC00
000000
000000
000000
ENDCHAR
STARTCHAR uacute
ENCODING 250
SWIDTH 1080 0
DWIDTH 18 0
BBX 18 18 0 -3
BITMAP
000000
000000
000000
004000
008000
010000
000000
1C7000
041000
041000
041000
041000
041000
063000
03DC00
000000
000000
000000
ENDCHAR
STARTCHAR ucircumflex
ENCODING 251
SWIDTH 1080 0
DWIDTH 18 0
BBX 18 18 0 -3
BITMAP
000000
000000
000000
008000
014000
022000
000000
1C7000
041000
041000
041000
041000
041000
063000
03DC00
000000
000000
000000
ENDCHAR
STARTCHAR udieresis
ENCODING 252
SWIDTH 1080 0
DWIDTH 18 0
BBX 18 18 0 -3
BITMAP
000000
000000
000000
000000
036000
036000
000000
1C7000
041000
041000
041000
041000
041000
063000
03DC00
000000
000000
000000
ENDCHAR
STARTCHAR yacute
ENCODING 253
SWIDTH 1080 0
DWIDTH 18 0
BBX 18 18 0 -3
BITMAP
000000
000000
000000
002000
004000
008000
000000
1E3C00
041000
063000
022000
036000
014000
00C000
018000
130000
1E0000
000000
ENDCHAR
STARTCHAR thorn
ENCODING 254
SWIDTH 1080 0
DWIDTH 18 0
BBX 18 18 0 -3
BITMAP
000000
000000
0E0000
020000
020000
020000
020000
02F000
030800
020400
020400
020400
030800
02F000
020000
020000
0F8000
000000
ENDCHAR
STARTCHAR ydieresis
ENCODING 255
SWIDTH 1080 0
DWIDTH 18 0
BBX 18 18 0 -3
BITMAP
000000
000000
000000
000000
036000
036000
000000
1E3C00
041000
063000
022000
036000
014000
00C000
018000
130000
1E0000
000000
ENDCHAR
STARTCHAR Amacron
ENCODING 256
SWIDTH 1080 0
DWIDTH 18 0
BBX 18 18 0 -3
BITMAP
000000
03E000
000000
008000
01C000
014000
036000
022000
063000
041000
0FF800
080800
180C00
100400
7C1F00
000000
000000
000000
ENDCHAR
STARTCHAR amacron
ENCODING 257
SWIDTH 1080 0
DWIDTH 18 0
BBX 18 18 0 -3
BITMAP
000000
000000
000000
000000
07C000
000000
000000
07C000
002000
002000
07E000
082000
082000
086800
079800
000000
000000
000000
ENDCHAR
STARTCHAR Abreve
ENCODING 258
SWIDTH 1080 0
DWIDTH 18 0
BBX 18 18 0 -3
BITMAP
000000
022000
01C000
000000
01C000
014000
036000
022000
063000
041000
0FF800
080800
180C00
100400
7C1F00
000000
000000
000000
ENDCHAR
STARTCHAR abreve
ENCODING 259
SWIDTH 1080 0
DWIDTH 18 0
BBX 18 18 0 -3
BITMAP
000000
000000
000000
000000
044000
038000
000000
07C000
002000
002000
07E000
082000
082000
086800
079800
000000
000000
000000
ENDCHAR
STARTCHAR Aogonek
ENCODING 260
SWIDTH 1080 0
DWIDTH 18 0
BBX 18 18 0 -3
BITMAP
000000
000000
008000
01C000
014000
036000
022000
063000
041000
07F000
0C1800
080800
180C00
100400
7C1F00
000200
000300
000000
ENDCHAR
STARTCHAR aogonek
ENCODING 261
SWIDTH 1080 0
DWIDTH 18 0
BBX 18 18 0 -3
BITMAP
000000
000000
000000
000000
000000
000000
000000
07C000
002000
002000
07E000
082000
082000
086800
079800
000400
000700
000000
ENDCHAR
STARTCHAR Cacute
ENCODING 262
SWIDTH 1080 0
DWIDTH 18 0
BBX 18 18 0 -3
BITMAP
000000
002000
004000
008000
01E400
061400
040C00
0C0400
080400
080000
080000
0C0400
040C00
061800
01E000
000000
000000
000000
ENDCHAR
STARTCHAR cacute
ENCODING 263
SWIDTH 1080 0
DWIDTH 18 0
BBX 18 18 0 -3
BITMAP
000000
000000
000000
002000
004000
008000
000000
01F000
020800
040000
040000
040000
040000
020800
01F000
000000
000000
000000
ENDCHAR
STARTCHAR Ccircumflex
ENCODING 264
SWIDTH 1080 0
DWIDTH 18 0
BBX 18 18 0 -3
BITMAP
000000
004000
00A000
011000
01E400
061400
040C00
0C0400
080400
080000
080000
0C0400
040C00
061800
01E000
000000
000000
000000
ENDCHAR
STARTCHAR ccircumflex
ENCODING 265
SWIDTH 1080 0
DWIDTH 18 0
BBX 18 18 0 -3
BITMAP
000000
000000
000000
004000
00A000
011000
000000
01F000
020800
040000
040000
040000
040000
020800
01F000
000000
000000
000000
ENDCHAR
STARTCHAR Cdotaccent
ENCODING 266
SWIDTH 1080 0
DWIDTH 18 0
BBX 18 18 0 -3
BITMAP
000000
00C000
00C000
000000
01E400
061400
040C00
0C0400
080400
080000
080000
0C0400
040C00
061800
01E000
000000
000000
000000
ENDCHAR
STARTCHAR cdotaccent
ENCODING 267
SWIDTH 1080 0
DWIDTH 18 0
BBX 18 18 0 -3
BITMAP
000000
000000
000000
000000
00C000
00C000
000000
01F000
020800
040000
040000
040000
040000
020800
01F000
000000
000000
000000
ENDCHAR
STARTCHAR Ccaron
ENCODING 268
SWIDTH 1080 0
DWIDTH 18 0
BBX 18 18 0 -3
BITMAP
000000
011000
00A000
004000
01E400
061400
040C00
0C0400
080400
080000
080000
0C0400
040C00
061800
01E000
000000
000000
000000
ENDCHAR
STARTCHAR ccaron
ENCODING 269
SWIDTH 1080 0
DWIDTH 18 0
BBX 18 18 0 -3
BITMAP
000000
000000
000000
011000
00A000
004000
000000
01F000
020800
040000
040000
040000
040000
020800
01F000
000000
000000
000000
ENDCHAR
STARTCHAR Dcaron
ENCODING 270
SWIDTH 1080 0
DWIDTH 18 0
BBX 18 18 0 -3
BITMAP
000000
022000
014000
1FE000
041800
040C00
040400
040600
040200
040200
040600
040400
040C00
041800
1FE000
000000
000000
000000
ENDCHAR
STARTCHAR dcaron
ENCODING 271
SWIDTH 1080 0
DWIDTH 18 0
BBX 18 18 0 -3
BITMAP
000000
022000
017000
009000
001000
001000
001000
03D000
043000
081000
081000
081000
081000
043000
03DC00
000000
000000
000000
ENDCHAR
STARTCHAR Dcroat
ENCODING 272
SWIDTH 1080 0
DWIDTH 18 0
BBX 18 18 0 -3
BITMAP
000000
000000
1FE000
041800
040C00
040400
040600
040200
1F0200
040200
040600
040400
040C00
041800
1FE000
000000
000000
000000
ENDCHAR
STARTCHAR dcroat
ENCODING 273
SWIDTH 1080 0
DWIDTH 18 0
BBX 18 18 0 -3
BITMAP
000000
000000
007000
001000
001000
007C00
001000
03D000
043000
081000
081000
081000
081000
043000
03DC00
000000
000000
000000
ENDCHAR
STARTCHAR Emacron
ENCODING 274
SWIDTH 1080 0
DWIDTH 18 0
BBX 18 18 0 -3
BITMAP
000000
03E000
000000
000000
1FFC00
040400
040200
042000
042000
07E000
042000
042000
040200
040400
1FFC00
000000
000000
000000
ENDCHAR
STARTCHAR emacron
ENCODING 275
SWIDTH 1080 0
DWIDTH 18 0
BBX 18 18 0 -3
BITMAP
000000
000000
000000
000000
03F000
000000
000000
01E000
021000
040800
07F800
040000
040000
020800
01F000
000000
000000
000000
ENDCHAR
STARTCHAR Ebreve
ENCODING 276
SWIDTH 1080 0
DWIDTH 18 0
BBX 18 18 0 -3
BITMAP
022000
01C000
000000
000000
1FFC00
040400
040200
042000
042000
07E000
042000
042000
040200
040400
1FFC00
000000
000000
000000
ENDCHAR
STARTCHAR ebreve
ENCODING 277
SWIDTH 1080 0
DWIDTH 18 0
BBX 18 18 0 -3
BITMAP
000000
000000
000000
021000
01E000
000000
000000
01E000
021000
040800
07F800
040000
040000
020800
01F000
000000
000000
000000
ENDCHAR
STARTCHAR Edotaccent
ENCODING 278
SWIDTH 1080 0
DWIDTH 18 0
BBX 18 18 0 -3
BITMAP
000000
00C000
00C000
000000
1FFC00
040400
040200
042000
042000
07E000
042000
042000
040200
040400
1FFC00
000000
000000
000000
ENDCHAR
STARTCHAR edotaccent
ENCODING 279
SWIDTH 1080 0
DWIDTH 18 0
BBX 18 18 0 -3
BITMAP
000000
000000
000000
000000
00C000
00C000
000000
01E000
021000
040800
07F800
040000
040000
020800
01F000
000000
000000
000000
ENDCHAR
STARTCHAR Eogonek
ENCODING 280
SWIDTH 1080 0
DWIDTH 18 0
BBX 18 18 0 -3
BITMAP
000000
000000
1FFC00
040400
040200
040000
042000
042000
07E000
042000
042000
040000
040200
040400
1FFC00
000800
000E00
000000
ENDCHAR
STARTCHAR eogonek
ENCODING 281
SWIDTH 1080 0
DWIDTH 18 0
BBX 18 18 0 -3
BITMAP
000000
000000
000000
000000
000000
000000
000000
03C000
042000
081000
0FF000
080000
080000
041000
03E000
002000
003800
000000
ENDCHAR
STARTCHAR Ecaron
ENCODING 282
SWIDTH 1080 0
DWIDTH 18 0
BBX 18 18 0 -3
BITMAP
000000
022000
014000
008000
1FFC00
040400
040200
042000
042000
07E000
042000
042000
040200
040400
1FFC00
000000
000000
000000
ENDCHAR
STARTCHAR ecaron
ENCODING 283
SWIDTH 1080 0
DWIDTH 18 0
BBX 18 18 0 -3
BITMAP
000000
000000
000000
022000
014000
008000
000000
01E000
021000
040800
07F800
040000
040000
020800
01F000
000000
000000
000000
ENDCHAR
STARTCHAR Gcircumflex
ENCODING 284
SWIDTH 1080 0
DWIDTH 18 0
BBX 18 18 0 -3
BITMAP
000000
010000
028000
044000
03C800
0C3800
180800
100800
200000
200000
203E00
300800
101800
0C2800
03C800
000000
000000
000000
ENDCHAR
STARTCHAR gcircumflex
ENCODING 285
SWIDTH 1080 0
DWIDTH 18 0
BBX 18 18 0 -3
BITMAP
000000
000000
000000
008000
014000
022000
000000
03EC00
041000
041000
041000
03E000
040000
07F800
080400
080400
07F800
000000
ENDCHAR
STARTCHAR Gbreve
ENCODING 286
SWIDTH 1080 0
DWIDTH 18 0
BBX 18 18 0 -3
BITMAP
000000
044000
038000
000000
03C800
0C3800
180800
100800
200000
200000
203E00
300800
101800
0C2800
03C800
000000
000000
000000
ENDCHAR
STARTCHAR gbreve
ENCODING 287
SWIDTH 1080 0
DWIDTH 18 0
BBX 18 18 0 -3
BITMAP
000000
000000
000000
000000
022000
01C000
000000
03EC00
041000
041000
041000
03E000
040000
07F800
080400
080400
07F800
000000
ENDCHAR
STARTCHAR Gdotaccent
ENCODING 288
SWIDTH 1080 0
DWIDTH 18 0
BBX 18 18 0 -3
BITMAP
000000
018000
018000
000000
03C800
0C3800
180800
100800
200000
200000
203E00
300800
101800
0C2800
03C800
000000
000000
000000
ENDCHAR
STARTCHAR gdotaccent
ENCODING 289
SWIDTH 1080 0
DWIDTH 18 0
BBX 18 18 0 -3
BITMAP
000000
000000
000000
000000
00C000
00C000
000000
03EC00
041000
041000
041000
03E000
040000
07F800
080400
080400
07F800
000000
ENDCHAR
STARTCHAR Gcommaaccent
ENCODING 290
SWIDTH 1080 0
DWIDTH 18 0
BBX 18 18 0 -3
BITMAP
000000
000000
03C800
0C3800
180800
100800
300000
200000
200000
203E00
300800
100800
181800
0C2800
03C800
008000
038000
000000
ENDCHAR
STARTCHAR gcommaaccent
ENCODING 291
SWIDTH 1080 0
DWIDTH 18 0
BBX 18 18 0 -3
BITMAP
000000
000000
000000
004000
008000
00C000
000000
03EC00
041000
041000
041000
03E000
040000
07F800
080400
080400
07F800
000000
ENDCHAR
STARTCHAR Hcircumflex
ENCODING 292
SWIDTH 1080 0
DWIDTH 18 0
BBX 18 18 0 -3
BITMAP
000000
008000
014000
022000
3E3E00
080800
080800
080800
080800
0FF800
080800
080800
080800
080800
3E3E00
000000
000000
000000
ENDCHAR
STARTCHAR hcircumflex
ENCODING 293
SWIDTH 1080 0
DWIDTH 18 0
BBX 18 18 0 -3
BITMAP
000000
008000
1D4000
062000
040000
040000
040000
05E000
063000
041000
041000
041000
041000
041000
1E3C00
000000
000000
000000
ENDCHAR
STARTCHAR Hbar
ENCODING 294
SWIDTH 1080 0
DWIDTH 18 0
BBX 18 18 0 -3
BITMAP
000000
000000
3E1F00
080400
080400
3FFF00
080400
080400
0FFC00
080400
080400
080400
080400
080400
3E1F00
000000
000000
000000
ENDCHAR
STARTCHAR hbar
ENCODING 295
SWIDTH 1080 0
DWIDTH 18 0
BBX 18 18 0 -3
BITMAP
000000
000000
1C0000
040000
040000
1F0000
040000
05E000
063000
041000
041000
041000
041000
041000
1E3C00
000000
000000
000000
ENDCHAR
STARTCHAR Itilde
ENCODING 296
SWIDTH 1080 0
DWIDTH 18 0
BBX 18 18 0 -3
BITMAP
000000
019000
026000
000000
03E000
008000
008000
008000
008000
008000
008000
008000
008000
008000
03E000
000000
000000
000000
ENDCHAR
STARTCHAR itilde
ENCODING 297
SWIDTH 1080 0
DWIDTH 18 0
BBX 18 18 0 -3
BITMAP
000000
000000
000000
000000
019000
026000
000000
01C000
004000
004000
004000
004000
004000
004000
01F000
000000
000000
000000
ENDCHAR
STARTCHAR Imacron
ENCODING 298
SWIDTH 1080 0
DWIDTH 18 0
BBX 18 18 0 -3
BITMAP
000000
03E000
000000
000000
03E000
008000
008000
008000
008000
008000
008000
008000
008000
008000
03E000
000000
000000
000000
ENDCHAR
STARTCHAR imacron
ENCODING 299
SWIDTH 1080 0
DWIDTH 18 0
BBX 18 18 0 -3
BITMAP
000000
000000
000000
000000
03E000
000000
000000
038000
008000
008000
008000
008000
008000
008000
03E000
000000
000000
000000
ENDCHAR
STARTCHAR Ibreve
ENCODING 300
SWIDTH 1080 0
DWIDTH 18 0
BBX 18 18 0 -3
BITMAP
022000
01C000
000000
000000
03E000
008000
008000
008000
008000
008000
008000
008000
008000
008000
03E000
000000
000000
000000
ENDCHAR
STARTCHAR ibreve
ENCODING 301
SWIDTH 1080 0
DWIDTH 18 0
BBX 18 18 0 -3
BITMAP
000000
000000
000000
022000
01C000
000000
000000
038000
008000
008000
008000
008000
008000
008000
03E000
000000
000000
000000
ENDCHAR
STARTCHAR Iogonek
ENCODING 302
SWIDTH 1080 0
DWIDTH 18 0
BBX 18 18 0 -3
BITMAP
000000
000000
03E000
008000
008000
008000
008000
008000
008000
008000
008000
008000
008000
008000
03E000
004000
007000
000000
ENDCHAR
STARTCHAR iogonek
ENCODING 303
SWIDTH 1080 0
DWIDTH 18 0
BBX 18 18 0 -3
BITMAP
000000
000000
000000
018000
018000
000000
000000
038000
008000
008000
008000
008000
008000
008000
03E000
008000
00E000
000000
ENDCHAR
STARTCHAR Idotaccent
ENCODING 304
SWIDTH 1080 0
DWIDTH 18 0
BBX 18 18 0 -3
BITMAP
000000
00C000
00C000
000000
03E000
008000
008000
008000
008000
008000
008000
008000
008000
008000
03E000
000000
000000
000000
ENDCHAR
STARTCHAR dotlessi
ENCODING 305
SWIDTH 1080 0
DWIDTH 18 0
BBX 18 18 0 -3
BITMAP
000000
000000
000000
000000
000000
000000
000000
038000
008000
008000
008000
008000
008000
008000
03E000
000000
000000
000000
ENDCHAR
STARTCHAR IJ
ENCODING 306
SWIDTH 1080 0
DWIDTH 18 0
BBX 18 18 0 -3
BITMAP
000000
000000
3E1F00
080400
080400
080400
080400
080400
080400
080400
080400
080400
090400
098800
3EF000
000000
000000
000000
ENDCHAR
STARTCHAR ij
ENCODING 307
SWIDTH 1080 0
DWIDTH 18 0
BBX 18 18 0 -3
BITMAP
000000
000000
000000
0C0600
0C0600
000000
000000
1C0E00
040200
040200
040200
040200
040200
040200
1F0200
008400
00F800
000000
ENDCHAR
STARTCHAR Jcircumflex
ENCODING 308
SWIDTH 1080 0
DWIDTH 18 0
BBX 18 18 0 -3
BITMAP
000000
001000
002800
004400
007C00
001000
001000
001000
001000
001000
001000
001000
081000
0C2000
07C000
000000
000000
000000
ENDCHAR
STARTCHAR jcircumflex
ENCODING 309
SWIDTH 1080 0
DWIDTH 18 0
BBX 18 18 0 -3
BITMAP
000000
000000
000000
002000
005000
008800
000000
00E000
002000
002000
002000
002000
002000
002000
002000
084000
0F8000
000000
ENDCHAR
STARTCHAR Kcommaaccent
ENCODING 310
SWIDTH 1080 0
DWIDTH 18 0
BBX 18 18 0 -3
BITMAP
000000
000000
3E7C00
083000
086000
08C000
098000
0B0000
0F0000
098000
08C000
086000
083000
081800
3EBE00
008000
038000
000000
ENDCHAR
STARTCHAR kcommaaccent
ENCODING 311
SWIDTH 1080 0
DWIDTH 18 0
BBX 18 18 0 -3
BITMAP
000000
000000
1C0000
040000
040000
040000
040000
047C00
043000
04C000
070000
048000
046000
041800
1F3E00
004000
01C000
000000
ENDCHAR
STARTCHAR kgreenlandic
ENCODING 312
SWIDTH 1080 0
DWIDTH 18 0
BBX 18 18 0 -3
BITMAP
000000
000000
000000
000000
000000
000000
000000
0E3800
043000
04C000
070000
048000
046000
041800
0E1C00
000000
000000
000000
ENDCHAR
STARTCHAR Lacute
ENCODING 313
SWIDTH 1080 0
DWIDTH 18 0
BBX 18 18 0 -3
BITMAP
000000
002000
1F4000
048000
040000
040000
040000
040000
040000
040000
040000
040400
040400
040400
1FFC00
000000
000000
000000
ENDCHAR
STARTCHAR lacute
ENCODING 314
SWIDTH 1080 0
DWIDTH 18 0
BBX 18 18 0 -3
BITMAP
000000
004000
008000
010000
038000
008000
008000
008000
008000
008000
008000
008000
008000
008000
03E000
000000
000000
000000
ENDCHAR
STARTCHAR Lcommaaccent
ENCODING 315
SWIDTH 1080 0
DWIDTH 18 0
BBX 18 18 0 -3
BITMAP
000000
000000
1F0000
040000
040000
040000
040000
040000
040000
040000
040000
040400
040400
040400
1FFC00
008000
038000
000000
ENDCHAR
STARTCHAR lcommaaccent
ENCODING 316
SWIDTH 1080 0
DWIDTH 18 0
BBX 18 18 0 -3
BITMAP
000000
000000
038000
008000
008000
008000
008000
008000
008000
008000
008000
008000
008000
008000
03E000
008000
038000
000000
ENDCHAR
STARTCHAR Lcaron
ENCODING 317
SWIDTH 1080 0
DWIDTH 18 0
BBX 18 18 0 -3
BITMAP
000000
022000
1F4000
048000
040000
040000
040000
040000
040000
040000
040000
040400
040400
040400
1FFC00
000000
000000
000000
ENDCHAR
STARTCHAR lcaron
ENCODING 318
SWIDTH 1080 0
DWIDTH 18 0
BBX 18 18 0 -3
BITMAP
000000
022000
014000
008000
038000
008000
008000
008000
008000
008000
008000
008000
008000
008000
03E000
000000
000000
000000
ENDCHAR
STARTCHAR Ldot
ENCODING 319
SWIDTH 1080 0
DWIDTH 18 0
BBX 18 18 0 -3
BITMAP
000000
000000
1F0000
040000
040000
040000
040000
046000
046000
040000
040000
040400
040400
040400
1FFC00
000000
000000
000000
ENDCHAR
STARTCHAR ldot
ENCODING 320
SWIDTH 1080 0
DWIDTH 18 0
BBX 18 18 0 -3
BITMAP
000000
000000
038000
008000
008000
008000
008000
00B000
00B000
008000
008000
008000
008000
008000
03E000
000000
000000
000000
ENDCHAR
STARTCHAR Lslash
ENCODING 321
SWIDTH 1080 0
DWIDTH 18 0
BBX 18 18 0 -3
BITMAP
000000
000000
1F0000
040000
040000
050000
060000
040000
0C0000
140000
040000
040400
040400
040400
1FFC00
000000
000000
000000
ENDCHAR
STARTCHAR lslash
ENCODING 322
SWIDTH 1080 0
DWIDTH 18 0
BBX 18 18 0 -3
BITMAP
000000
000000
038000
008000
008000
008000
00A000
00C000
008000
018000
028000
008000
008000
008000
03E000
000000
000000
000000
ENDCHAR
STARTCHAR Nacute
ENCODING 323
SWIDTH 1080 0
DWIDTH 18 0
BBX 18 18 0 -3
BITMAP
000000
002000
3C5F00
0E8400
0A0400
0B0400
098400
088400
08C400
086400
082400
083400
081C00
080C00
3C0400
000000
000000
000000
ENDCHAR
STARTCHAR nacute
ENCODING 324
SWIDTH 1080 0
DWIDTH 18 0
BBX 18 18 0 -3
BITMAP
000000
000000
000000
004000
008000
010000
000000
1DE000
063000
041000
041000
041000
041000
041000
1E3C00
000000
000000
000000
ENDCHAR
STARTCHAR Ncommaaccent
ENCODING 325
SWIDTH 1080 0
DWIDTH 18 0
BBX 18 18 0 -3
BITMAP
000000
000000
3C1F00
0E0400
0A0400
0B0400
098400
088400
08C400
086400
082400
083400
081C00
080C00
3C4400
004000
01C000
000000
ENDCHAR
STARTCHAR ncommaaccent
ENCODING 326
SWIDTH 1080 0
DWIDTH 18 0
BBX 18 18 0 -3
BITMAP
000000
000000
000000
000000
000000
000000
000000
1DE000
063000
041000
041000
041000
041000
041000
1E3C00
008000
038000
000000
ENDCHAR
STARTCHAR Ncaron
ENCODING 327
SWIDTH 1080 0
DWIDTH 18 0
BBX 18 18 0 -3
BITMAP
000000
022000
3D5F00
0E8400
0A0400
0B0400
098400
088400
08C400
086400
082400
083400
081C00
080C00
3C0400
000000
000000
000000
ENDCHAR
STARTCHAR ncaron
ENCODING 328
SWIDTH 1080 0
DWIDTH 18 0
BBX 18 18 0 -3
BITMAP
000000
000000
000000
044000
028000
010000
000000
1DE000
063000
041000
041000
041000
041000
041000
1E3C00
000000
000000
000000
ENDCHAR
STARTCHAR napostrophe
ENCODING 329
SWIDTH 1080 0
DWIDTH 18 0
BBX 18 18 0 -3
BITMAP
000000
000000
000000
000000
000000
200000
200000
2EF000
231800
020800
020800
020800
020800
020800
0F1E00
000000
000000
000000
ENDCHAR
STARTCHAR Eng
ENCODING 330
SWIDTH 1080 0
DWIDTH 18 0
BBX 18 18 0 -3
BITMAP
000000
000000
3C1F00
0E0400
0A0400
0B0400
098400
088400
08C400
086400
082400
083400
081C00
080C00
3C0400
001400
001800
000000
ENDCHAR
STARTCHAR eng
ENCODING 331
SWIDTH 1080 0
DWIDTH 18 0
BBX 18 18 0 -3
BITMAP
000000
000000
000000
000000
000000
000000
000000
0EF000
031800
020800
020800
020800
020800
020800
0F0800
002800
003000
000000
ENDCHAR
STARTCHAR Omacron
ENCODING 332
SWIDTH 1080 0
DWIDTH 18 0
BBX 18 18 0 -3
BITMAP
000000
03F000
000000
000000
01E000
061800
0C0C00
080400
100200
100200
100200
080400
0C0C00
061800
01E000
000000
000000
000000
ENDCHAR
STARTCHAR omacron
ENCODING 333
SWIDTH 1080 0
DWIDTH 18 0
BBX 18 18 0 -3
BITMAP
000000
000000
000000
000000
03F000
000000
000000
01E000
021000
040800
040800
040800
040800
021000
01E000
000000
000000
000000
ENDCHAR
STARTCHAR Obreve
ENCODING 334
SWIDTH 1080 0
DWIDTH 18 0
BBX 18 18 0 -3
BITMAP
021000
01E000
000000
000000
01E000
061800
0C0C00
080400
100200
100200
100200
080400
0C0C00
061800
01E000
000000
000000
000000
ENDCHAR
STARTCHAR obreve
ENCODING 335
SWIDTH 1080 0
DWIDTH 18 0
BBX 18 18 0 -3
BITMAP
000000
000000
000000
021000
01E000
000000
000000
01E000
021000
040800
040800
040800
040800
021000
01E000
000000
000000
000000
ENDCHAR
STARTCHAR Ohungarumlaut
ENCODING 336
SWIDTH 1080 0
DWIDTH 18 0
BBX 18 18 0 -3
BITMAP
000000
004800
009000
012000
01E000
061800
0C0C00
080400
100200
100200
100200
080400
0C0C00
061800
01E000
000000
000000
000000
ENDCHAR
STARTCHAR ohungarumlaut
ENCODING 337
SWIDTH 1080 0
DWIDTH 18 0
BBX 18 18 0 -3
BITMAP
000000
000000
000000
004800
009000
012000
000000
01E000
021000
040800
040800
040800
040800
021000
01E000
000000
000000
000000
ENDCHAR
STARTCHAR OE
ENCODING 338
SWIDTH 1080 0
DWIDTH 18 0
BBX 18 18 0 -3
BITMAP
000000
000000
07FE00
0C4200
184100
104000
204800
204800
207800
204800
204800
104000
184100
0C4200
07FE00
000000
000000
000000
ENDCHAR
STARTCHAR oe
ENCODING 339
SWIDTH 1080 0
DWIDTH 18 0
BBX 18 18 0 -3
BITMAP
000000
000000
000000
000000
000000
000000
000000
0F1C00
10A200
204100
207F00
204000
204000
10A100
0F1E00
000000
000000
000000
ENDCHAR
STARTCHAR Racute
ENCODING 340
SWIDTH 1080 0
DWIDTH 18 0
BBX 18 18 0 -3
BITMAP
000000
004000
008000
010000
3FE000
081000
080800
080800
081000
0FE000
082000
083000
081800
080800
3E3E00
000000
000000
000000
ENDCHAR
STARTCHAR racute
ENCODING 341
SWIDTH 1080 0
DWIDTH 18 0
BBX 18 18 0 -3
BITMAP
000000
000000
000000
002000
004000
008000
000000
073800
014800
018000
010000
010000
010000
010000
07C000
000000
000000
000000
ENDCHAR
STARTCHAR Rcommaaccent
ENCODING 342
SWIDTH 1080 0
DWIDTH 18 0
BBX 18 18 0 -3
BITMAP
000000
000000
3FE000
081000
080800
080800
080800
081000
0FE000
082000
083000
081000
081800
080800
3EBE00
008000
038000
000000
ENDCHAR
STARTCHAR rcommaaccent
ENCODING 343
SWIDTH 1080 0
DWIDTH 18 0
BBX 18 18 0 -3
BITMAP
000000
000000
000000
000000
000000
000000
000000
073800
014800
018000
010000
010000
010000
010000
07C000
008000
038000
000000
ENDCHAR
STARTCHAR Rcaron
ENCODING 344
SWIDTH 1080 0
DWIDTH 18 0
BBX 18 18 0 -3
BITMAP
000000
044000
028000
010000
3FE000
081000
080800
080800
081000
0FE000
082000
083000
081800
080800
3E3E00
000000
000000
000000
ENDCHAR
STARTCHAR rcaron
ENCODING 345
SWIDTH 1080 0
DWIDTH 18 0
BBX 18 18 0 -3
BITMAP
000000
000000
000000
011000
00A000
004000
000000
073800
014800
018000
010000
010000
010000
010000
07C000
000000
000000
000000
ENDCHAR
STARTCHAR Sacute
ENCODING 346
SWIDTH 1080 0
DWIDTH 18 0
BBX 18 18 0 -3
BITMAP
000000
002000
004000
008000
03E400
041400
080C00
080400
060400
01E000
081800
080400
0C0400
0A0800
09F000
000000
000000
000000
ENDCHAR
STARTCHAR sacute
ENCODING 347
SWIDTH 1080 0
DWIDTH 18 0
BBX 18 18 0 -3
BITMAP
000000
000000
000000
002000
004000
008000
000000
03E800
041800
040800
03C000
003000
040800
060800
05F000
000000
000000
000000
ENDCHAR
STARTCHAR Scircumflex
ENCODING 348
SWIDTH 1080 0
DWIDTH 18 0
BBX 18 18 0 -3
BITMAP
000000
008000
014000
022000
03E400
041400
080C00
080400
060400
01E000
081800
080400
0C0400
0A0800
09F000
000000
000000
000000
ENDCHAR
STARTCHAR scircumflex
ENCODING 349
SWIDTH 1080 0
DWIDTH 18 0
BBX 18 18 0 -3
BITMAP
000000
000000
000000
004000
00A000
011000
000000
03E800
041800
040800
03C000
003000
040800
060800
05F000
000000
000000
000000
ENDCHAR
STARTCHAR Scedilla
ENCODING 350
SWIDTH 1080 0
DWIDTH 18 0
BBX 18 18 0 -3
BITMAP
000000
000000
03E400
041400
080C00
080400
080400
060400
01E000
001800
080400
080400
0C0400
0A0800
09F000
004000
01C000
000000
ENDCHAR
STARTCHAR scedilla
ENCODING 351
SWIDTH 1080 0
DWIDTH 18 0
BBX 18 18 0 -3
BITMAP
000000
000000
000000
000000
000000
000000
000000
03E800
041800
040800
03C000
003000
040800
060800
05F000
004000
01C000
000000
ENDCHAR
STARTCHAR Scaron
ENCODING 352
SWIDTH 1080 0
DWIDTH 18 0
BBX 18 18 0 -3
BITMAP
000000
022000
014000
008000
03E400
041400
080C00
080400
060400
01E000
081800
080400
0C0400
0A0800
09F000
000000
000000
000000
ENDCHAR
STARTCHAR scaron
ENCODING 353
SWIDTH 1080 0
DWIDTH 18 0
BBX 18 18 0 -3
BITMAP
000000
000000
000000
011000
00A000
004000
000000
03E800
041800
040800
03C000
003000
040800
060800
05F000
000000
000000
000000
ENDCHAR
STARTCHAR Tcommaaccent
ENCODING 354
SWIDTH 1080 0
DWIDTH 18 0
BBX 18 18 0 -3
BITMAP
000000
000000
3FFE00
208200
208200
008000
008000
008000
008000
008000
008000
008000
008000
008000
03E000
008000
038000
000000
ENDCHAR
STARTCHAR tcommaaccent
ENCODING 355
SWIDTH 1080 0
DWIDTH 18 0
BBX 18 18 0 -3
BITMAP
000000
000000
000000
010000
010000
010000
010000
0FF000
010000
010000
010000
010000
010000
008800
007800
004000
01C000
000000
ENDCHAR
STARTCHAR Tcaron
ENCODING 356
SWIDTH 1080 0
DWIDTH 18 0
BBX 18 18 0 -3
BITMAP
000000
022000
014000
008000
3FFE00
208200
208200
008000
008000
008000
008000
008000
008000
008000
03E000
000000
000000
000000
ENDCHAR
STARTCHAR tcaron
ENCODING 357
SWIDTH 1080 0
DWIDTH 18 0
BBX 18 18 0 -3
BITMAP
000000
011000
00A000
014000
010000
010000
010000
0FF000
010000
010000
010000
010000
010000
008800
007800
000000
000000
000000
ENDCHAR
STARTCHAR Tbar
ENCODING 358
SWIDTH 1080 0
DWIDTH 18 0
BBX 18 18 0 -3
BITMAP
000000
000000
3FFE00
208200
208200
008000
008000
008000
03E000
008000
008000
008000
008000
008000
03E000
000000
000000
000000
ENDCHAR
STARTCHAR tbar
ENCODING 359
SWIDTH 1080 0
DWIDTH 18 0
BBX 18 18 0 -3
BITMAP
000000
000000
000000
010000
010000
010000
010000
0FF000
010000
010000
07C000
010000
010000
008800
007800
000000
000000
000000
ENDCHAR
STARTCHAR Utilde
ENCODING 360
SWIDTH 1080 0
DWIDTH 18 0
BBX 18 18 0 -3
BITMAP
000000
019000
026000
000000
3E3E00
080800
080800
080800
080800
080800
080800
080800
0C1800
063000
01C000
000000
000000
000000
ENDCHAR
STARTCHAR utilde
ENCODING 361
SWIDTH 1080 0
DWIDTH 18 0
BBX 18 18 0 -3
BITMAP
000000
000000
000000
000000
032000
04C000
000000
1C7000
041000
041000
041000
041000
041000
063000
03DC00
000000
000000
000000
ENDCHAR
STARTCHAR Umacron
ENCODING 362
SWIDTH 1080 0
DWIDTH 18 0
BBX 18 18 0 -3
BITMAP
000000
03E000
000000
000000
3E3E00
080800
080800
080800
080800
080800
080800
080800
0C1800
063000
01C000
000000
000000
000000
ENDCHAR
STARTCHAR umacron
ENCODING 363
SWIDTH 1080 0
DWIDTH 18 0
BBX 18 18 0 -3
BITMAP
000000
000000
000000
000000
07E000
000000
000000
1C7000
041000
041000
041000
041000
041000
063000
03DC00
000000
000000
000000
ENDCHAR
STARTCHAR Ubreve
ENCODING 364
SWIDTH 1080 0
DWIDTH 18 0
BBX 18 18 0 -3
BITMAP
000000
022000
01C000
000000
3E3E00
080800
080800
080800
080800
080800
080800
080800
0C1800
063000
01C000
000000
000000
000000
ENDCHAR
STARTCHAR ubreve
ENCODING 365
SWIDTH 1080 0
DWIDTH 18 0
BBX 18 18 0 -3
BITMAP
000000
000000
000000
022000
01C000
000000
000000
1C7000
041000
041000
041000
041000
041000
063000
03DC00
000000
000000
000000
ENDCHAR
STARTCHAR Uring
ENCODING 366
SWIDTH 1080 0
DWIDTH 18 0
BBX 18 18 0 -3
BITMAP
000000
008000
014000
008000
3E3E00
080800
080800
080800
080800
080800
080800
080800
0C1800
063000
01C000
000000
000000
000000
ENDCHAR
STARTCHAR uring
ENCODING 367
SWIDTH 1080 0
DWIDTH 18 0
BBX 18 18 0 -3
BITMAP
000000
000000
000000
008000
014000
008000
000000
1C7000
041000
041000
041000
041000
041000
063000
03DC00
000000
000000
000000
ENDCHAR
STARTCHAR Uhungarumlaut
ENCODING 368
SWIDTH 1080 0
DWIDTH 18 0
BBX 18 18 0 -3
BITMAP
000000
009000
012000
024000
3E3E00
080800
080800
080800
080800
080800
080800
080800
0C1800
063000
01C000
000000
000000
000000
ENDCHAR
STARTCHAR uhungarumlaut
ENCODING 369
SWIDTH 1080 0
DWIDTH 18 0
BBX 18 18 0 -3
BITMAP
000000
000000
000000
012000
024000
048000
000000
1C7000
041000
041000
041000
041000
041000
063000
03DC00
000000
000000
000000
ENDCHAR
STARTCHAR Uogonek
ENCODING 370
SWIDTH 1080 0
DWIDTH 18 0
BBX 18 18 0 -3
BITMAP
000000
000000
3E1F00
080400
080400
080400
080400
080400
080400
080400
080400
080400
0C0C00
061800
01E000
004000
007000
000000
ENDCHAR
STARTCHAR uogonek
ENCODING 371
SWIDTH 1080 0
DWIDTH 18 0
BBX 18 18 0 -3
BITMAP
000000
000000
000000
000000
000000
000000
000000
1C7000
041000
041000
041000
041000
041000
063000
03DC00
000800
000E00
000000
ENDCHAR
STARTCHAR Wcircumflex
ENCODING 372
SWIDTH 1080 0
DWIDTH 18 0
BBX 18 18 0 -3
BITMAP
000000
008000
7D5F00
122400
108400
108400
19CC00
094800
094800
0B6800
0A2800
0E3800
063000
041000
041000
000000
000000
000000
ENDCHAR
STARTCHAR wcircumflex
ENCODING 373
SWIDTH 1080 0
DWIDTH 18 0
BBX 18 18 0 -3
BITMAP
000000
000000
000000
008000
014000
022000
000000
3CCF00
08C400
0DEC00
052800
052800
073800
021000
021000
000000
000000
000000
ENDCHAR
STARTCHAR Ycircumflex
ENCODING 374
SWIDTH 1080 0
DWIDTH 18 0
BBX 18 18 0 -3
BITMAP
000000
008000
3D5E00
0A2800
0C1800
041000
063000
022000
036000
01C000
008000
008000
008000
008000
03E000
000000
000000
000000
ENDCHAR
STARTCHAR ycircumflex
ENCODING 375
SWIDTH 1080 0
DWIDTH 18 0
BBX 18 18 0 -3
BITMAP
000000
000000
000000
008000
014000
022000
000000
1E3C00
041000
063000
022000
036000
014000
00C000
018000
130000
1E0000
000000
ENDCHAR
STARTCHAR Ydieresis
ENCODING 376
SWIDTH 1080 0
DWIDTH 18 0
BBX 18 18 0 -3
BITMAP
000000
036000
3F7E00
080800
0C1800
041000
063000
022000
036000
01C000
008000
008000
008000
008000
03E000
000000
000000
000000
ENDCHAR
STARTCHAR Zacute
ENCODING 377
SWIDTH 1080 0
DWIDTH 18 0
BBX 18 18 0 -3
BITMAP
000000
002000
004000
008000
0FFC00
081800
083000
006000
00C000
018000
030000
060000
0C0400
180400
1FFC00
000000
000000
000000
ENDCHAR
STARTCHAR zacute
ENCODING 378
SWIDTH 1080 0
DWIDTH 18 0
BBX 18 18 0 -3
BITMAP
000000
000000
000000
002000
004000
008000
000000
07F800
041000
042000
004000
008000
010800
020800
07F800
000000
000000
000000
ENDCHAR
STARTCHAR Zdotaccent
ENCODING 379
SWIDTH 1080 0
DWIDTH 18 0
BBX 18 18 0 -3
BITMAP
000000
00C000
00C000
000000
0FFC00
081800
083000
006000
00C000
018000
030000
060000
0C0400
180400
1FFC00
000000
000000
000000
ENDCHAR
STARTCHAR zdotaccent
ENCODING 380
SWIDTH 1080 0
DWIDTH 18 0
BBX 18 18 0 -3
BITMAP
000000
000000
000000
000000
00C000
00C000
000000
07F800
041000
042000
004000
008000
010800
020800
07F800
000000
000000
000000
ENDCHAR
STARTCHAR Zcaron
ENCODING 381
SWIDTH 1080 0
DWIDTH 18 0
BBX 18 18 0 -3
BITMAP
000000
022000
014000
008000
0FFC00
081800
083000
006000
00C000
018000
030000
060000
0C0400
180400
1FFC00
000000
000000
000000
ENDCHAR
STARTCHAR zcaron
ENCODING 382
SWIDTH 1080 0
DWIDTH 18 0
BBX 18 18 0 -3
BITMAP
000000
000000
000000
011000
00A000
004000
000000
07F800
041000
042000
004000
008000
010800
020800
07F800
000000
000000
000000
ENDCHAR
STARTCHAR longs
ENCODING 383
SWIDTH 1080 0
DWIDTH 18 0
BBX 18 18 0 -3
BITMAP
000000
000000
00E000
01B000
030000
020000
020000
060000
020000
020000
020000
020000
020000
020000
070000
000000
000000
000000
ENDCHAR
STARTCHAR florin
ENCODING 402
SWIDTH 1080 0
DWIDTH 18 0
BBX 18 18 0 -3
BITMAP
000000
000000
007800
008800
010000
010000
010000
0FE000
010000
010000
010000
010000
010000
010000
010000
050000
060000
000000
ENDCHAR
STARTCHAR uni01CD
ENCODING 461
SWIDTH 1080 0
DWIDTH 18 0
BBX 18 18 0 -3
BITMAP
000000
022000
014000
008000
01C000
014000
036000
022000
063000
041000
0FF800
080800
180C00
100400
7C1F00
000000
000000
000000
ENDCHAR
STARTCHAR uni01CE
ENCODING 462
SWIDTH 1080 0
DWIDTH 18 0
BBX 18 18 0 -3
BITMAP
000000
000000
000000
044000
028000
010000
000000
07C000
002000
002000
07E000
082000
082000
086800
079800
000000
000000
000000
ENDCHAR
STARTCHAR uni01CF
ENCODING 463
SWIDTH 1080 0
DWIDTH 18 0
BBX 18 18 0 -3
BITMAP
000000
022000
014000
008000
03E000
008000
008000
008000
008000
008000
008000
008000
008000
008000
03E000
000000
000000
000000
ENDCHAR
STARTCHAR uni01D0
ENCODING 464
SWIDTH 1080 0
DWIDTH 18 0
BBX 18 18 0 -3
BITMAP
000000
000000
000000
022000
014000
008000
000000
038000
008000
008000
008000
008000
008000
008000
03E000
000000
000000
000000
ENDCHAR
STARTCHAR uni01D1
ENCODING 465
SWIDTH 1080 0
DWIDTH 18 0
BBX 18 18 0 -3
BITMAP
000000
022000
014000
008000
01E000
061800
0C0C00
080400
100200
100200
100200
080400
0C0C00
061800
01E000
000000
000000
000000
ENDCHAR
STARTCHAR uni01D2
ENCODING 466
SWIDTH 1080 0
DWIDTH 18 0
BBX 18 18 0 -3
BITMAP
000000
000000
000000
022000
014000
008000
000000
01E000
021000
040800
040800
040800
040800
021000
01E000
000000
000000
000000
ENDCHAR
STARTCHAR uni01D3
ENCODING 467
SWIDTH 1080 0
DWIDTH 18 0
BBX 18 18 0 -3
BITMAP
000000
022000
014000
008000
3E3E00
080800
080800
080800
080800
080800
080800
080800
0C1800
063000
01C000
000000
000000
000000
ENDCHAR
STARTCHAR uni01D4
ENCODING 468
SWIDTH 1080 0
DWIDTH 18 0
BBX 18 18 0 -3
BITMAP
000000
000000
000000
022000
014000
008000
000000
1C7000
041000
041000
041000
041000
041000
063000
03DC00
000000
000000
000000
ENDCHAR
STARTCHAR uni01D5
ENCODING 469
SWIDTH 1080 0
DWIDTH 18 0
BBX 18 18 0 -3
BITMAP
000000
03E000
000000
036000
036000
3E3E00
080800
080800
080800
080800
080800
080800
0C1800
063000
01C000
000000
000000
000000
ENDCHAR
STARTCHAR uni01D6
ENCODING 470
SWIDTH 1080 0
DWIDTH 18 0
BBX 18 18 0 -3
BITMAP
000000
000000
03E000
000000
036000
036000
000000
1C7000
041000
041000
041000
041000
041000
063000
03DC00
000000
000000
000000
ENDCHAR
STARTCHAR uni01D7
ENCODING 471
SWIDTH 1080 0
DWIDTH 18 0
BBX 18 18 0 -3
BITMAP
000000
004000
008000
036000
036000
3E3E00
080800
080800
080800
080800
080800
080800
0C1800
063000
01C000
000000
000000
000000
ENDCHAR
STARTCHAR uni01D8
ENCODING 472
SWIDTH 1080 0
DWIDTH 18 0
BBX 18 18 0 -3
BITMAP
000000
002000
004000
008000
036000
036000
000000
1C7000
041000
041000
041000
041000
041000
063000
03DC00
000000
000000
000000
ENDCHAR
STARTCHAR uni01D9
ENCODING 473
SWIDTH 1080 0
DWIDTH 18 0
BBX 18 18 0 -3
BITMAP
000000
022000
014000
03E000
036000
3E3E00
080800
080800
080800
080800
080800
080800
0C1800
063000
01C000
000000
000000
000000
ENDCHAR
STARTCHAR uni01DA
ENCODING 474
SWIDTH 1080 0
DWIDTH 18 0
BBX 18 18 0 -3
BITMAP
000000
022000
014000
008000
036000
036000
000000
1C7000
041000
041000
041000
041000
041000
063000
03DC00
000000
000000
000000
ENDCHAR
STARTCHAR uni01DB
ENCODING 475
SWIDTH 1080 0
DWIDTH 18 0
BBX 18 18 0 -3
BITMAP
000000
010000
008000
036000
036000
3E3E00
080800
080800
080800
080800
080800
080800
0C1800
063000
01C000
000000
000000
000000
ENDCHAR
STARTCHAR uni01DC
ENCODING 476
SWIDTH 1080 0
DWIDTH 18 0
BBX 18 18 0 -3
BITMAP
000000
020000
010000
008000
036000
036000
000000
1C7000
041000
041000
041000
041000
041000
063000
03DC00
000000
000000
000000
ENDCHAR
STARTCHAR uni01F5
ENCODING 501
SWIDTH 1080 0
DWIDTH 18 0
BBX 18 18 0 -3
BITMAP
000000
000000
000000
004000
008000
010000
000000
03EC00
041000
041000
041000
03E000
040000
07F800
080400
080400
07F800
000000
ENDCHAR
STARTCHAR circumflex
ENCODING 710
SWIDTH 1080 0
DWIDTH 18 0
BBX 18 18 0 -3
BITMAP
000000
008000
014000
022000
041000
000000
000000
000000
000000
000000
000000
000000
000000
000000
000000
000000
000000
000000
ENDCHAR
STARTCHAR caron
ENCODING 711
SWIDTH 1080 0
DWIDTH 18 0
BBX 18 18 0 -3
BITMAP
000000
041000
022000
014000
008000
000000
000000
000000
000000
000000
000000
000000
000000
000000
000000
000000
000000
000000
ENDCHAR
STARTCHAR macron
ENCODING 713
SWIDTH 1080 0
DWIDTH 18 0
BBX 18 18 0 -3
BITMAP
000000
000000
000000
000000
3FFF00
000000
000000
000000
000000
000000
000000
000000
000000
000000
000000
000000
000000
000000
ENDCHAR
STARTCHAR uni02D0
ENCODING 720
SWIDTH 1080 0
DWIDTH 18 0
BBX 18 18 0 -3
BITMAP
000000
000000
000000
000000
01C000
008000
000000
000000
000000
000000
000000
008000
01C000
000000
000000
000000
000000
000000
ENDCHAR
STARTCHAR breve
ENCODING 728
SWIDTH 1080 0
DWIDTH 18 0
BBX 18 18 0 -3
BITMAP
000000
041000
041000
022000
01C000
000000
000000
000000
000000
000000
000000
000000
000000
000000
000000
000000
000000
000000
ENDCHAR
STARTCHAR dotaccent
ENCODING 729
SWIDTH 1080 0
DWIDTH 18 0
BBX 18 18 0 -3
BITMAP
000000
000000
00C000
00C000
000000
000000
000000
000000
000000
000000
000000
000000
000000
000000
000000
000000
000000
000000
ENDCHAR
STARTCHAR ring
ENCODING 730
SWIDTH 1080 0
DWIDTH 18 0
BBX 18 18 0 -3
BITMAP
000000
00C000
012000
012000
00C000
000000
000000
000000
000000
000000
000000
000000
000000
000000
000000
000000
000000
000000
ENDCHAR
STARTCHAR ogonek
ENCODING 731
SWIDTH 1080 0
DWIDTH 18 0
BBX 18 18 0 -3
BITMAP
000000
000000
000000
000000
000000
000000
000000
000000
000000
000000
000000
000000
000000
000000
000400
000400
000300
000000
ENDCHAR
STARTCHAR tilde
ENCODING 732
SWIDTH 1080 0
DWIDTH 18 0
BBX 18 18 0 -3
BITMAP
000000
039000
04E000
000000
000000
000000
000000
000000
000000
000000
000000
000000
000000
000000
000000
000000
000000
000000
ENDCHAR
STARTCHAR hungarumlaut
ENCODING 733
SWIDTH 1080 0
DWIDTH 18 0
BBX 18 18 0 -3
BITMAP
000000
00A000
014000
028000
000000
000000
000000
000000
000000
000000
000000
000000
000000
000000
000000
000000
000000
000000
ENDCHAR
STARTCHAR gravecomb
ENCODING 768
SWIDTH 1080 0
DWIDTH 18 0
BBX 18 18 0 -3
BITMAP
000000
018000
006000
000000
000000
000000
000000
000000
000000
000000
000000
000000
000000
000000
000000
000000
000000
000000
ENDCHAR
STARTCHAR acutecomb
ENCODING 769
SWIDTH 1080 0
DWIDTH 18 0
BBX 18 18 0 -3
BITMAP
000000
006000
018000
000000
000000
000000
000000
000000
000000
000000
000000
000000
000000
000000
000000
000000
000000
000000
ENDCHAR
STARTCHAR uni0302
ENCODING 770
SWIDTH 1080 0
DWIDTH 18 0
BBX 18 18 0 -3
BITMAP
000000
00C000
033000
000000
000000
000000
000000
000000
000000
000000
000000
000000
000000
000000
000000
000000
000000
000000
ENDCHAR
STARTCHAR tildecomb
ENCODING 771
SWIDTH 1080 0
DWIDTH 18 0
BBX 18 18 0 -3
BITMAP
000000
039000
04E000
000000
000000
000000
000000
000000
000000
000000
000000
000000
000000
000000
000000
000000
000000
000000
ENDCHAR
STARTCHAR uni0307
ENCODING 775
SWIDTH 1080 0
DWIDTH 18 0
BBX 18 18 0 -3
BITMAP
000000
00C000
00C000
000000
000000
000000
000000
000000
000000
000000
000000
000000
000000
000000
000000
000000
000000
000000
ENDCHAR
STARTCHAR uni0308
ENCODING 776
SWIDTH 1080 0
DWIDTH 18 0
BBX 18 18 0 -3
BITMAP
000000
033000
033000
000000
000000
000000
000000
000000
000000
000000
000000
000000
000000
000000
000000
000000
000000
000000
ENDCHAR
STARTCHAR uni030A
ENCODING 778
SWIDTH 1080 0
DWIDTH 18 0
BBX 18 18 0 -3
BITMAP
000000
00C000
012000
00C000
000000
000000
000000
000000
000000
000000
000000
000000
000000
000000
000000
000000
000000
000000
ENDCHAR
STARTCHAR tonos
ENCODING 900
SWIDTH 1080 0
DWIDTH 18 0
BBX 18 18 0 -3
BITMAP
000000
008000
008000
008000
000000
000000
000000
000000
000000
000000
000000
000000
000000
000000
000000
000000
000000
000000
ENDCHAR
STARTCHAR dieresistonos
ENCODING 901
SWIDTH 1080 0
DWIDTH 18 0
BBX 18 18 0 -3
BITMAP
000000
008000
008000
000000
036000
036000
000000
000000
000000
000000
000000
000000
000000
000000
000000
000000
000000
000000
ENDCHAR
STARTCHAR Alphatonos
ENCODING 902
SWIDTH 1080 0
DWIDTH 18 0
BBX 18 18 0 -3
BITMAP
000000
100000
108000
11C000
114000
036000
022000
063000
041000
07F000
0C1800
080800
180C00
100400
7C1F00
000000
000000
000000
ENDCHAR
STARTCHAR Epsilontonos
ENCODING 904
SWIDTH 1080 0
DWIDTH 18 0
BBX 18 18 0 -3
BITMAP
000000
200000
2FFE00
220200
220100
020000
021000
021000
03F000
021000
021000
020000
020100
020200
0FFE00
000000
000000
000000
ENDCHAR
STARTCHAR Etatonos
ENCODING 905
SWIDTH 1080 0
DWIDTH 18 0
BBX 18 18 0 -3
BITMAP
000000
400000
5F1F00
440400
440400
040400
040400
040400
07FC00
040400
040400
040400
040400
040400
1F1F00
000000
000000
000000
ENDCHAR
STARTCHAR Iotatonos
ENCODING 906
SWIDTH 1080 0
DWIDTH 18 0
BBX 18 18 0 -3
BITMAP
000000
040000
04F800
042000
042000
002000
002000
002000
002000
002000
002000
002000
002000
002000
00F800
000000
000000
000000
ENDCHAR
STARTCHAR Omicrontonos
ENCODING 908
SWIDTH 1080 0
DWIDTH 18 0
BBX 18 18 0 -3
BITMAP
000000
200000
21E000
261800
2C0C00
080400
180600
100200
100200
100200
180600
080400
0C0C00
061800
01E000
000000
000000
000000
ENDCHAR
STARTCHAR Upsilontonos
ENCODING 910
SWIDTH 1080 0
DWIDTH 18 0
BBX 18 18 0 -3
BITMAP
000000
400000
47BC00
4CE600
584300
004000
004000
004000
004000
004000
004000
004000
004000
004000
01F000
000000
000000
000000
ENDCHAR
STARTCHAR Omegatonos
ENCODING 911
SWIDTH 1080 0
DWIDTH 18 0
BBX 18 18 0 -3
BITMAP
000000
200000
20F000
230C00
260600
040200
080100
080100
080100
040200
060600
030C00
089100
089100
0F9F00
000000
000000
000000
ENDCHAR
STARTCHAR iotadieresistonos
ENCODING 912
SWIDTH 1080 0
DWIDTH 18 0
BBX 18 18 0 -3
BITMAP
000000
010000
010000
010000
06C000
06C000
000000
010000
010000
030000
020000
060000
040800
047000
03C000
000000
000000
000000
ENDCHAR
STARTCHAR Alpha
ENCODING 913
SWIDTH 1080 0
DWIDTH 18 0
BBX 18 18 0 -3
BITMAP
000000
000000
008000
008000
01C000
014000
036000
022000
063000
041000
0FF800
080800
180C00
100400
7C1F00
000000
000000
000000
ENDCHAR
STARTCHAR Beta
ENCODING 914
SWIDTH 1080 0
DWIDTH 18 0
BBX 18 18 0 -3
BITMAP
000000
000000
1FF000
040800
040400
040400
040400
040800
07F000
040C00
040200
040200
040200
040400
1FF800
000000
000000
000000
ENDCHAR
STARTCHAR Gamma
ENCODING 915
SWIDTH 1080 0
DWIDTH 18 0
BBX 18 18 0 -3
BITMAP
000000
000000
1FFC00
040400
040400
040000
040000
040000
040000
040000
040000
040000
040000
040000
1F0000
000000
000000
000000
ENDCHAR
STARTCHAR Delta
ENCODING 916
SWIDTH 1080 0
DWIDTH 18 0
BBX 18 18 0 -3
BITMAP
000000
000000
008000
01C000
014000
036000
022000
063000
041000
041000
0C1800
080800
180C00
100400
3FFE00
000000
000000
000000
ENDCHAR
STARTCHAR Epsilon
ENCODING 917
SWIDTH 1080 0
DWIDTH 18 0
BBX 18 18 0 -3
BITMAP
000000
000000
1FFC00
040400
040400
040000
042000
042000
07E000
042000
042000
040000
040400
040400
1FFC00
000000
000000
000000
ENDCHAR
STARTCHAR Zeta
ENCODING 918
SWIDTH 1080 0
DWIDTH 18 0
BBX 18 18 0 -3
BITMAP
000000
000000
0FFC00
081800
083000
002000
006000
00C000
008000
018000
030000
020000
060400
0C0400
1FFC00
000000
000000
000000
ENDCHAR
STARTCHAR Eta
ENCODING 919
SWIDTH 1080 0
DWIDTH 18 0
BBX 18 18 0 -3
BITMAP
000000
000000
3E1F00
080400
080400
080400
080400
080400
0FFC00
080400
080400
080400
080400
080400
3E1F00
000000
000000
000000
ENDCHAR
STARTCHAR Theta
ENCODING 920
SWIDTH 1080 0
DWIDTH 18 0
BBX 18 18 0 -3
BITMAP
000000
000000
01E000
061800
0C0C00
080400
180600
121200
13F200
121200
180600
080400
0C0C00
061800
01E000
000000
000000
000000
ENDCHAR
STARTCHAR Iota
ENCODING 921
SWIDTH 1080 0
DWIDTH 18 0
BBX 18 18 0 -3
BITMAP
000000
000000
03E000
008000
008000
008000
008000
008000
008000
008000
008000
008000
008000
008000
03E000
000000
000000
000000
ENDCHAR
STARTCHAR Kappa
ENCODING 922
SWIDTH 1080 0
DWIDTH 18 0
BBX 18 18 0 -3
BITMAP
000000
000000
3E7C00
083000
086000
08C000
098000
0B0000
0F0000
098000
08C000
086000
083000
081800
3E3E00
000000
000000
000000
ENDCHAR
STARTCHAR Lambda
ENCODING 923
SWIDTH 1080 0
DWIDTH 18 0
BBX 18 18 0 -3
BITMAP
000000
000000
008000
01C000
014000
036000
022000
063000
041000
041000
0C1800
080800
180C00
100400
7C1F00
000000
000000
000000
ENDCHAR
STARTCHAR Mu
ENCODING 924
SWIDTH 1080 0
DWIDTH 18 0
BBX 18 18 0 -3
BITMAP
000000
000000
780F00
180C00
1C1C00
141400
141400
163400
122400
122400
136400
114400
11C400
108400
788F00
000000
000000
000000
ENDCHAR
STARTCHAR Nu
ENCODING 925
SWIDTH 1080 0
DWIDTH 18 0
BBX 18 18 0 -3
BITMAP
000000
000000
3C1F00
0E0400
0A0400
0B0400
098400
088400
08C400
086400
082400
083400
081C00
080C00
3C0400
000000
000000
000000
ENDCHAR
STARTCHAR Xi
ENCODING 926
SWIDTH 1080 0
DWIDTH 18 0
BBX 18 18 0 -3
BITMAP
000000
000000
1FFE00
100200
000000
000000
000000
080400
0FFC00
080400
000000
000000
000000
100200
1FFE00
000000
000000
000000
ENDCHAR
STARTCHAR Omicron
ENCODING 927
SWIDTH 1080 0
DWIDTH 18 0
BBX 18 18 0 -3
BITMAP
000000
000000
01E000
061800
0C0C00
080400
180600
100200
100200
100200
180600
080400
0C0C00
061800
01E000
000000
000000
000000
ENDCHAR
STARTCHAR Pi
ENCODING 928
SWIDTH 1080 0
DWIDTH 18 0
BBX 18 18 0 -3
BITMAP
000000
000000
1FFE00
040800
040800
040800
040800
040800
040800
040800
040800
040800
040800
040800
1F3E00
000000
000000
000000
ENDCHAR
STARTCHAR Rho
ENCODING 929
SWIDTH 1080 0
DWIDTH 18 0
BBX 18 18 0 -3
BITMAP
000000
000000
1FF000
040800
040400
040400
040400
040800
07F000
040000
040000
040000
040000
040000
1F0000
000000
000000
000000
ENDCHAR
STARTCHAR Sigma
ENCODING 931
SWIDTH 1080 0
DWIDTH 18 0
BBX 18 18 0 -3
BITMAP
000000
000000
1FFC00
0C0400
060400
030000
018000
00C000
006000
00C000
018000
030000
060400
0C0400
1FFC00
000000
000000
000000
ENDCHAR
STARTCHAR Tau
ENCODING 932
SWIDTH 1080 0
DWIDTH 18 0
BBX 18 18 0 -3
BITMAP
000000
000000
3FFE00
208200
208200
008000
008000
008000
008000
008000
008000
008000
008000
008000
03E000
000000
000000
000000
ENDCHAR
STARTCHAR Upsilon
ENCODING 933
SWIDTH 1080 0
DWIDTH 18 0
BBX 18 18 0 -3
BITMAP
000000
000000
0F7800
19CC00
308600
008000
008000
008000
008000
008000
008000
008000
008000
008000
03E000
000000
000000
000000
ENDCHAR
STARTCHAR Phi
ENCODING 934
SWIDTH 1080 0
DWIDTH 18 0
BBX 18 18 0 -3
BITMAP
000000
000000
03E000
008000
07F000
188C00
308600
208200
208200
208200
308600
188C00
07F000
008000
03E000
000000
000000
000000
ENDCHAR
STARTCHAR Chi
ENCODING 935
SWIDTH 1080 0
DWIDTH 18 0
BBX 18 18 0 -3
BITMAP
000000
000000
3E3E00
080800
0C1800
063000
036000
01C000
008000
01C000
036000
063000
0C1800
080800
3C3E00
000000
000000
000000
ENDCHAR
STARTCHAR Psi
ENCODING 936
SWIDTH 1080 0
DWIDTH 18 0
BBX 18 18 0 -3
BITMAP
000000
000000
03E000
308600
488900
088800
088800
088800
088800
0C9800
049000
03E000
008000
008000
03E000
000000
000000
000000
ENDCHAR
STARTCHAR Omega
ENCODING 937
SWIDTH 1080 0
DWIDTH 18 0
BBX 18 18 0 -3
BITMAP
000000
000000
01E000
061800
0C0C00
080400
100200
100200
100200
080400
0C0C00
061800
112200
112200
1F3E00
000000
000000
000000
ENDCHAR
STARTCHAR Iotadieresis
ENCODING 938
SWIDTH 1080 0
DWIDTH 18 0
BBX 18 18 0 -3
BITMAP
000000
036000
036000
000000
03E000
008000
008000
008000
008000
008000
008000
008000
008000
008000
03E000
000000
000000
000000
ENDCHAR
STARTCHAR Upsilondieresis
ENCODING 939
SWIDTH 1080 0
DWIDTH 18 0
BBX 18 18 0 -3
BITMAP
000000
036000
036000
000000
0F7800
19CC00
308600
008000
008000
008000
008000
008000
008000
008000
03E000
000000
000000
000000
ENDCHAR
STARTCHAR alphatonos
ENCODING 940
SWIDTH 1080 0
DWIDTH 18 0
BBX 18 18 0 -3
BITMAP
000000
004000
004000
004000
004000
000000
000000
01C400
022400
042800
043000
082000
086000
08A400
071800
000000
000000
000000
ENDCHAR
STARTCHAR epsilontonos
ENCODING 941
SWIDTH 1080 0
DWIDTH 18 0
BBX 18 18 0 -3
BITMAP
000000
004000
004000
004000
004000
000000
000000
01F000
020800
020000
01E000
020000
040000
041000
03E000
000000
000000
000000
ENDCHAR
STARTCHAR etatonos
ENCODING 942
SWIDTH 1080 0
DWIDTH 18 0
BBX 18 18 0 -3
BITMAP
000000
004000
004000
004000
004000
000000
000000
077800
098C00
010400
030400
020C00
020800
060800
041800
001000
003000
000000
ENDCHAR
STARTCHAR iotatonos
ENCODING 943
SWIDTH 1080 0
DWIDTH 18 0
BBX 18 18 0 -3
BITMAP
000000
010000
010000
010000
010000
000000
000000
010000
010000
030000
020000
060000
040800
047000
03C000
000000
000000
000000
ENDCHAR
STARTCHAR upsilondieresistonos
ENCODING 944
SWIDTH 1080 0
DWIDTH 18 0
BBX 18 18 0 -3
BITMAP
000000
004000
004000
004000
01B000
01B000
000000
021800
020800
020800
061800
041000
043000
046000
038000
000000
000000
000000
ENDCHAR
STARTCHAR alpha
ENCODING 945
SWIDTH 1080 0
DWIDTH 18 0
BBX 18 18 0 -3
BITMAP
000000
000000
000000
000000
000000
000000
000000
01C400
022400
042800
043000
082000
086000
08A400
071800
000000
000000
000000
ENDCHAR
STARTCHAR beta
ENCODING 946
SWIDTH 1080 0
DWIDTH 18 0
BBX 18 18 0 -3
BITMAP
000000
000000
007800
00C400
018400
010400
030400
020800
027000
061800
040800
040800
040800
0D1800
08F000
080000
180000
000000
ENDCHAR
STARTCHAR gamma
ENCODING 947
SWIDTH 1080 0
DWIDTH 18 0
BBX 18 18 0 -3
BITMAP
000000
000000
000000
000000
000000
000000
000000
070C00
0C9800
18B000
00E000
00C000
008000
018000
010000
030000
020000
000000
ENDCHAR
STARTCHAR delta
ENCODING 948
SWIDTH 1080 0
DWIDTH 18 0
BBX 18 18 0 -3
BITMAP
000000
000000
01E000
023800
010C00
008400
004000
01A000
021000
041000
081000
083000
082000
044000
038000
000000
000000
000000
ENDCHAR
STARTCHAR epsilon
ENCODING 949
SWIDTH 1080 0
DWIDTH 18 0
BBX 18 18 0 -3
BITMAP
000000
000000
000000
000000
000000
000000
000000
01F000
020800
020000
01E000
020000
040000
041000
03E000
000000
000000
000000
ENDCHAR
STARTCHAR zeta
ENCODING 950
SWIDTH 1080 0
DWIDTH 18 0
BBX 18 18 0 -3
BITMAP
000000
020000
041800
043000
03E000
00C000
018000
030000
060000
0C0000
080000
0C0000
070000
018000
004000
004000
038000
000000
ENDCHAR
STARTCHAR eta
ENCODING 951
SWIDTH 1080 0
DWIDTH 18 0
BBX 18 18 0 -3
BITMAP
000000
000000
000000
000000
000000
000000
000000
077800
098C00
010400
030400
020C00
020800
060800
041800
001000
003000
000000
ENDCHAR
STARTCHAR theta
ENCODING 952
SWIDTH 1080 0
DWIDTH 18 0
BBX 18 18 0 -3
BITMAP
000000
000000
007000
018800
030400
060400
040400
0FFC00
080400
080C00
080800
081800
083000
046000
038000
000000
000000
000000
ENDCHAR
STARTCHAR iota
ENCODING 953
SWIDTH 1080 0
DWIDTH 18 0
BBX 18 18 0 -3
BITMAP
000000
000000
000000
000000
000000
000000
000000
010000
010000
030000
020000
060000
040800
047000
03C000
000000
000000
000000
ENDCHAR
STARTCHAR kappa
ENCODING 954
SWIDTH 1080 0
DWIDTH 18 0
BBX 18 18 0 -3
BITMAP
000000
000000
000000
000000
000000
000000
000000
021C00
022400
02C000
070000
048000
0C8000
088800
187000
000000
000000
000000
ENDCHAR
STARTCHAR lambda
ENCODING 955
SWIDTH 1080 0
DWIDTH 18 0
BBX 18 18 0 -3
BITMAP
000000
000000
00C000
006000
002000
002000
002000
002000
006000
00A000
012000
033000
021000
061800
0C0C00
000000
000000
000000
ENDCHAR
STARTCHAR mu
ENCODING 956
SWIDTH 1080 0
DWIDTH 18 0
BBX 18 18 0 -3
BITMAP
000000
000000
000000
000000
000000
000000
000000
021000
021000
063000
042000
042000
042000
0E6400
0B9800
080000
180000
000000
ENDCHAR
STARTCHAR nu
ENCODING 957
SWIDTH 1080 0
DWIDTH 18 0
BBX 18 18 0 -3
BITMAP
000000
000000
000000
000000
000000
000000
000000
0C0400
020400
020800
021800
063000
046000
05C000
0F0000
000000
000000
000000
ENDCHAR
STARTCHAR xi
ENCODING 958
SWIDTH 1080 0
DWIDTH 18 0
BBX 18 18 0 -3
BITMAP
000000
000000
007800
008000
004000
01F800
020000
020000
010000
07F800
080000
080000
070000
00E000
001000
001000
07E000
000000
ENDCHAR
STARTCHAR omicron
ENCODING 959
SWIDTH 1080 0
DWIDTH 18 0
BBX 18 18 0 -3
BITMAP
000000
000000
000000
000000
000000
000000
000000
00E000
031000
060800
040800
040800
041800
023000
01C000
000000
000000
000000
ENDCHAR
STARTCHAR pi
ENCODING 960
SWIDTH 1080 0
DWIDTH 18 0
BBX 18 18 0 -3
BITMAP
000000
000000
000000
000000
000000
000000
000400
07F800
092000
012000
012000
024000
024000
064800
0C3000
000000
000000
000000
ENDCHAR
STARTCHAR rho
ENCODING 961
SWIDTH 1080 0
DWIDTH 18 0
BBX 18 18 0 -3
BITMAP
000000
000000
000000
000000
000000
000000
000000
00E000
011000
020800
020800
060800
040800
051000
0CE000
080000
080000
000000
ENDCHAR
STARTCHAR sigma1
ENCODING 962
SWIDTH 1080 0
DWIDTH 18 0
BBX 18 18 0 -3
BITMAP
000000
000000
000000
000000
000000
000000
000000
01E000
031000
020000
018000
004000
002000
022000
01C000
000000
000000
000000
ENDCHAR
STARTCHAR sigma
ENCODING 963
SWIDTH 1080 0
DWIDTH 18 0
BBX 18 18 0 -3
BITMAP
000000
000000
000000
000000
000000
000000
000800
01F800
062000
0C1000
081000
081000
083000
046000
038000
000000
000000
000000
ENDCHAR
STARTCHAR tau
ENCODING 964
SWIDTH 1080 0
DWIDTH 18 0
BBX 18 18 0 -3
BITMAP
000000
000000
000000
000000
000000
000000
000400
07F800
088000
018000
010000
030000
021000
022000
01C000
000000
000000
000000
ENDCHAR
STARTCHAR upsilon
ENCODING 965
SWIDTH 1080 0
DWIDTH 18 0
BBX 18 18 0 -3
BITMAP
000000
000000
000000
000000
000000
000000
000000
021800
020800
020800
061800
041000
043000
046000
038000
000000
000000
000000
ENDCHAR
STARTCHAR phi
ENCODING 966
SWIDTH 1080 0
DWIDTH 18 0
BBX 18 18 0 -3
BITMAP
000000
000000
001000
001000
003000
002000
002000
01F000
064800
084400
08C400
088400
049800
03E000
010000
010000
030000
000000
ENDCHAR
STARTCHAR chi
ENCODING 967
SWIDTH 1080 0
DWIDTH 18 0
BBX 18 18 0 -3
BITMAP
000000
000000
000000
000000
000000
000000
000000
030C00
049800
00B000
00E000
00C000
018000
038000
068000
0C4800
183000
000000
ENDCHAR
STARTCHAR psi
ENCODING 968
SWIDTH 1080 0
DWIDTH 18 0
BBX 18 18 0 -3
BITMAP
000000
000000
001000
001000
003000
002000
002000
066400
0A4400
024400
06CC00
048800
049000
03E000
010000
010000
030000
000000
ENDCHAR
STARTCHAR omega
ENCODING 969
SWIDTH 1080 0
DWIDTH 18 0
BBX 18 18 0 -3
BITMAP
000000
000000
000000
000000
000000
000000
000000
020400
044200
084200
08C200
108200
108200
11C400
0E7800
000000
000000
000000
ENDCHAR
STARTCHAR iotadieresis
ENCODING 970
SWIDTH 1080 0
DWIDTH 18 0
BBX 18 18 0 -3
BITMAP
000000
000000
000000
000000
06C000
06C000
000000
010000
010000
030000
020000
060000
040800
047000
03C000
000000
000000
000000
ENDCHAR
STARTCHAR upsilondieresis
ENCODING 971
SWIDTH 1080 0
DWIDTH 18 0
BBX 18 18 0 -3
BITMAP
000000
000000
000000
000000
01B000
01B000
000000
021800
020800
020800
061800
041000
043000
046000
038000
000000
000000
000000
ENDCHAR
STARTCHAR omicrontonos
ENCODING 972
SWIDTH 1080 0
DWIDTH 18 0
BBX 18 18 0 -3
BITMAP
000000
008000
008000
008000
008000
000000
000000
00E000
031000
060800
040800
040800
041800
023000
01C000
000000
000000
000000
ENDCHAR
STARTCHAR upsilontonos
ENCODING 973
SWIDTH 1080 0
DWIDTH 18 0
BBX 18 18 0 -3
BITMAP
000000
004000
004000
004000
004000
000000
000000
021800
020800
020800
061800
041000
043000
046000
038000
000000
000000
000000
ENDCHAR
STARTCHAR omegatonos
ENCODING 974
SWIDTH 1080 0
DWIDTH 18 0
BBX 18 18 0 -3
BITMAP
000000
004000
004000
004000
004000
000000
000000
020400
044200
084200
08C200
108200
108200
11C400
0E7800
000000
000000
000000
ENDCHAR
STARTCHAR afii10023
ENCODING 1025
SWIDTH 1080 0
DWIDTH 18 0
BBX 18 18 0 -3
BITMAP
000000
061800
061800
000000
1FFC00
040400
040400
042000
042000
07E000
042000
042000
040400
040400
1FFC00
000000
000000
000000
ENDCHAR
STARTCHAR afii10051
ENCODING 1026
SWIDTH 1080 0
DWIDTH 18 0
BBX 18 18 0 -3
BITMAP
000000
000000
3FFE00
208200
208200
008000
008000
00B800
00C400
008200
008200
008200
008200
008A00
03EC00
000000
000000
000000
ENDCHAR
STARTCHAR afii10052
ENCODING 1027
SWIDTH 1080 0
DWIDTH 18 0
BBX 18 18 0 -3
BITMAP
000000
006000
018000
000000
1FF800
080800
080400
080000
080000
080000
080000
080000
080000
080000
1E0000
000000
000000
000000
ENDCHAR
STARTCHAR afii10053
ENCODING 1028
SWIDTH 1080 0
DWIDTH 18 0
BBX 18 18 0 -3
BITMAP
000000
000000
01F000
061C00
0C0400
080400
180000
147000
138800
100000
180000
080400
0C0400
061C00
01F000
000000
000000
000000
ENDCHAR
STARTCHAR afii10054
ENCODING 1029
SWIDTH 1080 0
DWIDTH 18 0
BBX 18 18 0 -3
BITMAP
000000
000000
03E400
041400
080C00
080400
080400
060000
01E000
001800
080400
080400
0C0400
0A0800
09F000
000000
000000
000000
ENDCHAR
STARTCHAR afii10055
ENCODING 1030
SWIDTH 1080 0
DWIDTH 18 0
BBX 18 18 0 -3
BITMAP
000000
000000
03E000
008000
008000
008000
008000
008000
008000
008000
008000
008000
008000
008000
03E000
000000
000000
000000
ENDCHAR
STARTCHAR afii10056
ENCODING 1031
SWIDTH 1080 0
DWIDTH 18 0
BBX 18 18 0 -3
BITMAP
000000
036000
036000
000000
03E000
008000
008000
008000
008000
008000
008000
008000
008000
008000
03E000
000000
000000
000000
ENDCHAR
STARTCHAR afii10057
ENCODING 1032
SWIDTH 1080 0
DWIDTH 18 0
BBX 18 18 0 -3
BITMAP
000000
000000
007C00
001000
001000
001000
001000
001000
001000
001000
001000
001000
081000
0C2000
07C000
000000
000000
000000
ENDCHAR
STARTCHAR afii10058
ENCODING 1033
SWIDTH 1080 0
DWIDTH 18 0
BBX 18 18 0 -3
BITMAP
000000
000000
03F800
00A000
00A000
00A000
00A000
00BC00
00A200
00A100
00A100
00A100
20A100
312200
1E7C00
000000
000000
000000
ENDCHAR
STARTCHAR afii10059
ENCODING 1034
SWIDTH 1080 0
DWIDTH 18 0
BBX 18 18 0 -3
BITMAP
000000
000000
39C000
108000
108000
108000
108000
108000
1FF800
108400
108200
108200
108200
108400
39F800
000000
000000
000000
ENDCHAR
STARTCHAR afii10060
ENCODING 1035
SWIDTH 1080 0
DWIDTH 18 0
BBX 18 18 0 -3
BITMAP
000000
000000
3FFE00
208200
208200
008000
008000
00B800
00C400
008200
008200
008200
008200
008200
03E700
000000
000000
000000
ENDCHAR
STARTCHAR afii10061
ENCODING 1036
SWIDTH 1080 0
DWIDTH 18 0
BBX 18 18 0 -3
BITMAP
000000
00E000
038000
000000
3E3C00
086400
08C000
098000
090000
0F0000
098000
08E000
083000
081800
3E7E00
000000
000000
000000
ENDCHAR
STARTCHAR afii10062
ENCODING 1038
SWIDTH 1080 0
DWIDTH 18 0
BBX 18 18 0 -3
BITMAP
000000
022000
03E000
000000
3E3E00
080800
0C1800
063000
036000
014000
01C000
008000
018000
130000
1E0000
000000
000000
000000
ENDCHAR
STARTCHAR afii10145
ENCODING 1039
SWIDTH 1080 0
DWIDTH 18 0
BBX 18 18 0 -3
BITMAP
000000
000000
3E3E00
080800
080800
080800
080800
080800
080800
080800
080800
080800
080800
080800
3FFE00
008000
008000
000000
ENDCHAR
STARTCHAR afii10017
ENCODING 1040
SWIDTH 1080 0
DWIDTH 18 0
BBX 18 18 0 -3
BITMAP
000000
000000
008000
038000
01C000
014000
036000
022000
063000
041000
0FF800
080800
180C00
100400
7C1F00
000000
000000
000000
ENDCHAR
STARTCHAR afii10018
ENCODING 1041
SWIDTH 1080 0
DWIDTH 18 0
BBX 18 18 0 -3
BITMAP
000000
000000
1FFC00
040400
040400
040000
040000
040000
07F800
040400
040200
040200
040200
040400
1FF800
000000
000000
000000
ENDCHAR
STARTCHAR afii10019
ENCODING 1042
SWIDTH 1080 0
DWIDTH 18 0
BBX 18 18 0 -3
BITMAP
000000
000000
1FF000
040800
040400
040400
040400
040800
07F000
040C00
040200
040200
040200
040400
1FF800
000000
000000
000000
ENDCHAR
STARTCHAR afii10020
ENCODING 1043
SWIDTH 1080 0
DWIDTH 18 0
BBX 18 18 0 -3
BITMAP
000000
000000
1FF800
040800
040400
040000
040000
040000
040000
040000
040000
040000
040000
040000
1F0000
000000
000000
000000
ENDCHAR
STARTCHAR afii10021
ENCODING 1044
SWIDTH 1080 0
DWIDTH 18 0
BBX 18 18 0 -3
BITMAP
000000
000000
07FE00
010800
010800
010800
010800
010800
010800
010800
010800
020800
020800
040800
1FFE00
100200
100200
000000
ENDCHAR
STARTCHAR afii10022
ENCODING 1045
SWIDTH 1080 0
DWIDTH 18 0
BBX 18 18 0 -3
BITMAP
000000
000000
1FFC00
040400
040200
042000
042000
07E000
042000
042000
040000
040000
040200
040400
1FFC00
000000
000000
000000
ENDCHAR
STARTCHAR afii10024
ENCODING 1046
SWIDTH 1080 0
DWIDTH 18 0
BBX 18 18 0 -3
BITMAP
000000
000000
33E600
488900
088800
088800
088800
049000
0FF800
088800
188C00
108400
308600
208200
73E700
000000
000000
000000
ENDCHAR
STARTCHAR afii10025
ENCODING 1047
SWIDTH 1080 0
DWIDTH 18 0
BBX 18 18 0 -3
BITMAP
000000
000000
03E000
0E1800
080C00
000400
000400
000800
01F000
000800
000400
000400
080C00
0E1800
03E000
000000
000000
000000
ENDCHAR
STARTCHAR afii10026
ENCODING 1048
SWIDTH 1080 0
DWIDTH 18 0
BBX 18 18 0 -3
BITMAP
000000
000000
3E1F00
080400
080C00
081C00
083400
086400
08C400
098400
0B0400
0E0400
0C0400
080400
3E1F00
000000
000000
000000
ENDCHAR
STARTCHAR afii10027
ENCODING 1049
SWIDTH 1080 0
DWIDTH 18 0
BBX 18 18 0 -3
BITMAP
000000
033000
021000
01E000
3E1F00
080400
081C00
083400
086400
08C400
098400
0B0400
0E0400
080400
3E1F00
000000
000000
000000
ENDCHAR
STARTCHAR afii10028
ENCODING 1050
SWIDTH 1080 0
DWIDTH 18 0
BBX 18 18 0 -3
BITMAP
000000
000000
3E3C00
086400
084000
08C000
088000
098000
0F0000
098000
08C000
086000
083000
081800
3E3E00
000000
000000
000000
ENDCHAR
STARTCHAR afii10029
ENCODING 1051
SWIDTH 1080 0
DWIDTH 18 0
BBX 18 18 0 -3
BITMAP
000000
000000
07FE00
010800
010800
010800
010800
010800
010800
010800
030800
020800
060800
2C0800
383E00
000000
000000
000000
ENDCHAR
STARTCHAR afii10030
ENCODING 1052
SWIDTH 1080 0
DWIDTH 18 0
BBX 18 18 0 -3
BITMAP
000000
000000
3C1E00
0C1800
0E3800
0A2800
0A2800
0B6800
094800
194C00
11C400
108400
108400
100400
7C1F00
000000
000000
000000
ENDCHAR
STARTCHAR afii10031
ENCODING 1053
SWIDTH 1080 0
DWIDTH 18 0
BBX 18 18 0 -3
BITMAP
000000
000000
3E1F00
080400
080400
080400
080400
0FFC00
080400
080400
080400
080400
080400
080400
3E1F00
000000
000000
000000
ENDCHAR
STARTCHAR afii10032
ENCODING 1054
SWIDTH 1080 0
DWIDTH 18 0
BBX 18 18 0 -3
BITMAP
000000
000000
01E000
061800
0C0C00
080400
180600
100200
100200
100200
180600
080400
0C0C00
061800
01E000
000000
000000
000000
ENDCHAR
STARTCHAR afii10033
ENCODING 1055
SWIDTH 1080 0
DWIDTH 18 0
BBX 18 18 0 -3
BITMAP
000000
000000
3FFF00
080400
080400
080400
080400
080400
080400
080400
080400
080400
080400
080400
3E1F00
000000
000000
000000
ENDCHAR
STARTCHAR afii10034
ENCODING 1056
SWIDTH 1080 0
DWIDTH 18 0
BBX 18 18 0 -3
BITMAP
000000
000000
1FF000
040800
040400
040400
040400
040800
07F000
040000
040000
040000
040000
040000
1F0000
000000
000000
000000
ENDCHAR
STARTCHAR afii10035
ENCODING 1057
SWIDTH 1080 0
DWIDTH 18 0
BBX 18 18 0 -3
BITMAP
000000
000000
01F000
061C00
0C0400
080400
180000
100000
100000
100000
180000
080400
0C0400
061C00
01F000
000000
000000
000000
ENDCHAR
STARTCHAR afii10036
ENCODING 1058
SWIDTH 1080 0
DWIDTH 18 0
BBX 18 18 0 -3
BITMAP
000000
000000
3FFE00
208200
208200
008000
008000
008000
008000
008000
008000
008000
008000
008000
03E000
000000
000000
000000
ENDCHAR
STARTCHAR afii10037
ENCODING 1059
SWIDTH 1080 0
DWIDTH 18 0
BBX 18 18 0 -3
BITMAP
000000
000000
3E3E00
080800
0C1800
041000
063000
022000
036000
014000
01C000
008000
018000
130000
1E0000
000000
000000
000000
ENDCHAR
STARTCHAR afii10038
ENCODING 1060
SWIDTH 1080 0
DWIDTH 18 0
BBX 18 18 0 -3
BITMAP
000000
000000
03E000
008000
07F000
188C00
308600
208200
208200
208200
308600
188C00
07F000
008000
03E000
000000
000000
000000
ENDCHAR
STARTCHAR afii10039
ENCODING 1061
SWIDTH 1080 0
DWIDTH 18 0
BBX 18 18 0 -3
BITMAP
000000
000000
3E3E00
080800
0C1800
063000
036000
01C000
008000
01C000
036000
063000
0C1800
080800
3C3E00
000000
000000
000000
ENDCHAR
STARTCHAR afii10040
ENCODING 1062
SWIDTH 1080 0
DWIDTH 18 0
BBX 18 18 0 -3
BITMAP
000000
000000
3E3E00
080800
080800
080800
080800
080800
080800
080800
080800
080800
080800
080800
3FFF00
000100
000100
000000
ENDCHAR
STARTCHAR afii10041
ENCODING 1063
SWIDTH 1080 0
DWIDTH 18 0
BBX 18 18 0 -3
BITMAP
000000
000000
3E3E00
080800
080800
080800
080800
080800
0C1800
07E800
000800
000800
000800
000800
003E00
000000
000000
000000
ENDCHAR
STARTCHAR afii10042
ENCODING 1064
SWIDTH 1080 0
DWIDTH 18 0
BBX 18 18 0 -3
BITMAP
000000
000000
7BEF00
108400
108400
108400
108400
108400
108400
108400
108400
108400
108400
108400
7FFF00
000000
000000
000000
ENDCHAR
STARTCHAR afii10043
ENCODING 1065
SWIDTH 1080 0
DWIDTH 18 0
BBX 18 18 0 -3
BITMAP
000000
000000
7BEF00
108400
108400
108400
108400
108400
108400
108400
108400
108400
108400
108400
7FFF80
000080
000080
000000
ENDCHAR
STARTCHAR afii10044
ENCODING 1066
SWIDTH 1080 0
DWIDTH 18 0
BBX 18 18 0 -3
BITMAP
000000
000000
3FC000
210000
210000
010000
010000
01FC00
010200
010100
010100
010100
010100
010200
07FC00
000000
000000
000000
ENDCHAR
STARTCHAR afii10045
ENCODING 1067
SWIDTH 1080 0
DWIDTH 18 0
BBX 18 18 0 -3
BITMAP
000000
000000
7C1F00
100400
100400
100400
100400
1F8400
104400
102400
102400
102400
102400
104400
7F9F00
000000
000000
000000
ENDCHAR
STARTCHAR afii10046
ENCODING 1068
SWIDTH 1080 0
DWIDTH 18 0
BBX 18 18 0 -3
BITMAP
000000
000000
1F0000
040000
040000
040000
040000
07F000
040800
040400
040400
040400
040400
040800
1FF000
000000
000000
000000
ENDCHAR
STARTCHAR afii10047
ENCODING 1069
SWIDTH 1080 0
DWIDTH 18 0
BBX 18 18 0 -3
BITMAP
000000
000000
07C000
1C3000
101800
100800
000C00
071400
08E400
000400
000C00
100800
101800
1C3000
07C000
000000
000000
000000
ENDCHAR
STARTCHAR afii10048
ENCODING 1070
SWIDTH 1080 0
DWIDTH 18 0
BBX 18 18 0 -3
BITMAP
000000
000000
7C3800
10C600
108200
118300
110100
110100
1F0100
110100
110100
118300
108200
10C600
7C3800
000000
000000
000000
ENDCHAR
STARTCHAR afii10049
ENCODING 1071
SWIDTH 1080 0
DWIDTH 18 0
BBX 18 18 0 -3
BITMAP
000000
000000
07FE00
080800
100800
100800
100800
080800
07F800
010800
030800
020800
060800
0C0800
383E00
000000
000000
000000
ENDCHAR
STARTCHAR afii10065
ENCODING 1072
SWIDTH 1080 0
DWIDTH 18 0
BBX 18 18 0 -3
BITMAP
000000
000000
000000
000000
000000
000000
000000
07E000
001000
001000
07F000
081000
081000
083000
07D800
000000
000000
000000
ENDCHAR
STARTCHAR afii10066
ENCODING 1073
SWIDTH 1080 0
DWIDTH 18 0
BBX 18 18 0 -3
BITMAP
000000
000000
000800
01F000
030000
060000
040000
05E000
061000
040800
040800
040800
040800
021000
01E000
000000
000000
000000
ENDCHAR
STARTCHAR afii10067
ENCODING 1074
SWIDTH 1080 0
DWIDTH 18 0
BBX 18 18 0 -3
BITMAP
000000
000000
000000
000000
000000
000000
000000
07F000
020800
020800
03F000
020800
020800
020800
07F000
000000
000000
000000
ENDCHAR
STARTCHAR afii10068
ENCODING 1075
SWIDTH 1080 0
DWIDTH 18 0
BBX 18 18 0 -3
BITMAP
000000
000000
000000
000000
000000
000000
000000
07F800
020800
020800
020000
020000
020000
020000
070000
000000
000000
000000
ENDCHAR
STARTCHAR afii10069
ENCODING 1076
SWIDTH 1080 0
DWIDTH 18 0
BBX 18 18 0 -3
BITMAP
000000
000000
000000
000000
000000
000000
000000
03F800
011000
011000
011000
011000
031000
021000
0FFC00
080400
080400
000000
ENDCHAR
STARTCHAR afii10070
ENCODING 1077
SWIDTH 1080 0
DWIDTH 18 0
BBX 18 18 0 -3
BITMAP
000000
000000
000000
000000
000000
000000
000000
01E000
021000
040800
07F800
040000
040000
020800
01F000
000000
000000
000000
ENDCHAR
STARTCHAR afii10072
ENCODING 1078
SWIDTH 1080 0
DWIDTH 18 0
BBX 18 18 0 -3
BITMAP
000000
000000
000000
000000
000000
000000
000000
19CC00
088800
049000
03E000
06B000
049000
0C9800
19CC00
000000
000000
000000
ENDCHAR
STARTCHAR afii10073
ENCODING 1079
SWIDTH 1080 0
DWIDTH 18 0
BBX 18 18 0 -3
BITMAP
000000
000000
000000
000000
000000
000000
000000
07E000
041000
001000
01E000
001000
001000
041000
07E000
000000
000000
000000
ENDCHAR
STARTCHAR afii10074
ENCODING 1080
SWIDTH 1080 0
DWIDTH 18 0
BBX 18 18 0 -3
BITMAP
000000
000000
000000
000000
000000
000000
000000
0E1C00
040800
041800
046800
058800
060800
040800
0E1C00
000000
000000
000000
ENDCHAR
STARTCHAR afii10075
ENCODING 1081
SWIDTH 1080 0
DWIDTH 18 0
BBX 18 18 0 -3
BITMAP
000000
000000
000000
033000
021000
01E000
000000
0E1C00
040800
041800
046800
058800
060800
040800
0E1C00
000000
000000
000000
ENDCHAR
STARTCHAR afii10076
ENCODING 1082
SWIDTH 1080 0
DWIDTH 18 0
BBX 18 18 0 -3
BITMAP
000000
000000
000000
000000
000000
000000
000000
0E7000
049000
050000
070000
048000
044000
042000
0E7800
000000
000000
000000
ENDCHAR
STARTCHAR afii10077
ENCODING 1083
SWIDTH 1080 0
DWIDTH 18 0
BBX 18 18 0 -3
BITMAP
000000
000000
000000
000000
000000
000000
000000
03F800
011000
011000
011000
011000
011000
0B1000
0E3800
000000
000000
000000
ENDCHAR
STARTCHAR afii10078
ENCODING 1084
SWIDTH 1080 0
DWIDTH 18 0
BBX 18 18 0 -3
BITMAP
000000
000000
000000
000000
000000
000000
000000
1C1C00
0A2800
0A2800
094800
094800
088800
088800
1C1C00
000000
000000
000000
ENDCHAR
STARTCHAR afii10079
ENCODING 1085
SWIDTH 1080 0
DWIDTH 18 0
BBX 18 18 0 -3
BITMAP
000000
000000
000000
000000
000000
000000
000000
0E1C00
040800
040800
07F800
040800
040800
040800
0E1C00
000000
000000
000000
ENDCHAR
STARTCHAR afii10080
ENCODING 1086
SWIDTH 1080 0
DWIDTH 18 0
BBX 18 18 0 -3
BITMAP
000000
000000
000000
000000
000000
000000
000000
01E000
021000
040800
040800
040800
040800
021000
01E000
000000
000000
000000
ENDCHAR
STARTCHAR afii10081
ENCODING 1087
SWIDTH 1080 0
DWIDTH 18 0
BBX 18 18 0 -3
BITMAP
000000
000000
000000
000000
000000
000000
000000
0FF800
041000
041000
041000
041000
041000
041000
0E3800
000000
000000
000000
ENDCHAR
STARTCHAR afii10082
ENCODING 1088
SWIDTH 1080 0
DWIDTH 18 0
BBX 18 18 0 -3
BITMAP
000000
000000
000000
000000
000000
000000
000000
0DE000
061000
040800
040800
040800
061000
05E000
040000
040000
0E0000
000000
ENDCHAR
STARTCHAR afii10083
ENCODING 1089
SWIDTH 1080 0
DWIDTH 18 0
BBX 18 18 0 -3
BITMAP
000000
000000
000000
000000
000000
000000
000000
01F000
020800
040000
040000
040000
040000
020800
01F000
000000
000000
000000
ENDCHAR
STARTCHAR afii10084
ENCODING 1090
SWIDTH 1080 0
DWIDTH 18 0
BBX 18 18 0 -3
BITMAP
000000
000000
000000
000000
000000
000000
000000
0FF800
088800
008000
008000
008000
008000
008000
01C000
000000
000000
000000
ENDCHAR
STARTCHAR afii10085
ENCODING 1091
SWIDTH 1080 0
DWIDTH 18 0
BBX 18 18 0 -3
BITMAP
000000
000000
000000
000000
000000
000000
000000
0E1C00
040800
061800
021000
033000
012000
016000
00C000
098000
0F0000
000000
ENDCHAR
STARTCHAR afii10086
ENCODING 1092
SWIDTH 1080 0
DWIDTH 18 0
BBX 18 18 0 -3
BITMAP
000000
000000
018000
008000
008000
008000
008000
06B000
09C800
108400
108400
108400
108400
09C800
06B000
008000
01C000
000000
ENDCHAR
STARTCHAR afii10087
ENCODING 1093
SWIDTH 1080 0
DWIDTH 18 0
BBX 18 18 0 -3
BITMAP
000000
000000
000000
000000
000000
000000
000000
073800
021000
012000
00C000
00C000
012000
021000
0F3C00
000000
000000
000000
ENDCHAR
STARTCHAR afii10088
ENCODING 1094
SWIDTH 1080 0
DWIDTH 18 0
BBX 18 18 0 -3
BITMAP
000000
000000
000000
000000
000000
000000
000000
0E3800
041000
041000
041000
041000
041000
041000
0FFC00
000400
000400
000000
ENDCHAR
STARTCHAR afii10089
ENCODING 1095
SWIDTH 1080 0
DWIDTH 18 0
BBX 18 18 0 -3
BITMAP
000000
000000
000000
000000
000000
000000
000000
0E1C00
040800
040800
040800
03F800
000800
000800
001C00
000000
000000
000000
ENDCHAR
STARTCHAR afii10090
ENCODING 1096
SWIDTH 1080 0
DWIDTH 18 0
BBX 18 18 0 -3
BITMAP
000000
000000
000000
000000
000000
000000
000000
39CE00
108400
108400
108400
108400
108400
108400
3FFE00
000000
000000
000000
ENDCHAR
STARTCHAR afii10091
ENCODING 1097
SWIDTH 1080 0
DWIDTH 18 0
BBX 18 18 0 -3
BITMAP
000000
000000
000000
000000
000000
000000
000000
39CE00
108400
108400
108400
108400
108400
108400
3FFF00
000100
000100
000000
ENDCHAR
STARTCHAR afii10092
ENCODING 1098
SWIDTH 1080 0
DWIDTH 18 0
BBX 18 18 0 -3
BITMAP
000000
000000
000000
000000
000000
000000
000000
1FC000
108000
108000
00FC00
008200
008200
008200
01FC00
000000
000000
000000
ENDCHAR
STARTCHAR afii10093
ENCODING 1099
SWIDTH 1080 0
DWIDTH 18 0
BBX 18 18 0 -3
BITMAP
000000
000000
000000
000000
000000
000000
000000
1C0E00
080400
080400
0FC400
082400
082400
082400
1FCE00
000000
000000
000000
ENDCHAR
STARTCHAR afii10094
ENCODING 1100
SWIDTH 1080 0
DWIDTH 18 0
BBX 18 18 0 -3
BITMAP
000000
000000
000000
000000
000000
000000
000000
070000
020000
020000
03F000
020800
020800
020800
07F000
000000
000000
000000
ENDCHAR
STARTCHAR afii10095
ENCODING 1101
SWIDTH 1080 0
DWIDTH 18 0
BBX 18 18 0 -3
BITMAP
000000
000000
000000
000000
000000
000000
000000
03E000
041000
000800
019800
026800
000800
041000
03E000
000000
000000
000000
ENDCHAR
STARTCHAR afii10096
ENCODING 1102
SWIDTH 1080 0
DWIDTH 18 0
BBX 18 18 0 -3
BITMAP
000000
000000
000000
000000
000000
000000
000000
1C7000
088800
090400
0F0400
090400
090400
088800
1C7000
000000
000000
000000
ENDCHAR
STARTCHAR afii10097
ENCODING 1103
SWIDTH 1080 0
DWIDTH 18 0
BBX 18 18 0 -3
BITMAP
000000
000000
000000
000000
000000
000000
000000
03F800
041000
041000
041000
03F000
011000
021000
0E3800
000000
000000
000000
ENDCHAR
STARTCHAR afii10071
ENCODING 1105
SWIDTH 1080 0
DWIDTH 18 0
BBX 18 18 0 -3
BITMAP
000000
000000
000000
000000
033000
033000
000000
01E000
021000
040800
07F800
040000
040000
020800
01F000
000000
000000
000000
ENDCHAR
STARTCHAR afii10099
ENCODING 1106
SWIDTH 1080 0
DWIDTH 18 0
BBX 18 18 0 -3
BITMAP
000000
000000
0E0000
020000
020000
0F8000
020000
02F000
031800
020800
020800
020800
020800
022800
0FB000
000000
000000
000000
ENDCHAR
STARTCHAR afii10100
ENCODING 1107
SWIDTH 1080 0
DWIDTH 18 0
BBX 18 18 0 -3
BITMAP
000000
000000
002000
004000
008000
000000
000000
07F800
020800
020800
020000
020000
020000
020000
070000
000000
000000
000000
ENDCHAR
STARTCHAR afii10101
ENCODING 1108
SWIDTH 1080 0
DWIDTH 18 0
BBX 18 18 0 -3
BITMAP
000000
000000
000000
000000
000000
000000
000000
01F000
020800
040000
066000
059000
040000
020800
01F000
000000
000000
000000
ENDCHAR
STARTCHAR afii10102
ENCODING 1109
SWIDTH 1080 0
DWIDTH 18 0
BBX 18 18 0 -3
BITMAP
000000
000000
000000
000000
000000
000000
000000
03E800
041800
040800
03C000
003000
040800
060800
05F000
000000
000000
000000
ENDCHAR
STARTCHAR afii10103
ENCODING 1110
SWIDTH 1080 0
DWIDTH 18 0
BBX 18 18 0 -3
BITMAP
000000
000000
000000
018000
018000
000000
000000
038000
008000
008000
008000
008000
008000
008000
03E000
000000
000000
000000
ENDCHAR
STARTCHAR afii10104
ENCODING 1111
SWIDTH 1080 0
DWIDTH 18 0
BBX 18 18 0 -3
BITMAP
000000
000000
000000
036000
036000
000000
000000
038000
008000
008000
008000
008000
008000
008000
03E000
000000
000000
000000
ENDCHAR
STARTCHAR afii10105
ENCODING 1112
SWIDTH 1080 0
DWIDTH 18 0
BBX 18 18 0 -3
BITMAP
000000
000000
000000
003000
003000
000000
000000
007000
001000
001000
001000
001000
001000
001000
001000
042000
07C000
000000
ENDCHAR
STARTCHAR afii10106
ENCODING 1113
SWIDTH 1080 0
DWIDTH 18 0
BBX 18 18 0 -3
BITMAP
000000
000000
000000
000000
000000
07E000
014000
014000
014000
017800
014400
014200
114200
134400
0E7800
000000
000000
000000
ENDCHAR
STARTCHAR afii10107
ENCODING 1114
SWIDTH 1080 0
DWIDTH 18 0
BBX 18 18 0 -3
BITMAP
000000
000000
000000
000000
000000
1DC000
088000
088000
088000
0FF000
088800
088400
088400
088800
1DF000
000000
000000
000000
ENDCHAR
STARTCHAR afii10108
ENCODING 1115
SWIDTH 1080 0
DWIDTH 18 0
BBX 18 18 0 -3
BITMAP
000000
000000
1C0000
040000
040000
1F0000
040000
05E000
063000
041000
041000
041000
041000
041000
1F3C00
000000
000000
000000
ENDCHAR
STARTCHAR afii10109
ENCODING 1116
SWIDTH 1080 0
DWIDTH 18 0
BBX 18 18 0 -3
BITMAP
000000
000000
004000
008000
010000
000000
000000
0E7000
049000
050000
070000
048000
044000
042000
0E7800
000000
000000
000000
ENDCHAR
STARTCHAR afii10110
ENCODING 1118
SWIDTH 1080 0
DWIDTH 18 0
BBX 18 18 0 -3
BITMAP
000000
000000
000000
012000
01E000
000000
000000
0E1C00
040800
061800
021000
033000
012000
016000
00C000
098000
0F0000
000000
ENDCHAR
STARTCHAR afii10193
ENCODING 1119
SWIDTH 1080 0
DWIDTH 18 0
BBX 18 18 0 -3
BITMAP
000000
000000
000000
000000
000000
000000
000000
0E3800
041000
041000
041000
041000
041000
041000
0FF800
008000
008000
000000
ENDCHAR
STARTCHAR afii10050
ENCODING 1168
SWIDTH 1080 0
DWIDTH 18 0
BBX 18 18 0 -3
BITMAP
000400
000800
1FF800
040000
040000
040000
040000
040000
040000
040000
040000
040000
040000
040000
1F0000
000000
000000
000000
ENDCHAR
STARTCHAR afii10098
ENCODING 1169
SWIDTH 1080 0
DWIDTH 18 0
BBX 18 18 0 -3
BITMAP
000000
000000
000000
000000
000000
000800
000800
07F800
020000
020000
020000
020000
020000
020000
070000
000000
000000
000000
ENDCHAR
STARTCHAR uni2010
ENCODING 8208
SWIDTH 1080 0
DWIDTH 18 0
BBX 18 18 0 -3
BITMAP
000000
000000
000000
000000
000000
000000
000000
000000
03F000
000000
000000
000000
000000
000000
000000
000000
000000
000000
ENDCHAR
STARTCHAR uni2011
ENCODING 8209
SWIDTH 1080 0
DWIDTH 18 0
BBX 18 18 0 -3
BITMAP
000000
000000
000000
000000
000000
000000
000000
000000
03F000
000000
000000
000000
000000
000000
000000
000000
000000
000000
ENDCHAR
STARTCHAR figuredash
ENCODING 8210
SWIDTH 1080 0
DWIDTH 18 0
BBX 18 18 0 -3
BITMAP
000000
000000
000000
000000
000000
000000
000000
000000
0FFC00
000000
000000
000000
000000
000000
000000
000000
000000
000000
ENDCHAR
STARTCHAR endash
ENCODING 8211
SWIDTH 1080 0
DWIDTH 18 0
BBX 18 18 0 -3
BITMAP
000000
000000
000000
000000
000000
000000
000000
000000
1FFE00
000000
000000
000000
000000
000000
000000
000000
000000
000000
ENDCHAR
STARTCHAR emdash
ENCODING 8212
SWIDTH 1080 0
DWIDTH 18 0
BBX 18 18 0 -3
BITMAP
000000
000000
000000
000000
000000
000000
000000
000000
7FFF80
000000
000000
000000
000000
000000
000000
000000
000000
000000
ENDCHAR
STARTCHAR afii00208
ENCODING 8213
SWIDTH 1080 0
DWIDTH 18 0
BBX 18 18 0 -3
BITMAP
000000
000000
000000
000000
000000
000000
000000
000000
7FFF80
000000
000000
000000
000000
000000
000000
000000
000000
000000
ENDCHAR
STARTCHAR uni2016
ENCODING 8214
SWIDTH 1080 0
DWIDTH 18 0
BBX 18 18 0 -3
BITMAP
000000
022000
022000
022000
022000
022000
022000
022000
022000
022000
022000
022000
022000
022000
022000
022000
022000
000000
ENDCHAR
STARTCHAR underscoredbl
ENCODING 8215
SWIDTH 1080 0
DWIDTH 18 0
BBX 18 18 0 -3
BITMAP
000000
000000
000000
000000
000000
000000
000000
000000
000000
000000
000000
000000
000000
000000
000000
FFFFC0
000000
FFFFC0
ENDCHAR
STARTCHAR quoteleft
ENCODING 8216
SWIDTH 1080 0
DWIDTH 18 0
BBX 18 18 0 -3
BITMAP
000000
004000
008000
00C000
00C000
000000
000000
000000
000000
000000
000000
000000
000000
000000
000000
000000
000000
000000
ENDCHAR
STARTCHAR quoteright
ENCODING 8217
SWIDTH 1080 0
DWIDTH 18 0
BBX 18 18 0 -3
BITMAP
000000
00C000
00C000
004000
008000
000000
000000
000000
000000
000000
000000
000000
000000
000000
000000
000000
000000
000000
ENDCHAR
STARTCHAR quotesinglbase
ENCODING 8218
SWIDTH 1080 0
DWIDTH 18 0
BBX 18 18 0 -3
BITMAP
000000
000000
000000
000000
000000
000000
000000
000000
000000
000000
000000
000000
000000
00C000
00C000
004000
008000
000000
ENDCHAR
STARTCHAR quotereversed
ENCODING 8219
SWIDTH 1080 0
DWIDTH 18 0
BBX 18 18 0 -3
BITMAP
000000
00C000
00C000
008000
004000
000000
000000
000000
000000
000000
000000
000000
000000
000000
000000
000000
000000
000000
ENDCHAR
STARTCHAR quotedblleft
ENCODING 8220
SWIDTH 1080 0
DWIDTH 18 0
BBX 18 18 0 -3
BITMAP
000000
012000
024000
036000
036000
000000
000000
000000
000000
000000
000000
000000
000000
000000
000000
000000
000000
000000
ENDCHAR
STARTCHAR quotedblright
ENCODING 8221
SWIDTH 1080 0
DWIDTH 18 0
BBX 18 18 0 -3
BITMAP
000000
036000
036000
012000
024000
000000
000000
000000
000000
000000
000000
000000
000000
000000
000000
000000
000000
000000
ENDCHAR
STARTCHAR quotedblbase
ENCODING 8222
SWIDTH 1080 0
DWIDTH 18 0
BBX 18 18 0 -3
BITMAP
000000
000000
000000
000000
000000
000000
000000
000000
000000
000000
000000
000000
000000
036000
036000
012000
024000
000000
ENDCHAR
STARTCHAR uni201F
ENCODING 8223
SWIDTH 1080 0
DWIDTH 18 0
BBX 18 18 0 -3
BITMAP
000000
036000
036000
024000
012000
000000
000000
000000
000000
000000
000000
000000
000000
000000
000000
000000
000000
000000
ENDCHAR
STARTCHAR dagger
ENCODING 8224
SWIDTH 1080 0
DWIDTH 18 0
BBX 18 18 0 -3
BITMAP
000000
008000
01C000
049000
0FF800
049000
008000
03E000
01C000
01C000
01C000
01C000
01C000
008000
008000
008000
008000
000000
ENDCHAR
STARTCHAR daggerdbl
ENCODING 8225
SWIDTH 1080 0
DWIDTH 18 0
BBX 18 18 0 -3
BITMAP
000000
008000
01C000
049000
0FF800
049000
01C000
01C000
008000
008000
01C000
01C000
049000
0FF800
049000
01C000
008000
000000
ENDCHAR
STARTCHAR bullet
ENCODING 8226
SWIDTH 1080 0
DWIDTH 18 0
BBX 18 18 0 -3
BITMAP
000000
000000
000000
000000
000000
01C000
03E000
07F000
07F000
07F000
03E000
01C000
000000
000000
000000
000000
000000
000000
ENDCHAR
STARTCHAR twodotenleader
ENCODING 8229
SWIDTH 1080 0
DWIDTH 18 0
BBX 18 18 0 -3
BITMAP
000000
000000
000000
000000
000000
000000
000000
000000
0C0C00
0C0C00
000000
000000
000000
000000
000000
000000
000000
000000
ENDCHAR
STARTCHAR ellipsis
ENCODING 8230
SWIDTH 1080 0
DWIDTH 18 0
BBX 18 18 0 -3
BITMAP
000000
000000
000000
000000
000000
000000
000000
000000
30C300
30C300
000000
000000
000000
000000
000000
000000
000000
000000
ENDCHAR
STARTCHAR perthousand
ENCODING 8240
SWIDTH 1080 0
DWIDTH 18 0
BBX 18 18 0 -3
BITMAP
000000
000000
182000
242000
244000
248000
248000
250000
1A0000
02C600
052900
092900
092900
112900
212900
20C600
000000
000000
ENDCHAR
STARTCHAR minute
ENCODING 8242
SWIDTH 1080 0
DWIDTH 18 0
BBX 18 18 0 -3
BITMAP
000000
000000
020000
060000
0C0000
080000
000000
000000
000000
000000
000000
000000
000000
000000
000000
000000
000000
000000
ENDCHAR
STARTCHAR second
ENCODING 8243
SWIDTH 1080 0
DWIDTH 18 0
BBX 18 18 0 -3
BITMAP
000000
000000
044000
0CC000
198000
110000
000000
000000
000000
000000
000000
000000
000000
000000
000000
000000
000000
000000
ENDCHAR
STARTCHAR uni2034
ENCODING 8244
SWIDTH 1080 0
DWIDTH 18 0
BBX 18 18 0 -3
BITMAP
000000
000000
044400
0CCC00
199800
111000
000000
000000
000000
000000
000000
000000
000000
000000
000000
000000
000000
000000
ENDCHAR
STARTCHAR guilsinglleft
ENCODING 8249
SWIDTH 1080 0
DWIDTH 18 0
BBX 18 18 0 -3
BITMAP
000000
000000
000000
000000
000000
000000
002000
004000
008000
010000
010000
008000
004000
002000
000000
000000
000000
000000
ENDCHAR
STARTCHAR guilsinglright
ENCODING 8250
SWIDTH 1080 0
DWIDTH 18 0
BBX 18 18 0 -3
BITMAP
000000
000000
000000
000000
000000
000000
010000
008000
004000
002000
002000
004000
008000
010000
000000
000000
000000
000000
ENDCHAR
STARTCHAR uni203B
ENCODING 8251
SWIDTH 1080 0
DWIDTH 18 0
BBX 18 18 0 -3
BITMAP
000000
000000
000000
10C200
08C400
040800
021000
012000
18C600
18C600
012000
021000
040800
08C400
10C200
000000
000000
000000
ENDCHAR
STARTCHAR exclamdbl
ENCODING 8252
SWIDTH 1080 0
DWIDTH 18 0
BBX 18 18 0 -3
BITMAP
000000
000000
061800
061800
061800
061800
061800
041000
041000
041000
041000
000000
000000
061800
061800
000000
000000
000000
ENDCHAR
STARTCHAR foursuperior
ENCODING 8308
SWIDTH 1080 0
DWIDTH 18 0
BBX 18 18 0 -3
BITMAP
000000
004000
00C000
014000
03F000
004000
00E000
000000
000000
000000
000000
000000
000000
000000
000000
000000
000000
000000
ENDCHAR
STARTCHAR nsuperior
ENCODING 8319
SWIDTH 1080 0
DWIDTH 18 0
BBX 18 18 0 -3
BITMAP
000000
000000
016000
03A000
012000
012000
037000
000000
000000
000000
000000
000000
000000
000000
000000
000000
000000
000000
ENDCHAR
STARTCHAR oneinferior
ENCODING 8321
SWIDTH 1080 0
DWIDTH 18 0
BBX 18 18 0 -3
BITMAP
000000
000000
000000
000000
000000
000000
000000
000000
000000
000000
000000
008000
018000
008000
008000
008000
01C000
000000
ENDCHAR
STARTCHAR twoinferior
ENCODING 8322
SWIDTH 1080 0
DWIDTH 18 0
BBX 18 18 0 -3
BITMAP
000000
000000
000000
000000
000000
000000
000000
000000
000000
000000
01C000
022000
004000
018000
022000
03E000
000000
000000
ENDCHAR
STARTCHAR threeinferior
ENCODING 8323
SWIDTH 1080 0
DWIDTH 18 0
BBX 18 18 0 -3
BITMAP
000000
000000
000000
000000
000000
000000
000000
000000
000000
000000
01C000
022000
00C000
002000
022000
01C000
000000
000000
ENDCHAR
STARTCHAR fourinferior
ENCODING 8324
SWIDTH 1080 0
DWIDTH 18 0
BBX 18 18 0 -3
BITMAP
000000
000000
000000
000000
000000
000000
000000
000000
000000
000000
004000
00C000
014000
03F000
004000
00E000
000000
000000
ENDCHAR
STARTCHAR peseta
ENCODING 8359
SWIDTH 1080 0
DWIDTH 18 0
BBX 18 18 0 -3
BITMAP
000000
000000
1FF000
040800
040400
1FFF00
040400
040800
07F000
040000
040000
040000
040000
040000
1F0000
000000
000000
000000
ENDCHAR
STARTCHAR Euro
ENCODING 8364
SWIDTH 1080 0
DWIDTH 18 0
BBX 18 18 0 -3
BITMAP
000000
000000
00F000
030C00
060600
040200
3FF000
080000
080000
080000
3FE000
040200
060600
030C00
00F000
000000
000000
000000
ENDCHAR
STARTCHAR uni2103
ENCODING 8451
SWIDTH 1080 0
DWIDTH 18 0
BBX 18 18 0 -3
BITMAP
000000
000000
307900
498500
4B0300
320100
060100
040000
040000
040000
060000
020100
030300
018600
007800
000000
000000
000000
ENDCHAR
STARTCHAR uni2109
ENCODING 8457
SWIDTH 1080 0
DWIDTH 18 0
BBX 18 18 0 -3
BITMAP
000000
000000
300000
4FFE00
318100
018000
018800
018800
01FC00
018400
018000
018000
018000
018000
07E000
000000
000000
000000
ENDCHAR
STARTCHAR afii61289
ENCODING 8467
SWIDTH 1080 0
DWIDTH 18 0
BBX 18 18 0 -3
BITMAP
000000
000000
003000
004800
008800
008800
009000
011000
012000
012000
014200
018200
010400
030800
1CF000
000000
000000
000000
ENDCHAR
STARTCHAR afii61352
ENCODING 8470
SWIDTH 1080 0
DWIDTH 18 0
BBX 18 18 0 -3
BITMAP
000000
000000
208C00
309200
30A100
28A100
28A100
249200
248C00
248000
228000
228000
218000
218000
208000
000000
000000
000000
ENDCHAR
STARTCHAR uni2121
ENCODING 8481
SWIDTH 1080 0
DWIDTH 18 0
BBX 18 18 0 -3
BITMAP
000000
000000
7F0100
490300
080100
080100
080100
08F100
090900
090900
09F900
090100
090100
090900
1CF380
000000
000000
000000
ENDCHAR
STARTCHAR trademark
ENCODING 8482
SWIDTH 1080 0
DWIDTH 18 0
BBX 18 18 0 -3
BITMAP
000000
1D2000
09E000
092000
092000
000000
000000
000000
000000
000000
000000
000000
000000
000000
000000
000000
000000
000000
ENDCHAR
STARTCHAR Omega
ENCODING 8486
SWIDTH 1080 0
DWIDTH 18 0
BBX 18 18 0 -3
BITMAP
000000
000000
01E000
061800
0C0C00
0C0C00
0C0C00
0C0C00
0C0C00
0C0C00
061800
033000
212100
112200
1E1E00
000000
000000
000000
ENDCHAR
STARTCHAR uni212B
ENCODING 8491
SWIDTH 1080 0
DWIDTH 18 0
BBX 18 18 0 -3
BITMAP
000000
00C000
012000
012000
00C000
000000
008000
014000
014000
022000
021000
07F800
040800
080400
3E1F00
000000
000000
000000
ENDCHAR
STARTCHAR onethird
ENCODING 8531
SWIDTH 1080 0
DWIDTH 18 0
BBX 18 18 0 -3
BITMAP
000000
000000
080100
180200
080400
080800
081000
082000
084E00
1C9100
010100
020600
040100
080100
101100
200E00
000000
000000
ENDCHAR
STARTCHAR twothirds
ENCODING 8532
SWIDTH 1080 0
DWIDTH 18 0
BBX 18 18 0 -3
BITMAP
000000
000000
1C0100
220200
020400
0C0800
101000
202000
224E00
3E9100
010100
020600
040100
080100
101100
200E00
000000
000000
ENDCHAR
STARTCHAR oneeighth
ENCODING 8539
SWIDTH 1080 0
DWIDTH 18 0
BBX 18 18 0 -3
BITMAP
000000
000000
080100
180200
080400
080800
081000
082000
085E00
1CA100
012100
021E00
042100
082100
102100
201E00
000000
000000
ENDCHAR
STARTCHAR threeeighths
ENCODING 8540
SWIDTH 1080 0
DWIDTH 18 0
BBX 18 18 0 -3
BITMAP
000000
000000
1C0100
220200
020400
0C0800
021000
022000
225E00
1CA100
012100
021E00
042100
082100
102100
201E00
000000
000000
ENDCHAR
STARTCHAR fiveeighths
ENCODING 8541
SWIDTH 1080 0
DWIDTH 18 0
BBX 18 18 0 -3
BITMAP
000000
000000
320100
2C0200
200400
2C0800
321000
022000
225E00
1CA100
012100
021E00
042100
082100
102100
201E00
000000
000000
ENDCHAR
STARTCHAR seveneighths
ENCODING 8542
SWIDTH 1080 0
DWIDTH 18 0
BBX 18 18 0 -3
BITMAP
000000
000000
1F0100
210200
020400
020800
041000
042000
085E00
08A100
012100
021E00
042100
082100
102100
201E00
000000
000000
ENDCHAR
STARTCHAR uni2160
ENCODING 8544
SWIDTH 1080 0
DWIDTH 18 0
BBX 18 18 0 -3
BITMAP
000000
000000
01C000
008000
008000
008000
008000
008000
008000
008000
008000
008000
008000
008000
008000
01C000
000000
000000
ENDCHAR
STARTCHAR uni2161
ENCODING 8545
SWIDTH 1080 0
DWIDTH 18 0
BBX 18 18 0 -3
BITMAP
000000
000000
077000
022000
022000
022000
022000
022000
022000
022000
022000
022000
022000
022000
022000
077000
000000
000000
ENDCHAR
STARTCHAR uni2162
ENCODING 8546
SWIDTH 1080 0
DWIDTH 18 0
BBX 18 18 0 -3
BITMAP
000000
000000
1DDC00
088800
088800
088800
088800
088800
088800
088800
088800
088800
088800
088800
088800
1DDC00
000000
000000
ENDCHAR
STARTCHAR uni2163
ENCODING 8547
SWIDTH 1080 0
DWIDTH 18 0
BBX 18 18 0 -3
BITMAP
000000
000000
3B8E00
110400
110400
110400
108800
108800
108800
108800
105000
105000
105000
105000
102000
382000
000000
000000
ENDCHAR
STARTCHAR uni2164
ENCODING 8548
SWIDTH 1080 0
DWIDTH 18 0
BBX 18 18 0 -3
BITMAP
000000
000000
380E00
100400
080800
080800
041000
041000
041000
022000
022000
022000
014000
014000
008000
008000
000000
000000
ENDCHAR
STARTCHAR uni2165
ENCODING 8549
SWIDTH 1080 0
DWIDTH 18 0
BBX 18 18 0 -3
BITMAP
000000
000000
38EE00
104400
104400
104400
088400
088400
088400
088400
050400
050400
050400
050400
020400
020E00
000000
000000
ENDCHAR
STARTCHAR uni2166
ENCODING 8550
SWIDTH 1080 0
DWIDTH 18 0
BBX 18 18 0 -3
BITMAP
000000
000000
71FF00
209200
209200
209200
111200
111200
111200
111200
0A1200
0A1200
0A1200
0A1200
041200
043F00
000000
000000
ENDCHAR
STARTCHAR uni2167
ENCODING 8551
SWIDTH 1080 0
DWIDTH 18 0
BBX 18 18 0 -3
BITMAP
000000
000000
71FF00
20AA00
20AA00
20AA00
112A00
112A00
112A00
112A00
0A2A00
0A2A00
0A2A00
0A2A00
042A00
047F00
000000
000000
ENDCHAR
STARTCHAR uni2168
ENCODING 8552
SWIDTH 1080 0
DWIDTH 18 0
BBX 18 18 0 -3
BITMAP
000000
000000
770700
220200
210400
210400
208800
205000
202000
205000
205000
208800
208800
210400
220200
770700
000000
000000
ENDCHAR
STARTCHAR uni2169
ENCODING 8553
SWIDTH 1080 0
DWIDTH 18 0
BBX 18 18 0 -3
BITMAP
000000
000000
380E00
100400
080800
041000
022000
014000
008000
014000
014000
022000
041000
080800
100400
380E00
000000
000000
ENDCHAR
STARTCHAR uni216A
ENCODING 8554
SWIDTH 1080 0
DWIDTH 18 0
BBX 18 18 0 -3
BITMAP
000000
000000
707700
202200
104200
088200
050200
050200
020200
050200
050200
088200
088200
104200
202200
707700
000000
000000
ENDCHAR
STARTCHAR uni216B
ENCODING 8555
SWIDTH 1080 0
DWIDTH 18 0
BBX 18 18 0 -3
BITMAP
000000
000000
707F00
202A00
104A00
088A00
050A00
050A00
020A00
050A00
050A00
088A00
088A00
104A00
202A00
707F00
000000
000000
ENDCHAR
STARTCHAR uni2170
ENCODING 8560
SWIDTH 1080 0
DWIDTH 18 0
BBX 18 18 0 -3
BITMAP
000000
000000
008000
008000
000000
000000
008000
018000
008000
008000
008000
008000
008000
008000
01C000
000000
000000
000000
ENDCHAR
STARTCHAR uni2171
ENCODING 8561
SWIDTH 1080 0
DWIDTH 18 0
BBX 18 18 0 -3
BITMAP
000000
000000
021000
021000
000000
000000
021000
063000
021000
021000
021000
021000
021000
021000
073800
000000
000000
000000
ENDCHAR
STARTCHAR uni2172
ENCODING 8562
SWIDTH 1080 0
DWIDTH 18 0
BBX 18 18 0 -3
BITMAP
000000
000000
088800
088800
000000
000000
088800
199800
088800
088800
088800
088800
088800
088800
1DDC00
000000
000000
000000
ENDCHAR
STARTCHAR uni2173
ENCODING 8563
SWIDTH 1080 0
DWIDTH 18 0
BBX 18 18 0 -3
BITMAP
000000
000000
080000
080000
000000
000000
0B8E00
190400
090400
088800
088800
085000
085000
082000
1C2000
000000
000000
000000
ENDCHAR
STARTCHAR uni2174
ENCODING 8564
SWIDTH 1080 0
DWIDTH 18 0
BBX 18 18 0 -3
BITMAP
000000
000000
000000
000000
000000
000000
0E3800
041000
041000
022000
022000
014000
014000
008000
008000
000000
000000
000000
ENDCHAR
STARTCHAR uni2175
ENCODING 8565
SWIDTH 1080 0
DWIDTH 18 0
BBX 18 18 0 -3
BITMAP
000000
000000
000400
000400
000000
000000
1C7400
082C00
082400
044400
044400
028400
028400
010400
010E00
000000
000000
000000
ENDCHAR
STARTCHAR uni2176
ENCODING 8566
SWIDTH 1080 0
DWIDTH 18 0
BBX 18 18 0 -3
BITMAP
000000
000000
001200
001200
000000
000000
71D200
20B600
209200
111200
111200
0A1200
0A1200
041200
043F00
000000
000000
000000
ENDCHAR
STARTCHAR uni2177
ENCODING 8567
SWIDTH 1080 0
DWIDTH 18 0
BBX 18 18 0 -3
BITMAP
000000
000000
004900
004900
000000
000000
774900
22DB00
224900
224900
144900
144900
144900
084900
08FF80
000000
000000
000000
ENDCHAR
STARTCHAR uni2178
ENCODING 8568
SWIDTH 1080 0
DWIDTH 18 0
BBX 18 18 0 -3
BITMAP
000000
000000
100000
100000
000000
000000
338E00
110400
108800
105000
102000
105000
108800
110400
3B8E00
000000
000000
000000
ENDCHAR
STARTCHAR uni2179
ENCODING 8569
SWIDTH 1080 0
DWIDTH 18 0
BBX 18 18 0 -3
BITMAP
000000
000000
000000
000000
000000
000000
0E1C00
020800
011000
00A000
00C000
012000
021000
040800
0E1C00
000000
000000
000000
ENDCHAR
STARTCHAR arrowleft
ENCODING 8592
SWIDTH 1080 0
DWIDTH 18 0
BBX 18 18 0 -3
BITMAP
000000
000000
000000
000000
000000
080000
100000
200000
7FFF80
200000
100000
080000
000000
000000
000000
000000
000000
000000
ENDCHAR
STARTCHAR arrowup
ENCODING 8593
SWIDTH 1080 0
DWIDTH 18 0
BBX 18 18 0 -3
BITMAP
000000
008000
01C000
02A000
049000
008000
008000
008000
008000
008000
008000
008000
008000
008000
008000
008000
008000
000000
ENDCHAR
STARTCHAR arrowright
ENCODING 8594
SWIDTH 1080 0
DWIDTH 18 0
BBX 18 18 0 -3
BITMAP
000000
000000
000000
000000
000000
000400
000200
000100
7FFF80
000100
000200
000400
000000
000000
000000
000000
000000
000000
ENDCHAR
STARTCHAR arrowdown
ENCODING 8595
SWIDTH 1080 0
DWIDTH 18 0
BBX 18 18 0 -3
BITMAP
000000
008000
008000
008000
008000
008000
008000
008000
008000
008000
008000
008000
008000
049000
02A000
01C000
008000
000000
ENDCHAR
STARTCHAR arrowboth
ENCODING 8596
SWIDTH 1080 0
DWIDTH 18 0
BBX 18 18 0 -3
BITMAP
000000
000000
000000
000000
000000
080400
100200
200100
7FFF80
200100
100200
080400
000000
000000
000000
000000
000000
000000
ENDCHAR
STARTCHAR arrowupdn
ENCODING 8597
SWIDTH 1080 0
DWIDTH 18 0
BBX 18 18 0 -3
BITMAP
000000
008000
01C000
02A000
049000
088800
008000
008000
008000
008000
008000
088800
049000
02A000
01C000
008000
000000
000000
ENDCHAR
STARTCHAR uni2196
ENCODING 8598
SWIDTH 1080 0
DWIDTH 18 0
BBX 18 18 0 -3
BITMAP
000000
000000
3F0000
300000
280000
240000
220000
210000
008000
004000
002000
001000
000800
000400
000200
000000
000000
000000
ENDCHAR
STARTCHAR uni2197
ENCODING 8599
SWIDTH 1080 0
DWIDTH 18 0
BBX 18 18 0 -3
BITMAP
000000
000000
007E00
000600
000A00
001200
002200
004000
008000
010000
020000
040000
080000
100000
200000
000000
000000
000000
ENDCHAR
STARTCHAR uni2198
ENCODING 8600
SWIDTH 1080 0
DWIDTH 18 0
BBX 18 18 0 -3
BITMAP
000000
000000
200000
100000
080000
040000
020000
010000
008000
004200
002200
001200
000A00
000600
007E00
000000
000000
000000
ENDCHAR
STARTCHAR uni2199
ENCODING 8601
SWIDTH 1080 0
DWIDTH 18 0
BBX 18 18 0 -3
BITMAP
000000
000000
000200
000400
000800
001000
002000
004000
008000
210000
220000
240000
280000
300000
3F0000
000000
000000
000000
ENDCHAR
STARTCHAR uni219A
ENCODING 8602
SWIDTH 1080 0
DWIDTH 18 0
BBX 18 18 0 -3
BITMAP
000000
000000
000000
000000
000000
080000
100800
201000
7FFF80
204000
108000
080000
000000
000000
000000
000000
000000
000000
ENDCHAR
STARTCHAR uni219B
ENCODING 8603
SWIDTH 1080 0
DWIDTH 18 0
BBX 18 18 0 -3
BITMAP
000000
000000
000000
000000
000000
000400
004200
008100
7FFF80
020100
040200
000400
000000
000000
000000
000000
000000
000000
ENDCHAR
STARTCHAR uni21A4
ENCODING 8612
SWIDTH 1080 0
DWIDTH 18 0
BBX 18 18 0 -3
BITMAP
000000
000000
000000
000000
000000
080080
100080
200080
7FFF80
200080
100080
080080
000000
000000
000000
000000
000000
000000
ENDCHAR
STARTCHAR uni21A5
ENCODING 8613
SWIDTH 1080 0
DWIDTH 18 0
BBX 18 18 0 -3
BITMAP
000000
008000
01C000
02A000
049000
008000
008000
008000
008000
008000
008000
008000
008000
008000
008000
008000
07F000
000000
ENDCHAR
STARTCHAR uni21A6
ENCODING 8614
SWIDTH 1080 0
DWIDTH 18 0
BBX 18 18 0 -3
BITMAP
000000
000000
000000
000000
000000
400400
400200
400100
7FFF80
400100
400200
400400
000000
000000
000000
000000
000000
000000
ENDCHAR
STARTCHAR uni21A7
ENCODING 8615
SWIDTH 1080 0
DWIDTH 18 0
BBX 18 18 0 -3
BITMAP
000000
07F000
008000
008000
008000
008000
008000
008000
008000
008000
008000
008000
008000
049000
02A000
01C000
008000
000000
ENDCHAR
STARTCHAR arrowupdnbse
ENCODING 8616
SWIDTH 1080 0
DWIDTH 18 0
BBX 18 18 0 -3
BITMAP
000000
008000
01C000
02A000
049000
088800
008000
008000
008000
008000
008000
088800
049000
02A000
01C000
008000
0FF800
000000
ENDCHAR
STARTCHAR arrowdblleft
ENCODING 8656
SWIDTH 1080 0
DWIDTH 18 0
BBX 18 18 0 -3
BITMAP
000000
000000
000000
000000
040000
080000
1FFF80
200000
400000
200000
1FFF80
080000
040000
000000
000000
000000
000000
000000
ENDCHAR
STARTCHAR arrowdblup
ENCODING 8657
SWIDTH 1080 0
DWIDTH 18 0
BBX 18 18 0 -3
BITMAP
000000
008000
014000
022000
063000
0A2800
022000
022000
022000
022000
022000
022000
022000
022000
022000
022000
022000
000000
ENDCHAR
STARTCHAR arrowdblright
ENCODING 8658
SWIDTH 1080 0
DWIDTH 18 0
BBX 18 18 0 -3
BITMAP
000000
000000
000000
000000
000800
000400
7FFE00
000100
000080
000100
7FFE00
000400
000800
000000
000000
000000
000000
000000
ENDCHAR
STARTCHAR arrowdbldown
ENCODING 8659
SWIDTH 1080 0
DWIDTH 18 0
BBX 18 18 0 -3
BITMAP
000000
022000
022000
022000
022000
022000
022000
022000
022000
022000
022000
022000
0A2800
063000
022000
014000
008000
000000
ENDCHAR
STARTCHAR arrowdblboth
ENCODING 8660
SWIDTH 1080 0
DWIDTH 18 0
BBX 18 18 0 -3
BITMAP
000000
000000
000000
000000
040800
080400
1FFE00
200100
400080
200100
1FFE00
080400
040800
000000
000000
000000
000000
000000
ENDCHAR
STARTCHAR uni21D5
ENCODING 8661
SWIDTH 1080 0
DWIDTH 18 0
BBX 18 18 0 -3
BITMAP
000000
008000
014000
022000
063000
0A2800
022000
022000
022000
022000
022000
022000
0A2800
063000
022000
014000
008000
000000
ENDCHAR
STARTCHAR universal
ENCODING 8704
SWIDTH 1080 0
DWIDTH 18 0
BBX 18 18 0 -3
BITMAP
000000
000000
200200
200200
100400
100400
0FF800
080800
041000
041000
022000
022000
014000
014000
008000
008000
000000
000000
ENDCHAR
STARTCHAR partialdiff
ENCODING 8706
SWIDTH 1080 0
DWIDTH 18 0
BBX 18 18 0 -3
BITMAP
000000
000000
00F000
019800
020800
000800
000800
01D800
023000
041000
0C3000
082000
086000
0CC000
078000
000000
000000
000000
ENDCHAR
STARTCHAR existential
ENCODING 8707
SWIDTH 1080 0
DWIDTH 18 0
BBX 18 18 0 -3
BITMAP
000000
000000
000000
0FF800
000800
000800
000800
000800
0FF800
000800
000800
000800
000800
0FF800
000000
000000
000000
000000
ENDCHAR
STARTCHAR gradient
ENCODING 8711
SWIDTH 1080 0
DWIDTH 18 0
BBX 18 18 0 -3
BITMAP
000000
000000
3FFF00
180200
180600
0C0400
0C0C00
060800
061800
031000
033000
01A000
01E000
00C000
00C000
000000
000000
000000
ENDCHAR
STARTCHAR element
ENCODING 8712
SWIDTH 1080 0
DWIDTH 18 0
BBX 18 18 0 -3
BITMAP
000000
000000
000000
000000
03FC00
040000
080000
080000
0FFC00
080000
080000
040000
03FC00
000000
000000
000000
000000
000000
ENDCHAR
STARTCHAR suchthat
ENCODING 8715
SWIDTH 1080 0
DWIDTH 18 0
BBX 18 18 0 -3
BITMAP
000000
000000
000000
000000
0FF000
000800
000400
000400
0FFC00
000400
000400
000800
0FF000
000000
000000
000000
000000
000000
ENDCHAR
STARTCHAR product
ENCODING 8719
SWIDTH 1080 0
DWIDTH 18 0
BBX 18 18 0 -3
BITMAP
000000
000000
1FFC00
080800
080800
080800
080800
080800
080800
080800
080800
080800
080800
080800
080800
3C1E00
000000
000000
ENDCHAR
STARTCHAR summation
ENCODING 8721
SWIDTH 1080 0
DWIDTH 18 0
BBX 18 18 0 -3
BITMAP
000000
000000
3FFE00
100200
080200
040000
020000
010000
008000
010000
020000
040000
080200
100200
3FFE00
000000
000000
000000
ENDCHAR
STARTCHAR minus
ENCODING 8722
SWIDTH 1080 0
DWIDTH 18 0
BBX 18 18 0 -3
BITMAP
000000
000000
000000
000000
000000
000000
000000
000000
1FFE00
000000
000000
000000
000000
000000
000000
000000
000000
000000
ENDCHAR
STARTCHAR uni2218
ENCODING 8728
SWIDTH 1080 0
DWIDTH 18 0
BBX 18 18 0 -3
BITMAP
000000
000000
000000
000000
000000
000000
01C000
022000
022000
022000
01C000
000000
000000
000000
000000
000000
000000
000000
ENDCHAR
STARTCHAR periodcentered
ENCODING 8729
SWIDTH 1080 0
DWIDTH 18 0
BBX 18 18 0 -3
BITMAP
000000
000000
000000
000000
000000
000000
01C000
03E000
03E000
03E000
01C000
000000
000000
000000
000000
000000
000000
000000
ENDCHAR
STARTCHAR radical
ENCODING 8730
SWIDTH 1080 0
DWIDTH 18 0
BBX 18 18 0 -3
BITMAP
000000
007F80
004000
004000
008000
008000
008000
008000
010000
010000
010000
110000
3A0000
5A0000
0E0000
0C0000
040000
000000
ENDCHAR
STARTCHAR proportional
ENCODING 8733
SWIDTH 1080 0
DWIDTH 18 0
BBX 18 18 0 -3
BITMAP
000000
000000
000000
000000
000000
0E1C00
112200
20C000
20C000
20C000
20C000
112200
0E1C00
000000
000000
000000
000000
000000
ENDCHAR
STARTCHAR infinity
ENCODING 8734
SWIDTH 1080 0
DWIDTH 18 0
BBX 18 18 0 -3
BITMAP
000000
000000
000000
000000
000000
0E1C00
112200
20C100
20C100
20C100
20C100
112200
0E1C00
000000
000000
000000
000000
000000
ENDCHAR
STARTCHAR orthogonal
ENCODING 8735
SWIDTH 1080 0
DWIDTH 18 0
BBX 18 18 0 -3
BITMAP
000000
000000
000000
100000
100000
100000
100000
100000
100000
100000
100000
100000
100000
100000
1FFE00
000000
000000
000000
ENDCHAR
STARTCHAR angle
ENCODING 8736
SWIDTH 1080 0
DWIDTH 18 0
BBX 18 18 0 -3
BITMAP
000000
000000
000000
000400
000800
001000
002000
004000
008000
010000
020000
040000
080000
1FFE00
000000
000000
000000
000000
ENDCHAR
STARTCHAR uni2225
ENCODING 8741
SWIDTH 1080 0
DWIDTH 18 0
BBX 18 18 0 -3
BITMAP
000000
009000
009000
009000
009000
009000
009000
012000
012000
012000
012000
012000
024000
024000
024000
024000
024000
000000
ENDCHAR
STARTCHAR logicaland
ENCODING 8743
SWIDTH 1080 0
DWIDTH 18 0
BBX 18 18 0 -3
BITMAP
000000
000000
000000
008000
008000
014000
014000
022000
022000
041000
041000
080800
080800
100400
100400
000000
000000
000000
ENDCHAR
STARTCHAR logicalor
ENCODING 8744
SWIDTH 1080 0
DWIDTH 18 0
BBX 18 18 0 -3
BITMAP
000000
000000
000000
100400
100400
080800
080800
041000
041000
022000
022000
014000
014000
008000
008000
000000
000000
000000
ENDCHAR
STARTCHAR intersection
ENCODING 8745
SWIDTH 1080 0
DWIDTH 18 0
BBX 18 18 0 -3
BITMAP
000000
000000
000000
01E000
021000
040800
080400
080400
080400
080400
080400
080400
080400
080400
080400
000000
000000
000000
ENDCHAR
STARTCHAR union
ENCODING 8746
SWIDTH 1080 0
DWIDTH 18 0
BBX 18 18 0 -3
BITMAP
000000
000000
000000
080400
080400
080400
080400
080400
080400
080400
080400
080400
040800
021000
01E000
000000
000000
000000
ENDCHAR
STARTCHAR integral
ENCODING 8747
SWIDTH 1080 0
DWIDTH 18 0
BBX 18 18 0 -3
BITMAP
000000
00E000
012000
010000
010000
018000
018000
008000
00C000
00C000
004000
006000
006000
002000
002000
012000
01C000
000000
ENDCHAR
STARTCHAR uni222C
ENCODING 8748
SWIDTH 1080 0
DWIDTH 18 0
BBX 18 18 0 -3
BITMAP
000000
071C00
092400
082000
082000
0C3000
0C3000
041000
061800
061800
020800
030C00
030C00
010400
010400
092400
0E3800
000000
ENDCHAR
STARTCHAR uni222E
ENCODING 8750
SWIDTH 1080 0
DWIDTH 18 0
BBX 18 18 0 -3
BITMAP
000000
001800
002400
002000
004000
004000
01E000
025000
025000
029000
029000
01E000
008000
008000
010000
090000
060000
000000
ENDCHAR
STARTCHAR therefore
ENCODING 8756
SWIDTH 1080 0
DWIDTH 18 0
BBX 18 18 0 -3
BITMAP
000000
000000
000000
000000
00C000
00C000
000000
000000
000000
000000
000000
000000
180600
180600
000000
000000
000000
000000
ENDCHAR
STARTCHAR uni2235
ENCODING 8757
SWIDTH 1080 0
DWIDTH 18 0
BBX 18 18 0 -3
BITMAP
000000
000000
000000
000000
180600
180600
000000
000000
000000
000000
000000
000000
00C000
00C000
000000
000000
000000
000000
ENDCHAR
STARTCHAR uni2236
ENCODING 8758
SWIDTH 1080 0
DWIDTH 18 0
BBX 18 18 0 -3
BITMAP
000000
000000
000000
000000
000000
00C000
00C000
000000
000000
000000
00C000
00C000
000000
000000
000000
000000
000000
000000
ENDCHAR
STARTCHAR uni2237
ENCODING 8759
SWIDTH 1080 0
DWIDTH 18 0
BBX 18 18 0 -3
BITMAP
000000
000000
000000
000000
0C1800
0C1800
000000
000000
000000
000000
000000
0C1800
0C1800
000000
000000
000000
000000
000000
ENDCHAR
STARTCHAR similar
ENCODING 8764
SWIDTH 1080 0
DWIDTH 18 0
BBX 18 18 0 -3
BITMAP
000000
000000
000000
000000
000000
000000
000000
070000
18C600
003800
000000
000000
000000
000000
000000
000000
000000
000000
ENDCHAR
STARTCHAR uni223D
ENCODING 8765
SWIDTH 1080 0
DWIDTH 18 0
BBX 18 18 0 -3
BITMAP
000000
000000
000000
000000
000000
0E1C00
102200
204100
204100
208100
208100
110200
0E1C00
000000
000000
000000
000000
000000
ENDCHAR
STARTCHAR approxequal
ENCODING 8776
SWIDTH 1080 0
DWIDTH 18 0
BBX 18 18 0 -3
BITMAP
000000
000000
000000
000000
000000
000000
1C0200
238400
007800
1C0200
238400
007800
000000
000000
000000
000000
000000
000000
ENDCHAR
STARTCHAR uni224C
ENCODING 8780
SWIDTH 1080 0
DWIDTH 18 0
BBX 18 18 0 -3
BITMAP
000000
000000
000000
0C3800
104400
208200
208200
210200
110400
0E1800
000000
3FFE00
000000
3FFE00
000000
000000
000000
000000
ENDCHAR
STARTCHAR uni2252
ENCODING 8786
SWIDTH 1080 0
DWIDTH 18 0
BBX 18 18 0 -3
BITMAP
000000
000000
000000
0C0000
0C0000
000000
1FFE00
000000
000000
000000
1FFE00
000000
000C00
000C00
000000
000000
000000
000000
ENDCHAR
STARTCHAR notequal
ENCODING 8800
SWIDTH 1080 0
DWIDTH 18 0
BBX 18 18 0 -3
BITMAP
000000
000000
000000
002000
002000
004000
1FFE00
004000
008000
008000
1FFE00
008000
010000
010000
000000
000000
000000
000000
ENDCHAR
STARTCHAR equivalence
ENCODING 8801
SWIDTH 1080 0
DWIDTH 18 0
BBX 18 18 0 -3
BITMAP
000000
000000
000000
000000
1FFE00
000000
000000
000000
1FFE00
000000
000000
000000
1FFE00
000000
000000
000000
000000
000000
ENDCHAR
STARTCHAR lessequal
ENCODING 8804
SWIDTH 1080 0
DWIDTH 18 0
BBX 18 18 0 -3
BITMAP
000000
000600
001800
006000
018000
060000
180000
200000
180000
260000
198000
066000
019800
006600
001800
000600
000000
000000
ENDCHAR
STARTCHAR greaterequal
ENCODING 8805
SWIDTH 1080 0
DWIDTH 18 0
BBX 18 18 0 -3
BITMAP
000000
300000
0C0000
030000
00C000
003000
000C00
000200
000C00
003200
00CC00
033000
0CC000
330000
0C0000
300000
000000
000000
ENDCHAR
STARTCHAR uni2266
ENCODING 8806
SWIDTH 1080 0
DWIDTH 18 0
BBX 18 18 0 -3
BITMAP
000000
000000
000000
000E00
007000
038000
1C0000
038000
007000
000E00
000000
1FFE00
000000
000000
1FFE00
000000
000000
000000
ENDCHAR
STARTCHAR uni2267
ENCODING 8807
SWIDTH 1080 0
DWIDTH 18 0
BBX 18 18 0 -3
BITMAP
000000
000000
000000
1C0000
038000
007000
000E00
007000
038000
1C0000
000000
1FFE00
000000
000000
1FFE00
000000
000000
000000
ENDCHAR
STARTCHAR uni226A
ENCODING 8810
SWIDTH 1080 0
DWIDTH 18 0
BBX 18 18 0 -3
BITMAP
000000
000000
002100
004200
018C00
021000
0C6000
108000
210000
108000
084000
042000
031800
008400
004200
002100
000000
000000
ENDCHAR
STARTCHAR uni226B
ENCODING 8811
SWIDTH 1080 0
DWIDTH 18 0
BBX 18 18 0 -3
BITMAP
000000
000000
210000
108000
0C6000
021000
018C00
004200
002100
004200
008400
010800
063000
084000
108000
210000
000000
000000
ENDCHAR
STARTCHAR uni226E
ENCODING 8814
SWIDTH 1080 0
DWIDTH 18 0
BBX 18 18 0 -3
BITMAP
000000
000000
010600
011800
016000
018000
070000
190000
210000
190000
070000
018000
016000
011800
010600
000000
000000
000000
ENDCHAR
STARTCHAR uni226F
ENCODING 8815
SWIDTH 1080 0
DWIDTH 18 0
BBX 18 18 0 -3
BITMAP
000000
000000
304000
0C4000
034000
00C000
007000
004C00
004200
004C00
007000
00C000
034000
0C4000
304000
000000
000000
000000
ENDCHAR
STARTCHAR propersubset
ENCODING 8834
SWIDTH 1080 0
DWIDTH 18 0
BBX 18 18 0 -3
BITMAP
000000
000000
000000
000000
03FE00
040000
080000
100000
100000
100000
100000
080000
040000
03FE00
000000
000000
000000
000000
ENDCHAR
STARTCHAR propersuperset
ENCODING 8835
SWIDTH 1080 0
DWIDTH 18 0
BBX 18 18 0 -3
BITMAP
000000
000000
000000
000000
1FF000
000800
000400
000200
000200
000200
000200
000400
000800
1FF000
000000
000000
000000
000000
ENDCHAR
STARTCHAR reflexsubset
ENCODING 8838
SWIDTH 1080 0
DWIDTH 18 0
BBX 18 18 0 -3
BITMAP
000000
000000
000000
07FE00
080000
100000
100000
100000
100000
080000
07FE00
000000
000000
1FFE00
000000
000000
000000
000000
ENDCHAR
STARTCHAR reflexsuperset
ENCODING 8839
SWIDTH 1080 0
DWIDTH 18 0
BBX 18 18 0 -3
BITMAP
000000
000000
000000
1FF800
000400
000200
000200
000200
000200
000400
1FF800
000000
000000
1FFE00
000000
000000
000000
000000
ENDCHAR
STARTCHAR uni2299
ENCODING 8857
SWIDTH 1080 0
DWIDTH 18 0
BBX 18 18 0 -3
BITMAP
000000
000000
000000
01E000
061800
080400
080400
100200
10C200
10C200
100200
080400
080400
061800
01E000
000000
000000
000000
ENDCHAR
STARTCHAR perpendicular
ENCODING 8869
SWIDTH 1080 0
DWIDTH 18 0
BBX 18 18 0 -3
BITMAP
000000
000000
000000
008000
008000
008000
008000
008000
008000
008000
008000
008000
008000
1FFE00
000000
000000
000000
000000
ENDCHAR
STARTCHAR house
ENCODING 8962
SWIDTH 1080 0
DWIDTH 18 0
BBX 18 18 0 -3
BITMAP
000000
000000
00C000
012000
021000
040800
080400
100200
200100
200100
200100
200100
200100
200100
3FFF00
000000
000000
000000
ENDCHAR
STARTCHAR uni2308
ENCODING 8968
SWIDTH 1080 0
DWIDTH 18 0
BBX 18 18 0 -3
BITMAP
000000
00F800
008000
008000
008000
008000
008000
008000
008000
008000
008000
008000
008000
008000
008000
008000
008000
000000
ENDCHAR
STARTCHAR uni2309
ENCODING 8969
SWIDTH 1080 0
DWIDTH 18 0
BBX 18 18 0 -3
BITMAP
000000
07C000
004000
004000
004000
004000
004000
004000
004000
004000
004000
004000
004000
004000
004000
004000
004000
000000
ENDCHAR
STARTCHAR uni230A
ENCODING 8970
SWIDTH 1080 0
DWIDTH 18 0
BBX 18 18 0 -3
BITMAP
000000
008000
008000
008000
008000
008000
008000
008000
008000
008000
008000
008000
008000
008000
008000
008000
00F800
000000
ENDCHAR
STARTCHAR uni230B
ENCODING 8971
SWIDTH 1080 0
DWIDTH 18 0
BBX 18 18 0 -3
BITMAP
000000
004000
004000
004000
004000
004000
004000
004000
004000
004000
004000
004000
004000
004000
004000
004000
07C000
000000
ENDCHAR
STARTCHAR revlogicalnot
ENCODING 8976
SWIDTH 1080 0
DWIDTH 18 0
BBX 18 18 0 -3
BITMAP
000000
000000
000000
000000
000000
000000
000000
1FFE00
100000
100000
100000
100000
000000
000000
000000
000000
000000
000000
ENDCHAR
STARTCHAR uni2312
ENCODING 8978
SWIDTH 1080 0
DWIDTH 18 0
BBX 18 18 0 -3
BITMAP
000000
03F000
1C0E00
600180
000000
000000
000000
000000
000000
000000
000000
000000
000000
000000
000000
000000
000000
000000
ENDCHAR
STARTCHAR integraltp
ENCODING 8992
SWIDTH 1080 0
DWIDTH 18 0
BBX 18 18 0 -3
BITMAP
000000
000000
003000
004800
008400
008000
008000
008000
008000
008000
008000
008000
008000
008000
008000
008000
008000
008000
ENDCHAR
STARTCHAR integralbt
ENCODING 8993
SWIDTH 1080 0
DWIDTH 18 0
BBX 18 18 0 -3
BITMAP
008000
008000
008000
008000
008000
008000
008000
008000
008000
008000
008000
008000
008000
108000
090000
060000
000000
000000
ENDCHAR
STARTCHAR uni240A
ENCODING 9226
SWIDTH 1080 0
DWIDTH 18 0
BBX 18 18 0 -3
BITMAP
000000
000000
100000
100000
100000
100000
100000
103E00
102000
1F2000
003C00
002000
002000
002000
002000
000000
000000
000000
ENDCHAR
STARTCHAR uni240D
ENCODING 9229
SWIDTH 1080 0
DWIDTH 18 0
BBX 18 18 0 -3
BITMAP
000000
000000
0E0000
110000
100000
100000
100000
103C00
112200
0E2200
002200
003C00
002400
002200
002200
000000
000000
000000
ENDCHAR
STARTCHAR uni2460
ENCODING 9312
SWIDTH 1080 0
DWIDTH 18 0
BBX 18 18 0 -3
BITMAP
000000
03E000
0C1800
100400
208200
208200
408100
408100
408100
408100
408100
208200
208200
100400
0C1800
03E000
000000
000000
ENDCHAR
STARTCHAR uni2461
ENCODING 9313
SWIDTH 1080 0
DWIDTH 18 0
BBX 18 18 0 -3
BITMAP
000000
03E000
0C1800
100400
23E200
222200
402100
402100
40C100
410100
420100
222200
23E200
100400
0C1800
03E000
000000
000000
ENDCHAR
STARTCHAR uni2462
ENCODING 9314
SWIDTH 1080 0
DWIDTH 18 0
BBX 18 18 0 -3
BITMAP
000000
03E000
0C1800
100400
23E200
222200
402100
406100
418100
406100
402100
222200
23E200
100400
0C1800
03E000
000000
000000
ENDCHAR
STARTCHAR uni2463
ENCODING 9315
SWIDTH 1080 0
DWIDTH 18 0
BBX 18 18 0 -3
BITMAP
000000
03E000
0C1800
100400
218200
228200
428100
428100
448100
448100
47E100
208200
208200
100400
0C1800
03E000
000000
000000
ENDCHAR
STARTCHAR uni2464
ENCODING 9316
SWIDTH 1080 0
DWIDTH 18 0
BBX 18 18 0 -3
BITMAP
000000
03E000
0C1800
100400
23E200
220200
420100
420100
43E100
402100
402100
222200
23E200
100400
0C1800
03E000
000000
000000
ENDCHAR
STARTCHAR uni2465
ENCODING 9317
SWIDTH 1080 0
DWIDTH 18 0
BBX 18 18 0 -3
BITMAP
000000
03E000
0C1800
100400
23E200
222200
420100
420100
43E100
422100
422100
222200
23E200
100400
0C1800
03E000
000000
000000
ENDCHAR
STARTCHAR uni2466
ENCODING 9318
SWIDTH 1080 0
DWIDTH 18 0
BBX 18 18 0 -3
BITMAP
000000
03E000
0C1800
100400
23E200
222200
402100
404100
404100
408100
408100
208200
208200
100400
0C1800
03E000
000000
000000
ENDCHAR
STARTCHAR uni2467
ENCODING 9319
SWIDTH 1080 0
DWIDTH 18 0
BBX 18 18 0 -3
BITMAP
000000
03E000
0C1800
100400
23E200
222200
422100
422100
41C100
422100
422100
222200
23E200
100400
0C1800
03E000
000000
000000
ENDCHAR
STARTCHAR uni2468
ENCODING 9320
SWIDTH 1080 0
DWIDTH 18 0
BBX 18 18 0 -3
BITMAP
000000
03E000
0C1800
100400
23E200
222200
422100
422100
43E100
402100
402100
222200
23E200
100400
0C1800
03E000
000000
000000
ENDCHAR
STARTCHAR uni2469
ENCODING 9321
SWIDTH 1080 0
DWIDTH 18 0
BBX 18 18 0 -3
BITMAP
000000
03E000
0C1800
100400
25F200
251200
451100
451100
451100
451100
451100
251200
25F200
100400
0C1800
03E000
000000
000000
ENDCHAR
STARTCHAR uni246A
ENCODING 9322
SWIDTH 1080 0
DWIDTH 18 0
BBX 18 18 0 -3
BITMAP
000000
000000
07F800
080400
121200
263100
221100
221100
221100
221100
221100
221100
273900
100200
080400
07F800
000000
000000
ENDCHAR
STARTCHAR uni246B
ENCODING 9323
SWIDTH 1080 0
DWIDTH 18 0
BBX 18 18 0 -3
BITMAP
000000
000000
07F800
080400
127200
268900
22C900
220900
223100
224100
228100
228500
27F900
100200
080400
07F800
000000
000000
ENDCHAR
STARTCHAR uni246C
ENCODING 9324
SWIDTH 1080 0
DWIDTH 18 0
BBX 18 18 0 -3
BITMAP
000000
000000
07F800
080400
127200
268900
220900
220900
223100
220900
228900
228900
277100
100200
080400
07F800
000000
000000
ENDCHAR
STARTCHAR uni246D
ENCODING 9325
SWIDTH 1080 0
DWIDTH 18 0
BBX 18 18 0 -3
BITMAP
000000
000000
07F800
080400
121200
263100
223100
225100
225100
229100
23FD00
221100
273900
100200
080400
07F800
000000
000000
ENDCHAR
STARTCHAR uni246E
ENCODING 9326
SWIDTH 1080 0
DWIDTH 18 0
BBX 18 18 0 -3
BITMAP
000000
000000
07F800
080400
12CA00
26B100
228100
22B100
22C900
220900
220900
228900
277100
100200
080400
07F800
000000
000000
ENDCHAR
STARTCHAR uni2474
ENCODING 9332
SWIDTH 1080 0
DWIDTH 18 0
BBX 18 18 0 -3
BITMAP
000000
000000
200200
408100
408100
408100
408100
408100
408100
408100
408100
408100
408100
408100
408100
200200
000000
000000
ENDCHAR
STARTCHAR uni2475
ENCODING 9333
SWIDTH 1080 0
DWIDTH 18 0
BBX 18 18 0 -3
BITMAP
000000
000000
200200
43C100
442100
442100
402100
402100
402100
404100
418100
420100
442100
442100
47E100
200200
000000
000000
ENDCHAR
STARTCHAR uni2476
ENCODING 9334
SWIDTH 1080 0
DWIDTH 18 0
BBX 18 18 0 -3
BITMAP
000000
000000
200200
43C100
442100
442100
402100
404100
418100
404100
402100
402100
442100
442100
43C100
200200
000000
000000
ENDCHAR
STARTCHAR uni2477
ENCODING 9335
SWIDTH 1080 0
DWIDTH 18 0
BBX 18 18 0 -3
BITMAP
000000
000000
20C200
414100
414100
414100
424100
424100
444100
444100
47F100
404100
404100
404100
404100
200200
000000
000000
ENDCHAR
STARTCHAR uni2478
ENCODING 9336
SWIDTH 1080 0
DWIDTH 18 0
BBX 18 18 0 -3
BITMAP
000000
000000
200200
47E100
440100
440100
440100
45C100
462100
442100
402100
402100
442100
442100
43C100
200200
000000
000000
ENDCHAR
STARTCHAR uni2479
ENCODING 9337
SWIDTH 1080 0
DWIDTH 18 0
BBX 18 18 0 -3
BITMAP
000000
000000
200200
43C100
442100
442100
440100
440100
45C100
462100
442100
442100
442100
442100
43C100
200200
000000
000000
ENDCHAR
STARTCHAR uni247A
ENCODING 9338
SWIDTH 1080 0
DWIDTH 18 0
BBX 18 18 0 -3
BITMAP
000000
000000
200200
47F100
441100
441100
402100
404100
404100
404100
408100
408100
408100
408100
408100
200200
000000
000000
ENDCHAR
STARTCHAR uni247B
ENCODING 9339
SWIDTH 1080 0
DWIDTH 18 0
BBX 18 18 0 -3
BITMAP
000000
000000
200200
43C100
442100
442100
442100
442100
43C100
442100
442100
442100
442100
442100
43C100
200200
000000
000000
ENDCHAR
STARTCHAR uni247C
ENCODING 9340
SWIDTH 1080 0
DWIDTH 18 0
BBX 18 18 0 -3
BITMAP
000000
000000
200200
43C100
442100
442100
442100
442100
446100
43A100
402100
402100
442100
442100
43C100
200200
000000
000000
ENDCHAR
STARTCHAR uni247D
ENCODING 9341
SWIDTH 1080 0
DWIDTH 18 0
BBX 18 18 0 -3
BITMAP
000000
000000
200200
447100
448900
448900
448900
448900
448900
448900
448900
448900
448900
448900
447100
200200
000000
000000
ENDCHAR
STARTCHAR uni247E
ENCODING 9342
SWIDTH 1080 0
DWIDTH 18 0
BBX 18 18 0 -3
BITMAP
000000
000000
200200
441100
441100
441100
441100
441100
441100
441100
441100
441100
441100
441100
441100
200200
000000
000000
ENDCHAR
STARTCHAR uni247F
ENCODING 9343
SWIDTH 1080 0
DWIDTH 18 0
BBX 18 18 0 -3
BITMAP
000000
000000
200200
48F100
490900
490900
480900
480900
481100
486100
488100
490100
490900
490900
49F900
200200
000000
000000
ENDCHAR
STARTCHAR uni2480
ENCODING 9344
SWIDTH 1080 0
DWIDTH 18 0
BBX 18 18 0 -3
BITMAP
000000
000000
200200
48F100
490900
490900
480900
481100
486100
481100
480900
480900
490900
490900
48F100
200200
000000
000000
ENDCHAR
STARTCHAR uni2481
ENCODING 9345
SWIDTH 1080 0
DWIDTH 18 0
BBX 18 18 0 -3
BITMAP
000000
000000
200200
483100
485100
485100
485100
489100
489100
491100
491100
49FD00
481100
481100
481100
200200
000000
000000
ENDCHAR
STARTCHAR uni2482
ENCODING 9346
SWIDTH 1080 0
DWIDTH 18 0
BBX 18 18 0 -3
BITMAP
000000
000000
200200
49F900
490100
490100
490100
497100
498900
490900
480900
480900
490900
490900
48F100
200200
000000
000000
ENDCHAR
STARTCHAR uni2483
ENCODING 9347
SWIDTH 1080 0
DWIDTH 18 0
BBX 18 18 0 -3
BITMAP
000000
000000
200200
48F100
490900
490900
490100
490100
497100
498900
490900
490900
490900
490900
48F100
200200
000000
000000
ENDCHAR
STARTCHAR uni2484
ENCODING 9348
SWIDTH 1080 0
DWIDTH 18 0
BBX 18 18 0 -3
BITMAP
000000
000000
200200
49F900
490900
490900
481100
482100
482100
482100
484100
484100
484100
484100
484100
200200
000000
000000
ENDCHAR
STARTCHAR uni2485
ENCODING 9349
SWIDTH 1080 0
DWIDTH 18 0
BBX 18 18 0 -3
BITMAP
000000
000000
200200
48F100
490900
490900
490900
490900
48F100
490900
490900
490900
490900
490900
48F100
200200
000000
000000
ENDCHAR
STARTCHAR uni2486
ENCODING 9350
SWIDTH 1080 0
DWIDTH 18 0
BBX 18 18 0 -3
BITMAP
000000
000000
200200
48F100
490900
490900
490900
490900
491900
48E900
480900
480900
490900
490900
48F100
200200
000000
000000
ENDCHAR
STARTCHAR uni2487
ENCODING 9351
SWIDTH 1080 0
DWIDTH 18 0
BBX 18 18 0 -3
BITMAP
000000
000000
200200
4E3900
514500
514500
414500
414500
424500
444500
484500
504500
514500
514500
5F3900
200200
000000
000000
ENDCHAR
STARTCHAR uni2488
ENCODING 9352
SWIDTH 1080 0
DWIDTH 18 0
BBX 18 18 0 -3
BITMAP
000000
000000
008000
018000
028000
008000
008000
008000
008000
008000
008000
008000
008000
008000
008000
009000
000000
000000
ENDCHAR
STARTCHAR uni2489
ENCODING 9353
SWIDTH 1080 0
DWIDTH 18 0
BBX 18 18 0 -3
BITMAP
000000
000000
078000
084000
084000
004000
004000
004000
008000
030000
040000
080000
080000
084000
084000
0FC800
000000
000000
ENDCHAR
STARTCHAR uni248A
ENCODING 9354
SWIDTH 1080 0
DWIDTH 18 0
BBX 18 18 0 -3
BITMAP
000000
000000
078000
084000
084000
004000
004000
008000
030000
008000
004000
004000
084000
084000
084000
078800
000000
000000
ENDCHAR
STARTCHAR uni248B
ENCODING 9355
SWIDTH 1080 0
DWIDTH 18 0
BBX 18 18 0 -3
BITMAP
000000
000000
018000
028000
028000
028000
048000
048000
048000
088000
088000
0FE000
008000
008000
008000
008400
008000
000000
ENDCHAR
STARTCHAR uni248C
ENCODING 9356
SWIDTH 1080 0
DWIDTH 18 0
BBX 18 18 0 -3
BITMAP
000000
000000
0FC000
080000
080000
080000
080000
080000
0B8000
0C4000
084000
004000
004000
084000
084000
078800
000000
000000
ENDCHAR
STARTCHAR uni248D
ENCODING 9357
SWIDTH 1080 0
DWIDTH 18 0
BBX 18 18 0 -3
BITMAP
000000
000000
078000
084000
084000
084000
080000
080000
0B8000
0C4000
084000
084000
084000
084000
084000
078800
000000
000000
ENDCHAR
STARTCHAR uni248E
ENCODING 9358
SWIDTH 1080 0
DWIDTH 18 0
BBX 18 18 0 -3
BITMAP
000000
000000
0FE000
082000
082000
004000
008000
008000
008000
010000
010000
010000
010000
010000
010000
010400
000000
000000
ENDCHAR
STARTCHAR uni248F
ENCODING 9359
SWIDTH 1080 0
DWIDTH 18 0
BBX 18 18 0 -3
BITMAP
000000
000000
078000
084000
084000
084000
084000
048000
030000
048000
084000
084000
084000
084000
084000
078800
000000
000000
ENDCHAR
STARTCHAR uni2490
ENCODING 9360
SWIDTH 1080 0
DWIDTH 18 0
BBX 18 18 0 -3
BITMAP
000000
000000
078000
084000
084000
084000
084000
084000
08C000
074000
004000
004000
084000
084000
084000
078800
000000
000000
ENDCHAR
STARTCHAR uni2491
ENCODING 9361
SWIDTH 1080 0
DWIDTH 18 0
BBX 18 18 0 -3
BITMAP
000000
000000
08F000
190800
290800
090800
090800
090800
090800
090800
090800
090800
090800
090800
090800
08F200
000000
000000
ENDCHAR
STARTCHAR uni2492
ENCODING 9362
SWIDTH 1080 0
DWIDTH 18 0
BBX 18 18 0 -3
BITMAP
000000
000000
082000
186000
28A000
082000
082000
082000
082000
082000
082000
082000
082000
082000
082000
082400
000000
000000
ENDCHAR
STARTCHAR uni2493
ENCODING 9363
SWIDTH 1080 0
DWIDTH 18 0
BBX 18 18 0 -3
BITMAP
000000
000000
08F000
190800
290800
080800
080800
080800
081000
086000
088000
090000
090000
090800
090800
09F900
000000
000000
ENDCHAR
STARTCHAR uni2494
ENCODING 9364
SWIDTH 1080 0
DWIDTH 18 0
BBX 18 18 0 -3
BITMAP
000000
000000
08F000
190800
290800
080800
080800
081000
086000
081000
080800
080800
090800
090800
090800
08F100
000000
000000
ENDCHAR
STARTCHAR uni2495
ENCODING 9365
SWIDTH 1080 0
DWIDTH 18 0
BBX 18 18 0 -3
BITMAP
000000
000000
083000
185000
285000
085000
089000
089000
089000
091000
091000
09FC00
081000
081000
081000
081200
000000
000000
ENDCHAR
STARTCHAR uni2496
ENCODING 9366
SWIDTH 1080 0
DWIDTH 18 0
BBX 18 18 0 -3
BITMAP
000000
000000
09F800
190000
290000
090000
090000
090000
097000
098800
090800
080800
080800
090800
090800
08F100
000000
000000
ENDCHAR
STARTCHAR uni2497
ENCODING 9367
SWIDTH 1080 0
DWIDTH 18 0
BBX 18 18 0 -3
BITMAP
000000
000000
08F000
190800
290800
090800
090000
090000
097000
098800
090800
090800
090800
090800
090800
08F100
000000
000000
ENDCHAR
STARTCHAR uni2498
ENCODING 9368
SWIDTH 1080 0
DWIDTH 18 0
BBX 18 18 0 -3
BITMAP
000000
000000
09FC00
190400
290400
080800
081000
081000
081000
082000
082000
082000
082000
082000
082000
082100
000000
000000
ENDCHAR
STARTCHAR uni2499
ENCODING 9369
SWIDTH 1080 0
DWIDTH 18 0
BBX 18 18 0 -3
BITMAP
000000
000000
08F000
190800
290800
090800
090800
089000
086000
089000
090800
090800
090800
090800
090800
08F100
000000
000000
ENDCHAR
STARTCHAR uni249A
ENCODING 9370
SWIDTH 1080 0
DWIDTH 18 0
BBX 18 18 0 -3
BITMAP
000000
000000
08F000
190800
290800
090800
090800
090800
091800
08E800
080800
080800
090800
090800
090800
08F100
000000
000000
ENDCHAR
STARTCHAR uni249B
ENCODING 9371
SWIDTH 1080 0
DWIDTH 18 0
BBX 18 18 0 -3
BITMAP
000000
000000
1C7000
228800
228800
028800
028800
028800
0C8800
108800
208800
208800
208800
228800
228800
3E7200
000000
000000
ENDCHAR
STARTCHAR uni249C
ENCODING 9372
SWIDTH 1080 0
DWIDTH 18 0
BBX 18 18 0 -3
BITMAP
000000
000000
0C0C00
100200
200100
200100
21E100
221100
201100
21F100
221100
221100
21ED00
200100
100200
0C0C00
000000
000000
ENDCHAR
STARTCHAR uni249D
ENCODING 9373
SWIDTH 1080 0
DWIDTH 18 0
BBX 18 18 0 -3
BITMAP
000000
000000
0C0C00
120200
260100
220100
22E100
231100
220900
220900
220900
231100
26E100
200100
100200
0C0C00
000000
000000
ENDCHAR
STARTCHAR uni249E
ENCODING 9374
SWIDTH 1080 0
DWIDTH 18 0
BBX 18 18 0 -3
BITMAP
000000
000000
0C0C00
100200
200100
200100
21E100
221100
240100
240100
240900
221100
21E100
200100
100200
0C0C00
000000
000000
ENDCHAR
STARTCHAR uni249F
ENCODING 9375
SWIDTH 1080 0
DWIDTH 18 0
BBX 18 18 0 -3
BITMAP
000000
000000
0C0C00
101200
203100
201100
21D100
223100
241100
241100
241100
223100
21D900
200100
100200
0C0C00
000000
000000
ENDCHAR
STARTCHAR uni24A0
ENCODING 9376
SWIDTH 1080 0
DWIDTH 18 0
BBX 18 18 0 -3
BITMAP
000000
000000
0C0C00
100200
200100
200100
23E100
241100
241100
27F100
240100
241100
23E100
200100
100200
0C0C00
000000
000000
ENDCHAR
STARTCHAR uni24A1
ENCODING 9377
SWIDTH 1080 0
DWIDTH 18 0
BBX 18 18 0 -3
BITMAP
000000
000000
0C0C00
106200
20B100
208100
23E100
208100
208100
208100
208100
208100
21C100
200100
100200
0C0C00
000000
000000
ENDCHAR
STARTCHAR uni24A2
ENCODING 9378
SWIDTH 1080 0
DWIDTH 18 0
BBX 18 18 0 -3
BITMAP
000000
000000
0C0C00
100200
200100
201900
21E100
221100
221100
27E100
240100
23F100
240900
240900
13F200
0C0C00
000000
000000
ENDCHAR
STARTCHAR uni24A3
ENCODING 9379
SWIDTH 1080 0
DWIDTH 18 0
BBX 18 18 0 -3
BITMAP
000000
000000
0C0C00
120200
260100
220100
227100
239100
221100
221100
221100
221100
273900
200100
100200
0C0C00
000000
000000
ENDCHAR
STARTCHAR uni24A4
ENCODING 9380
SWIDTH 1080 0
DWIDTH 18 0
BBX 18 18 0 -3
BITMAP
000000
000000
0C4C00
104200
200100
200100
204100
20C100
204100
204100
204100
204100
20E100
200100
100200
0C0C00
000000
000000
ENDCHAR
STARTCHAR uni24A5
ENCODING 9381
SWIDTH 1080 0
DWIDTH 18 0
BBX 18 18 0 -3
BITMAP
000000
000000
0C4C00
104200
200100
200100
204100
20C100
204100
204100
204100
204100
204100
224100
118200
0C0C00
000000
000000
ENDCHAR
STARTCHAR uni24A6
ENCODING 9382
SWIDTH 1080 0
DWIDTH 18 0
BBX 18 18 0 -3
BITMAP
000000
000000
0C0C00
120200
260100
220100
227100
222100
224100
23C100
226100
223100
273900
200100
100200
0C0C00
000000
000000
ENDCHAR
STARTCHAR uni24A7
ENCODING 9383
SWIDTH 1080 0
DWIDTH 18 0
BBX 18 18 0 -3
BITMAP
000000
000000
0C0C00
108200
218100
208100
208100
208100
208100
208100
208100
208100
21C100
200100
100200
0C0C00
000000
000000
ENDCHAR
STARTCHAR uni24A8
ENCODING 9384
SWIDTH 1080 0
DWIDTH 18 0
BBX 18 18 0 -3
BITMAP
000000
000000
0C0C00
100200
200100
200100
25B100
2ED100
249100
249100
249100
249100
2ED900
200100
100200
0C0C00
000000
000000
ENDCHAR
STARTCHAR uni24A9
ENCODING 9385
SWIDTH 1080 0
DWIDTH 18 0
BBX 18 18 0 -3
BITMAP
000000
000000
0C0C00
100200
200100
200100
227100
279100
221100
221100
221100
221100
273900
200100
100200
0C0C00
000000
000000
ENDCHAR
STARTCHAR uni24AA
ENCODING 9386
SWIDTH 1080 0
DWIDTH 18 0
BBX 18 18 0 -3
BITMAP
000000
000000
0C0C00
100200
200100
200100
23E100
241100
241100
241100
241100
241100
23E100
200100
100200
0C0C00
000000
000000
ENDCHAR
STARTCHAR uni24AB
ENCODING 9387
SWIDTH 1080 0
DWIDTH 18 0
BBX 18 18 0 -3
BITMAP
000000
000000
0C0C00
100200
200100
200100
22E100
271100
220900
220900
220900
231100
22E100
220100
170200
0C0C00
000000
000000
ENDCHAR
STARTCHAR uni24AC
ENCODING 9388
SWIDTH 1080 0
DWIDTH 18 0
BBX 18 18 0 -3
BITMAP
000000
000000
0C0C00
100200
200100
200100
21D100
223100
241100
241100
241100
223100
21D100
201100
103A00
0C0C00
000000
000000
ENDCHAR
STARTCHAR uni24AD
ENCODING 9389
SWIDTH 1080 0
DWIDTH 18 0
BBX 18 18 0 -3
BITMAP
000000
000000
0C0C00
100200
200100
200100
227100
279900
220100
220100
220100
220100
270100
200100
100200
0C0C00
000000
000000
ENDCHAR
STARTCHAR uni24AE
ENCODING 9390
SWIDTH 1080 0
DWIDTH 18 0
BBX 18 18 0 -3
BITMAP
000000
000000
0C0C00
100200
200100
200100
21F100
220900
220100
21F100
200900
220900
21F100
200100
100200
0C0C00
000000
000000
ENDCHAR
STARTCHAR uni24AF
ENCODING 9391
SWIDTH 1080 0
DWIDTH 18 0
BBX 18 18 0 -3
BITMAP
000000
000000
0C0C00
100200
200100
208100
208100
23E100
208100
208100
208100
209100
20E100
200100
100200
0C0C00
000000
000000
ENDCHAR
STARTCHAR uni24B0
ENCODING 9392
SWIDTH 1080 0
DWIDTH 18 0
BBX 18 18 0 -3
BITMAP
000000
000000
0C0C00
100200
200100
200100
221100
263100
221100
221100
221100
223100
23D900
200100
100200
0C0C00
000000
000000
ENDCHAR
STARTCHAR uni24B1
ENCODING 9393
SWIDTH 1080 0
DWIDTH 18 0
BBX 18 18 0 -3
BITMAP
000000
000000
0C0C00
100200
200100
200100
271D00
220900
211100
211100
20A100
20A100
204100
200100
100200
0C0C00
000000
000000
ENDCHAR
STARTCHAR uni24B2
ENCODING 9394
SWIDTH 1080 0
DWIDTH 18 0
BBX 18 18 0 -3
BITMAP
000000
000000
0C0C00
100200
200100
200100
2FDD00
248900
248900
225100
22D100
212100
212100
200100
100200
0C0C00
000000
000000
ENDCHAR
STARTCHAR uni24B3
ENCODING 9395
SWIDTH 1080 0
DWIDTH 18 0
BBX 18 18 0 -3
BITMAP
000000
000000
0C0C00
100200
200100
200100
273900
221100
212100
20C100
212100
221100
273900
200100
100200
0C0C00
000000
000000
ENDCHAR
STARTCHAR uni24B4
ENCODING 9396
SWIDTH 1080 0
DWIDTH 18 0
BBX 18 18 0 -3
BITMAP
000000
000000
0C0C00
100200
200100
200100
2E3900
241100
222100
214100
208100
208100
21C100
200100
100200
0C0C00
000000
000000
ENDCHAR
STARTCHAR uni24B5
ENCODING 9397
SWIDTH 1080 0
DWIDTH 18 0
BBX 18 18 0 -3
BITMAP
000000
000000
0C0C00
100200
200100
200100
21F900
211100
222100
204100
208100
210900
23F100
200100
100200
0C0C00
000000
000000
ENDCHAR
STARTCHAR uni24D0
ENCODING 9424
SWIDTH 1080 0
DWIDTH 18 0
BBX 18 18 0 -3
BITMAP
000000
000000
07F800
080400
100200
200100
23E100
241100
201100
23F100
241100
241100
23ED00
100200
080400
07F800
000000
000000
ENDCHAR
STARTCHAR uni24D1
ENCODING 9425
SWIDTH 1080 0
DWIDTH 18 0
BBX 18 18 0 -3
BITMAP
000000
000000
07F800
0A0400
160200
220100
22E100
231100
220900
220900
220900
231100
26E100
100200
080400
07F800
000000
000000
ENDCHAR
STARTCHAR uni24D2
ENCODING 9426
SWIDTH 1080 0
DWIDTH 18 0
BBX 18 18 0 -3
BITMAP
000000
000000
07F800
080400
100200
200100
21E100
221100
240100
240100
240100
221900
21E100
100200
080400
07F800
000000
000000
ENDCHAR
STARTCHAR uni24D3
ENCODING 9427
SWIDTH 1080 0
DWIDTH 18 0
BBX 18 18 0 -3
BITMAP
000000
000000
07F800
081400
103200
201100
21D100
223100
241100
241100
241100
241100
23E900
100200
080400
07F800
000000
000000
ENDCHAR
STARTCHAR uni24D4
ENCODING 9428
SWIDTH 1080 0
DWIDTH 18 0
BBX 18 18 0 -3
BITMAP
000000
000000
07F800
080400
100200
200100
21E100
221100
240900
27F900
240100
220900
21F100
100200
080400
07F800
000000
000000
ENDCHAR
STARTCHAR uni24D5
ENCODING 9429
SWIDTH 1080 0
DWIDTH 18 0
BBX 18 18 0 -3
BITMAP
000000
000000
07F800
08E400
10B200
208100
23E100
208100
208100
208100
208100
208100
21C100
100200
080400
07F800
000000
000000
ENDCHAR
STARTCHAR uni24D6
ENCODING 9430
SWIDTH 1080 0
DWIDTH 18 0
BBX 18 18 0 -3
BITMAP
000000
000000
07F800
080400
100200
203100
21E100
221100
221100
23E100
240100
27F100
240900
140A00
0BF400
07F800
000000
000000
ENDCHAR
STARTCHAR uni24D7
ENCODING 9431
SWIDTH 1080 0
DWIDTH 18 0
BBX 18 18 0 -3
BITMAP
000000
000000
07F800
0A0400
160200
220100
22F100
231100
221100
221100
221100
221100
273900
100200
080400
07F800
000000
000000
ENDCHAR
STARTCHAR uni24D8
ENCODING 9432
SWIDTH 1080 0
DWIDTH 18 0
BBX 18 18 0 -3
BITMAP
000000
000000
07F800
084400
104200
200100
204100
20C100
204100
204100
204100
204100
20E100
100200
080400
07F800
000000
000000
ENDCHAR
STARTCHAR uni24D9
ENCODING 9433
SWIDTH 1080 0
DWIDTH 18 0
BBX 18 18 0 -3
BITMAP
000000
000000
07F800
084400
104200
200100
204100
20C100
204100
204100
204100
204100
204100
164200
098400
07F800
000000
000000
ENDCHAR
STARTCHAR uni24DA
ENCODING 9434
SWIDTH 1080 0
DWIDTH 18 0
BBX 18 18 0 -3
BITMAP
000000
000000
07F800
0A0400
160200
220100
227900
222100
22C100
236100
223100
221900
273D00
100200
080400
07F800
000000
000000
ENDCHAR
STARTCHAR uni24DB
ENCODING 9435
SWIDTH 1080 0
DWIDTH 18 0
BBX 18 18 0 -3
BITMAP
000000
000000
07F800
088400
118200
208100
208100
208100
208100
208100
208100
208100
21C100
100200
080400
07F800
000000
000000
ENDCHAR
STARTCHAR uni24DC
ENCODING 9436
SWIDTH 1080 0
DWIDTH 18 0
BBX 18 18 0 -3
BITMAP
000000
000000
07F800
080400
100200
200100
25B100
2ED100
249100
249100
249100
249100
2ED900
100200
080400
07F800
000000
000000
ENDCHAR
STARTCHAR uni24DD
ENCODING 9437
SWIDTH 1080 0
DWIDTH 18 0
BBX 18 18 0 -3
BITMAP
000000
000000
07F800
080400
100200
200100
22F100
271100
221100
221100
221100
221100
273900
100200
080400
07F800
000000
000000
ENDCHAR
STARTCHAR uni24DE
ENCODING 9438
SWIDTH 1080 0
DWIDTH 18 0
BBX 18 18 0 -3
BITMAP
000000
000000
07F800
080400
100200
200100
21F100
220900
220900
220900
220900
220900
21F100
100200
080400
07F800
000000
000000
ENDCHAR
STARTCHAR uni24DF
ENCODING 9439
SWIDTH 1080 0
DWIDTH 18 0
BBX 18 18 0 -3
BITMAP
000000
000000
07F800
080400
100200
200100
22E100
271100
220900
220900
220900
231100
22E100
120200
0A0400
07F800
000000
000000
ENDCHAR
STARTCHAR uni24E0
ENCODING 9440
SWIDTH 1080 0
DWIDTH 18 0
BBX 18 18 0 -3
BITMAP
000000
000000
07F800
080400
100200
200100
21D100
223100
241100
241100
241100
223100
21D100
101200
081400
07F800
000000
000000
ENDCHAR
STARTCHAR uni24E1
ENCODING 9441
SWIDTH 1080 0
DWIDTH 18 0
BBX 18 18 0 -3
BITMAP
000000
000000
07F800
080400
100200
200100
227100
279900
220100
220100
220100
220100
270100
100200
080400
07F800
000000
000000
ENDCHAR
STARTCHAR uni24E2
ENCODING 9442
SWIDTH 1080 0
DWIDTH 18 0
BBX 18 18 0 -3
BITMAP
000000
000000
07F800
080400
100200
200100
21F100
220900
230100
20E100
201900
220900
21F100
100200
080400
07F800
000000
000000
ENDCHAR
STARTCHAR uni24E3
ENCODING 9443
SWIDTH 1080 0
DWIDTH 18 0
BBX 18 18 0 -3
BITMAP
000000
000000
07F800
080400
100200
208100
208100
23E100
208100
208100
208100
209100
20E100
100200
080400
07F800
000000
000000
ENDCHAR
STARTCHAR uni24E4
ENCODING 9444
SWIDTH 1080 0
DWIDTH 18 0
BBX 18 18 0 -3
BITMAP
000000
000000
07F800
080400
100200
200100
221100
263100
221100
221100
221100
221100
23E900
100200
080400
07F800
000000
000000
ENDCHAR
STARTCHAR uni24E5
ENCODING 9445
SWIDTH 1080 0
DWIDTH 18 0
BBX 18 18 0 -3
BITMAP
000000
000000
07F800
080400
100200
200100
271D00
220900
211100
211100
20A100
20A100
204100
100200
080400
07F800
000000
000000
ENDCHAR
STARTCHAR uni24E6
ENCODING 9446
SWIDTH 1080 0
DWIDTH 18 0
BBX 18 18 0 -3
BITMAP
000000
000000
07F800
080400
100200
200100
3DDD00
288900
288900
24D100
255100
222100
222100
100200
080400
07F800
000000
000000
ENDCHAR
STARTCHAR uni24E7
ENCODING 9447
SWIDTH 1080 0
DWIDTH 18 0
BBX 18 18 0 -3
BITMAP
000000
000000
07F800
080400
100200
200100
2E3900
222100
214100
208100
214100
222100
2E3900
100200
080400
07F800
000000
000000
ENDCHAR
STARTCHAR uni24E8
ENCODING 9448
SWIDTH 1080 0
DWIDTH 18 0
BBX 18 18 0 -3
BITMAP
000000
000000
07F800
080400
100200
200100
2E3900
241100
222100
214100
208100
208100
21C100
100200
080400
07F800
000000
000000
ENDCHAR
STARTCHAR uni24E9
ENCODING 9449
SWIDTH 1080 0
DWIDTH 18 0
BBX 18 18 0 -3
BITMAP
000000
000000
07F800
080400
100200
200100
23F100
221100
242100
20C100
210100
221100
27E100
100200
080400
07F800
000000
000000
ENDCHAR
STARTCHAR SF100000
ENCODING 9472
SWIDTH 1080 0
DWIDTH 18 0
BBX 18 18 0 -3
BITMAP
000000
000000
000000
000000
000000
000000
000000
000000
FFFFC0
000000
000000
000000
000000
000000
000000
000000
000000
000000
ENDCHAR
STARTCHAR uni2501
ENCODING 9473
SWIDTH 1080 0
DWIDTH 18 0
BBX 18 18 0 -3
BITMAP
000000
000000
000000
000000
000000
000000
000000
000000
FFFFC0
FFFFC0
000000
000000
000000
000000
000000
000000
000000
000000
ENDCHAR
STARTCHAR SF110000
ENCODING 9474
SWIDTH 1080 0
DWIDTH 18 0
BBX 18 18 0 -3
BITMAP
008000
008000
008000
008000
008000
008000
008000
008000
008000
008000
008000
008000
008000
008000
008000
008000
008000
008000
ENDCHAR
STARTCHAR uni2503
ENCODING 9475
SWIDTH 1080 0
DWIDTH 18 0
BBX 18 18 0 -3
BITMAP
00C000
00C000
00C000
00C000
00C000
00C000
00C000
00C000
00C000
00C000
00C000
00C000
00C000
00C000
00C000
00C000
00C000
00C000
ENDCHAR
STARTCHAR uni2504
ENCODING 9476
SWIDTH 1080 0
DWIDTH 18 0
BBX 18 18 0 -3
BITMAP
000000
000000
000000
000000
000000
000000
000000
000000
71C700
000000
000000
000000
000000
000000
000000
000000
000000
000000
ENDCHAR
STARTCHAR uni2505
ENCODING 9477
SWIDTH 1080 0
DWIDTH 18 0
BBX 18 18 0 -3
BITMAP
000000
000000
000000
000000
000000
000000
000000
000000
71C700
71C700
000000
000000
000000
000000
000000
000000
000000
000000
ENDCHAR
STARTCHAR uni2506
ENCODING 9478
SWIDTH 1080 0
DWIDTH 18 0
BBX 18 18 0 -3
BITMAP
000000
008000
008000
008000
000000
000000
000000
008000
008000
008000
000000
000000
000000
008000
008000
008000
000000
000000
ENDCHAR
STARTCHAR uni2507
ENCODING 9479
SWIDTH 1080 0
DWIDTH 18 0
BBX 18 18 0 -3
BITMAP
000000
00C000
00C000
00C000
000000
000000
000000
00C000
00C000
00C000
000000
000000
000000
00C000
00C000
00C000
000000
000000
ENDCHAR
STARTCHAR uni2508
ENCODING 9480
SWIDTH 1080 0
DWIDTH 18 0
BBX 18 18 0 -3
BITMAP
000000
000000
000000
000000
000000
000000
000000
000000
773B80
000000
000000
000000
000000
000000
000000
000000
000000
000000
ENDCHAR
STARTCHAR uni2509
ENCODING 9481
SWIDTH 1080 0
DWIDTH 18 0
BBX 18 18 0 -3
BITMAP
000000
000000
000000
000000
000000
000000
000000
000000
773B80
773B80
000000
000000
000000
000000
000000
000000
000000
000000
ENDCHAR
STARTCHAR uni250A
ENCODING 9482
SWIDTH 1080 0
DWIDTH 18 0
BBX 18 18 0 -3
BITMAP
000000
008000
008000
008000
000000
008000
008000
008000
000000
000000
008000
008000
008000
000000
008000
008000
008000
000000
ENDCHAR
STARTCHAR uni250B
ENCODING 9483
SWIDTH 1080 0
DWIDTH 18 0
BBX 18 18 0 -3
BITMAP
000000
00C000
00C000
00C000
000000
00C000
00C000
00C000
000000
000000
00C000
00C000
00C000
000000
00C000
00C000
00C000
000000
ENDCHAR
STARTCHAR SF010000
ENCODING 9484
SWIDTH 1080 0
DWIDTH 18 0
BBX 18 18 0 -3
BITMAP
000000
000000
000000
000000
000000
000000
000000
000000
00FFC0
008000
008000
008000
008000
008000
008000
008000
008000
008000
ENDCHAR
STARTCHAR uni250D
ENCODING 9485
SWIDTH 1080 0
DWIDTH 18 0
BBX 18 18 0 -3
BITMAP
000000
000000
000000
000000
000000
000000
000000
000000
00FFC0
00FFC0
008000
008000
008000
008000
008000
008000
008000
008000
ENDCHAR
STARTCHAR uni250E
ENCODING 9486
SWIDTH 1080 0
DWIDTH 18 0
BBX 18 18 0 -3
BITMAP
000000
000000
000000
000000
000000
000000
000000
000000
00FFC0
00C000
00C000
00C000
00C000
00C000
00C000
00C000
00C000
00C000
ENDCHAR
STARTCHAR uni250F
ENCODING 9487
SWIDTH 1080 0
DWIDTH 18 0
BBX 18 18 0 -3
BITMAP
000000
000000
000000
000000
000000
000000
000000
000000
00FFC0
00FFC0
00C000
00C000
00C000
00C000
00C000
00C000
00C000
00C000
ENDCHAR
STARTCHAR SF030000
ENCODING 9488
SWIDTH 1080 0
DWIDTH 18 0
BBX 18 18 0 -3
BITMAP
000000
000000
000000
000000
000000
000000
000000
000000
FF8000
008000
008000
008000
008000
008000
008000
008000
008000
008000
ENDCHAR
STARTCHAR uni2511
ENCODING 9489
SWIDTH 1080 0
DWIDTH 18 0
BBX 18 18 0 -3
BITMAP
000000
000000
000000
000000
000000
000000
000000
000000
FF8000
FF8000
008000
008000
008000
008000
008000
008000
008000
008000
ENDCHAR
STARTCHAR uni2512
ENCODING 9490
SWIDTH 1080 0
DWIDTH 18 0
BBX 18 18 0 -3
BITMAP
000000
000000
000000
000000
000000
000000
000000
000000
FFC000
00C000
00C000
00C000
00C000
00C000
00C000
00C000
00C000
00C000
ENDCHAR
STARTCHAR uni2513
ENCODING 9491
SWIDTH 1080 0
DWIDTH 18 0
BBX 18 18 0 -3
BITMAP
000000
000000
000000
000000
000000
000000
000000
000000
FFC000
FFC000
00C000
00C000
00C000
00C000
00C000
00C000
00C000
00C000
ENDCHAR
STARTCHAR SF020000
ENCODING 9492
SWIDTH 1080 0
DWIDTH 18 0
BBX 18 18 0 -3
BITMAP
008000
008000
008000
008000
008000
008000
008000
008000
00FFC0
000000
000000
000000
000000
000000
000000
000000
000000
000000
ENDCHAR
STARTCHAR uni2515
ENCODING 9493
SWIDTH 1080 0
DWIDTH 18 0
BBX 18 18 0 -3
BITMAP
008000
008000
008000
008000
008000
008000
008000
008000
00FFC0
00FFC0
000000
000000
000000
000000
000000
000000
000000
000000
ENDCHAR
STARTCHAR uni2516
ENCODING 9494
SWIDTH 1080 0
DWIDTH 18 0
BBX 18 18 0 -3
BITMAP
00C000
00C000
00C000
00C000
00C000
00C000
00C000
00C000
00FFC0
000000
000000
000000
000000
000000
000000
000000
000000
000000
ENDCHAR
STARTCHAR uni2517
ENCODING 9495
SWIDTH 1080 0
DWIDTH 18 0
BBX 18 18 0 -3
BITMAP
00C000
00C000
00C000
00C000
00C000
00C000
00C000
00C000
00FFC0
00FFC0
000000
000000
000000
000000
000000
000000
000000
000000
ENDCHAR
STARTCHAR SF040000
ENCODING 9496
SWIDTH 1080 0
DWIDTH 18 0
BBX 18 18 0 -3
BITMAP
008000
008000
008000
008000
008000
008000
008000
008000
FF8000
000000
000000
000000
000000
000000
000000
000000
000000
000000
ENDCHAR
STARTCHAR uni2519
ENCODING 9497
SWIDTH 1080 0
DWIDTH 18 0
BBX 18 18 0 -3
BITMAP
008000
008000
008000
008000
008000
008000
008000
008000
FF8000
FF8000
000000
000000
000000
000000
000000
000000
000000
000000
ENDCHAR
STARTCHAR uni251A
ENCODING 9498
SWIDTH 1080 0
DWIDTH 18 0
BBX 18 18 0 -3
BITMAP
00C000
00C000
00C000
00C000
00C000
00C000
00C000
00C000
FFC000
000000
000000
000000
000000
000000
000000
000000
000000
000000
ENDCHAR
STARTCHAR uni251B
ENCODING 9499
SWIDTH 1080 0
DWIDTH 18 0
BBX 18 18 0 -3
BITMAP
00C000
00C000
00C000
00C000
00C000
00C000
00C000
00C000
FFC000
FFC000
000000
000000
000000
000000
000000
000000
000000
000000
ENDCHAR
STARTCHAR SF080000
ENCODING 9500
SWIDTH 1080 0
DWIDTH 18 0
BBX 18 18 0 -3
BITMAP
008000
008000
008000
008000
008000
008000
008000
008000
00FFC0
008000
008000
008000
008000
008000
008000
008000
008000
008000
ENDCHAR
STARTCHAR uni251D
ENCODING 9501
SWIDTH 1080 0
DWIDTH 18 0
BBX 18 18 0 -3
BITMAP
008000
008000
008000
008000
008000
008000
008000
008000
00FFC0
00FFC0
008000
008000
008000
008000
008000
008000
008000
008000
ENDCHAR
STARTCHAR uni251E
ENCODING 9502
SWIDTH 1080 0
DWIDTH 18 0
BBX 18 18 0 -3
BITMAP
00C000
00C000
00C000
00C000
00C000
00C000
00C000
00C000
00FFC0
008000
008000
008000
008000
008000
008000
008000
008000
008000
ENDCHAR
STARTCHAR uni251F
ENCODING 9503
SWIDTH 1080 0
DWIDTH 18 0
BBX 18 18 0 -3
BITMAP
008000
008000
008000
008000
008000
008000
008000
008000
00FFC0
00C000
00C000
00C000
00C000
00C000
00C000
00C000
00C000
00C000
ENDCHAR
STARTCHAR uni2520
ENCODING 9504
SWIDTH 1080 0
DWIDTH 18 0
BBX 18 18 0 -3
BITMAP
00C000
00C000
00C000
00C000
00C000
00C000
00C000
00C000
00FFC0
00C000
00C000
00C000
00C000
00C000
00C000
00C000
00C000
00C000
ENDCHAR
STARTCHAR uni2521
ENCODING 9505
SWIDTH 1080 0
DWIDTH 18 0
BBX 18 18 0 -3
BITMAP
00C000
00C000
00C000
00C000
00C000
00C000
00C000
00C000
00FFC0
00FFC0
008000
008000
008000
008000
008000
008000
008000
008000
ENDCHAR
STARTCHAR uni2522
ENCODING 9506
SWIDTH 1080 0
DWIDTH 18 0
BBX 18 18 0 -3
BITMAP
008000
008000
008000
008000
008000
008000
008000
008000
00FFC0
00FFC0
00C000
00C000
00C000
00C000
00C000
00C000
00C000
00C000
ENDCHAR
STARTCHAR uni2523
ENCODING 9507
SWIDTH 1080 0
DWIDTH 18 0
BBX 18 18 0 -3
BITMAP
00C000
00C000
00C000
00C000
00C000
00C000
00C000
00C000
00FFC0
00FFC0
00C000
00C000
00C000
00C000
00C000
00C000
00C000
00C000
ENDCHAR
STARTCHAR SF090000
ENCODING 9508
SWIDTH 1080 0
DWIDTH 18 0
BBX 18 18 0 -3
BITMAP
008000
008000
008000
008000
008000
008000
008000
008000
FF8000
008000
008000
008000
008000
008000
008000
008000
008000
008000
ENDCHAR
STARTCHAR uni2525
ENCODING 9509
SWIDTH 1080 0
DWIDTH 18 0
BBX 18 18 0 -3
BITMAP
008000
008000
008000
008000
008000
008000
008000
008000
FF8000
FF8000
008000
008000
008000
008000
008000
008000
008000
008000
ENDCHAR
STARTCHAR uni2526
ENCODING 9510
SWIDTH 1080 0
DWIDTH 18 0
BBX 18 18 0 -3
BITMAP
00C000
00C000
00C000
00C000
00C000
00C000
00C000
00C000
FFC000
008000
008000
008000
008000
008000
008000
008000
008000
008000
ENDCHAR
STARTCHAR uni2527
ENCODING 9511
SWIDTH 1080 0
DWIDTH 18 0
BBX 18 18 0 -3
BITMAP
008000
008000
008000
008000
008000
008000
008000
008000
FFC000
00C000
00C000
00C000
00C000
00C000
00C000
00C000
00C000
00C000
ENDCHAR
STARTCHAR uni2528
ENCODING 9512
SWIDTH 1080 0
DWIDTH 18 0
BBX 18 18 0 -3
BITMAP
00C000
00C000
00C000
00C000
00C000
00C000
00C000
00C000
FFC000
00C000
00C000
00C000
00C000
00C000
00C000
00C000
00C000
00C000
ENDCHAR
STARTCHAR uni2529
ENCODING 9513
SWIDTH 1080 0
DWIDTH 18 0
BBX 18 18 0 -3
BITMAP
00C000
00C000
00C000
00C000
00C000
00C000
00C000
00C000
FFC000
FFC000
008000
008000
008000
008000
008000
008000
008000
008000
ENDCHAR
STARTCHAR uni252A
ENCODING 9514
SWIDTH 1080 0
DWIDTH 18 0
BBX 18 18 0 -3
BITMAP
008000
008000
008000
008000
008000
008000
008000
008000
FFC000
FFC000
00C000
00C000
00C000
00C000
00C000
00C000
00C000
00C000
ENDCHAR
STARTCHAR uni252B
ENCODING 9515
SWIDTH 1080 0
DWIDTH 18 0
BBX 18 18 0 -3
BITMAP
00C000
00C000
00C000
00C000
00C000
00C000
00C000
00C000
FFC000
FFC000
00C000
00C000
00C000
00C000
00C000
00C000
00C000
00C000
ENDCHAR
STARTCHAR SF060000
ENCODING 9516
SWIDTH 1080 0
DWIDTH 18 0
BBX 18 18 0 -3
BITMAP
000000
000000
000000
000000
000000
000000
000000
000000
FFFFC0
008000
008000
008000
008000
008000
008000
008000
008000
008000
ENDCHAR
STARTCHAR uni252D
ENCODING 9517
SWIDTH 1080 0
DWIDTH 18 0
BBX 18 18 0 -3
BITMAP
000000
000000
000000
000000
000000
000000
000000
000000
FFFFC0
FF8000
008000
008000
008000
008000
008000
008000
008000
008000
ENDCHAR
STARTCHAR uni252E
ENCODING 9518
SWIDTH 1080 0
DWIDTH 18 0
BBX 18 18 0 -3
BITMAP
000000
000000
000000
000000
000000
000000
000000
000000
FFFFC0
00FFC0
008000
008000
008000
008000
008000
008000
008000
008000
ENDCHAR
STARTCHAR uni252F
ENCODING 9519
SWIDTH 1080 0
DWIDTH 18 0
BBX 18 18 0 -3
BITMAP
000000
000000
000000
000000
000000
000000
000000
000000
FFFFC0
FFFFC0
008000
008000
008000
008000
008000
008000
008000
008000
ENDCHAR
STARTCHAR uni2530
ENCODING 9520
SWIDTH 1080 0
DWIDTH 18 0
BBX 18 18 0 -3
BITMAP
000000
000000
000000
000000
000000
000000
000000
000000
FFFFC0
00C000
00C000
00C000
00C000
00C000
00C000
00C000
00C000
00C000
ENDCHAR
STARTCHAR uni2531
ENCODING 9521
SWIDTH 1080 0
DWIDTH 18 0
BBX 18 18 0 -3
BITMAP
000000
000000
000000
000000
000000
000000
000000
000000
FFFFC0
FF8000
018000
018000
018000
018000
018000
018000
018000
018000
ENDCHAR
STARTCHAR uni2532
ENCODING 9522
SWIDTH 1080 0
DWIDTH 18 0
BBX 18 18 0 -3
BITMAP
000000
000000
000000
000000
000000
000000
000000
000000
FFFFC0
00FFC0
00C000
00C000
00C000
00C000
00C000
00C000
00C000
00C000
ENDCHAR
STARTCHAR uni2533
ENCODING 9523
SWIDTH 1080 0
DWIDTH 18 0
BBX 18 18 0 -3
BITMAP
000000
000000
000000
000000
000000
000000
000000
000000
FFFFC0
FFFFC0
00C000
00C000
00C000
00C000
00C000
00C000
00C000
00C000
ENDCHAR
STARTCHAR SF070000
ENCODING 9524
SWIDTH 1080 0
DWIDTH 18 0
BBX 18 18 0 -3
BITMAP
008000
008000
008000
008000
008000
008000
008000
008000
FFFFC0
000000
000000
000000
000000
000000
000000
000000
000000
000000
ENDCHAR
STARTCHAR uni2535
ENCODING 9525
SWIDTH 1080 0
DWIDTH 18 0
BBX 18 18 0 -3
BITMAP
008000
008000
008000
008000
008000
008000
008000
008000
FFFFC0
FF8000
000000
000000
000000
000000
000000
000000
000000
000000
ENDCHAR
STARTCHAR uni2536
ENCODING 9526
SWIDTH 1080 0
DWIDTH 18 0
BBX 18 18 0 -3
BITMAP
008000
008000
008000
008000
008000
008000
008000
008000
FFFFC0
00FFC0
000000
000000
000000
000000
000000
000000
000000
000000
ENDCHAR
STARTCHAR uni2537
ENCODING 9527
SWIDTH 1080 0
DWIDTH 18 0
BBX 18 18 0 -3
BITMAP
008000
008000
008000
008000
008000
008000
008000
008000
FFFFC0
FFFFC0
000000
000000
000000
000000
000000
000000
000000
000000
ENDCHAR
STARTCHAR uni2538
ENCODING 9528
SWIDTH 1080 0
DWIDTH 18 0
BBX 18 18 0 -3
BITMAP
00C000
00C000
00C000
00C000
00C000
00C000
00C000
00C000
FFFFC0
000000
000000
000000
000000
000000
000000
000000
000000
000000
ENDCHAR
STARTCHAR uni2539
ENCODING 9529
SWIDTH 1080 0
DWIDTH 18 0
BBX 18 18 0 -3
BITMAP
00C000
00C000
00C000
00C000
00C000
00C000
00C000
00C000
FFFFC0
FFC000
000000
000000
000000
000000
000000
000000
000000
000000
ENDCHAR
STARTCHAR uni253A
ENCODING 9530
SWIDTH 1080 0
DWIDTH 18 0
BBX 18 18 0 -3
BITMAP
00C000
00C000
00C000
00C000
00C000
00C000
00C000
00C000
FFFFC0
00FFC0
000000
000000
000000
000000
000000
000000
000000
000000
ENDCHAR
STARTCHAR uni253B
ENCODING 9531
SWIDTH 1080 0
DWIDTH 18 0
BBX 18 18 0 -3
BITMAP
00C000
00C000
00C000
00C000
00C000
00C000
00C000
00C000
FFFFC0
FFFFC0
000000
000000
000000
000000
000000
000000
000000
000000
ENDCHAR
STARTCHAR SF050000
ENCODING 9532
SWIDTH 1080 0
DWIDTH 18 0
BBX 18 18 0 -3
BITMAP
008000
008000
008000
008000
008000
008000
008000
008000
FFFFC0
008000
008000
008000
008000
008000
008000
008000
008000
008000
ENDCHAR
STARTCHAR uni253D
ENCODING 9533
SWIDTH 1080 0
DWIDTH 18 0
BBX 18 18 0 -3
BITMAP
008000
008000
008000
008000
008000
008000
008000
008000
FFFFC0
FF8000
008000
008000
008000
008000
008000
008000
008000
008000
ENDCHAR
STARTCHAR uni253E
ENCODING 9534
SWIDTH 1080 0
DWIDTH 18 0
BBX 18 18 0 -3
BITMAP
008000
008000
008000
008000
008000
008000
008000
008000
FFFFC0
00FFC0
008000
008000
008000
008000
008000
008000
008000
008000
ENDCHAR
STARTCHAR uni253F
ENCODING 9535
SWIDTH 1080 0
DWIDTH 18 0
BBX 18 18 0 -3
BITMAP
008000
008000
008000
008000
008000
008000
008000
008000
FFFFC0
FFFFC0
008000
008000
008000
008000
008000
008000
008000
008000
ENDCHAR
STARTCHAR uni2540
ENCODING 9536
SWIDTH 1080 0
DWIDTH 18 0
BBX 18 18 0 -3
BITMAP
00C000
00C000
00C000
00C000
00C000
00C000
00C000
00C000
FFFFC0
008000
008000
008000
008000
008000
008000
008000
008000
008000
ENDCHAR
STARTCHAR uni2541
ENCODING 9537
SWIDTH 1080 0
DWIDTH 18 0
BBX 18 18 0 -3
BITMAP
008000
008000
008000
008000
008000
008000
008000
008000
FFFFC0
00C000
00C000
00C000
00C000
00C000
00C000
00C000
00C000
00C000
ENDCHAR
STARTCHAR uni2542
ENCODING 9538
SWIDTH 1080 0
DWIDTH 18 0
BBX 18 18 0 -3
BITMAP
00C000
00C000
00C000
00C000
00C000
00C000
00C000
00C000
FFFFC0
00C000
00C000
00C000
00C000
00C000
00C000
00C000
00C000
00C000
ENDCHAR
STARTCHAR uni2543
ENCODING 9539
SWIDTH 1080 0
DWIDTH 18 0
BBX 18 18 0 -3
BITMAP
00C000
00C000
00C000
00C000
00C000
00C000
00C000
00C000
FFFFC0
FFC000
008000
008000
008000
008000
008000
008000
008000
008000
ENDCHAR
STARTCHAR uni2544
ENCODING 9540
SWIDTH 1080 0
DWIDTH 18 0
BBX 18 18 0 -3
BITMAP
00C000
00C000
00C000
00C000
00C000
00C000
00C000
00C000
FFFFC0
00FFC0
008000
008000
008000
008000
008000
008000
008000
008000
ENDCHAR
STARTCHAR uni2545
ENCODING 9541
SWIDTH 1080 0
DWIDTH 18 0
BBX 18 18 0 -3
BITMAP
008000
008000
008000
008000
008000
008000
008000
008000
FFFFC0
FFC000
00C000
00C000
00C000
00C000
00C000
00C000
00C000
00C000
ENDCHAR
STARTCHAR uni2546
ENCODING 9542
SWIDTH 1080 0
DWIDTH 18 0
BBX 18 18 0 -3
BITMAP
008000
008000
008000
008000
008000
008000
008000
008000
FFFFC0
00FFC0
00C000
00C000
00C000
00C000
00C000
00C000
00C000
00C000
ENDCHAR
STARTCHAR uni2547
ENCODING 9543
SWIDTH 1080 0
DWIDTH 18 0
BBX 18 18 0 -3
BITMAP
00C000
00C000
00C000
00C000
00C000
00C000
00C000
00C000
FFFFC0
FFFFC0
008000
008000
008000
008000
008000
008000
008000
008000
ENDCHAR
STARTCHAR uni2548
ENCODING 9544
SWIDTH 1080 0
DWIDTH 18 0
BBX 18 18 0 -3
BITMAP
008000
008000
008000
008000
008000
008000
008000
008000
FFFFC0
FFFFC0
00C000
00C000
00C000
00C000
00C000
00C000
00C000
00C000
ENDCHAR
STARTCHAR uni2549
ENCODING 9545
SWIDTH 1080 0
DWIDTH 18 0
BBX 18 18 0 -3
BITMAP
00C000
00C000
00C000
00C000
00C000
00C000
00C000
00C000
FFFFC0
FFC000
00C000
00C000
00C000
00C000
00C000
00C000
00C000
00C000
ENDCHAR
STARTCHAR uni254A
ENCODING 9546
SWIDTH 1080 0
DWIDTH 18 0
BBX 18 18 0 -3
BITMAP
00C000
00C000
00C000
00C000
00C000
00C000
00C000
00C000
FFFFC0
00FFC0
00C000
00C000
00C000
00C000
00C000
00C000
00C000
00C000
ENDCHAR
STARTCHAR uni254B
ENCODING 9547
SWIDTH 1080 0
DWIDTH 18 0
BBX 18 18 0 -3
BITMAP
00C000
00C000
00C000
00C000
00C000
00C000
00C000
00C000
FFFFC0
FFFFC0
00C000
00C000
00C000
00C000
00C000
00C000
00C000
00C000
ENDCHAR
STARTCHAR uni254C
ENCODING 9548
SWIDTH 1080 0
DWIDTH 18 0
BBX 18 18 0 -3
BITMAP
000000
000000
000000
000000
000000
000000
000000
000000
7F3F80
000000
000000
000000
000000
000000
000000
000000
000000
000000
ENDCHAR
STARTCHAR uni254D
ENCODING 9549
SWIDTH 1080 0
DWIDTH 18 0
BBX 18 18 0 -3
BITMAP
000000
000000
000000
000000
000000
000000
000000
000000
7F3F80
7F3F80
000000
000000
000000
000000
000000
000000
000000
000000
ENDCHAR
STARTCHAR uni254E
ENCODING 9550
SWIDTH 1080 0
DWIDTH 18 0
BBX 18 18 0 -3
BITMAP
000000
008000
008000
008000
008000
008000
008000
008000
000000
000000
008000
008000
008000
008000
008000
008000
008000
000000
ENDCHAR
STARTCHAR uni254F
ENCODING 9551
SWIDTH 1080 0
DWIDTH 18 0
BBX 18 18 0 -3
BITMAP
000000
00C000
00C000
00C000
00C000
00C000
00C000
00C000
000000
000000
00C000
00C000
00C000
00C000
00C000
00C000
00C000
000000
ENDCHAR
STARTCHAR SF430000
ENCODING 9552
SWIDTH 1080 0
DWIDTH 18 0
BBX 18 18 0 -3
BITMAP
000000
000000
000000
000000
000000
000000
000000
FFFFC0
000000
FFFFC0
000000
000000
000000
000000
000000
000000
000000
000000
ENDCHAR
STARTCHAR SF240000
ENCODING 9553
SWIDTH 1080 0
DWIDTH 18 0
BBX 18 18 0 -3
BITMAP
014000
014000
014000
014000
014000
014000
014000
014000
014000
014000
014000
014000
014000
014000
014000
014000
014000
014000
ENDCHAR
STARTCHAR SF510000
ENCODING 9554
SWIDTH 1080 0
DWIDTH 18 0
BBX 18 18 0 -3
BITMAP
000000
000000
000000
000000
000000
000000
000000
00FFC0
008000
00FFC0
008000
008000
008000
008000
008000
008000
008000
008000
ENDCHAR
STARTCHAR SF520000
ENCODING 9555
SWIDTH 1080 0
DWIDTH 18 0
BBX 18 18 0 -3
BITMAP
000000
000000
000000
000000
000000
000000
000000
000000
01FFC0
014000
014000
014000
014000
014000
014000
014000
014000
014000
ENDCHAR
STARTCHAR SF390000
ENCODING 9556
SWIDTH 1080 0
DWIDTH 18 0
BBX 18 18 0 -3
BITMAP
000000
000000
000000
000000
000000
000000
000000
01FFC0
010000
017FC0
014000
014000
014000
014000
014000
014000
014000
014000
ENDCHAR
STARTCHAR SF220000
ENCODING 9557
SWIDTH 1080 0
DWIDTH 18 0
BBX 18 18 0 -3
BITMAP
000000
000000
000000
000000
000000
000000
000000
FF8000
008000
FF8000
008000
008000
008000
008000
008000
008000
008000
008000
ENDCHAR
STARTCHAR SF210000
ENCODING 9558
SWIDTH 1080 0
DWIDTH 18 0
BBX 18 18 0 -3
BITMAP
000000
000000
000000
000000
000000
000000
000000
000000
FFC000
014000
014000
014000
014000
014000
014000
014000
014000
014000
ENDCHAR
STARTCHAR SF250000
ENCODING 9559
SWIDTH 1080 0
DWIDTH 18 0
BBX 18 18 0 -3
BITMAP
000000
000000
000000
000000
000000
000000
000000
FFC000
004000
FF4000
014000
014000
014000
014000
014000
014000
014000
014000
ENDCHAR
STARTCHAR SF500000
ENCODING 9560
SWIDTH 1080 0
DWIDTH 18 0
BBX 18 18 0 -3
BITMAP
008000
008000
008000
008000
008000
008000
008000
00FFC0
008000
00FFC0
000000
000000
000000
000000
000000
000000
000000
000000
ENDCHAR
STARTCHAR SF490000
ENCODING 9561
SWIDTH 1080 0
DWIDTH 18 0
BBX 18 18 0 -3
BITMAP
014000
014000
014000
014000
014000
014000
014000
014000
01FFC0
000000
000000
000000
000000
000000
000000
000000
000000
000000
ENDCHAR
STARTCHAR SF380000
ENCODING 9562
SWIDTH 1080 0
DWIDTH 18 0
BBX 18 18 0 -3
BITMAP
014000
014000
014000
014000
014000
014000
014000
017FC0
010000
01FFC0
000000
000000
000000
000000
000000
000000
000000
000000
ENDCHAR
STARTCHAR SF280000
ENCODING 9563
SWIDTH 1080 0
DWIDTH 18 0
BBX 18 18 0 -3
BITMAP
008000
008000
008000
008000
008000
008000
008000
FF8000
008000
FF8000
000000
000000
000000
000000
000000
000000
000000
000000
ENDCHAR
STARTCHAR SF270000
ENCODING 9564
SWIDTH 1080 0
DWIDTH 18 0
BBX 18 18 0 -3
BITMAP
014000
014000
014000
014000
014000
014000
014000
014000
FFC000
000000
000000
000000
000000
000000
000000
000000
000000
000000
ENDCHAR
STARTCHAR SF260000
ENCODING 9565
SWIDTH 1080 0
DWIDTH 18 0
BBX 18 18 0 -3
BITMAP
014000
014000
014000
014000
014000
014000
014000
FF4000
004000
FFC000
000000
000000
000000
000000
000000
000000
000000
000000
ENDCHAR
STARTCHAR SF360000
ENCODING 9566
SWIDTH 1080 0
DWIDTH 18 0
BBX 18 18 0 -3
BITMAP
008000
008000
008000
008000
008000
008000
008000
00FFC0
008000
00FFC0
008000
008000
008000
008000
008000
008000
008000
008000
ENDCHAR
STARTCHAR SF370000
ENCODING 9567
SWIDTH 1080 0
DWIDTH 18 0
BBX 18 18 0 -3
BITMAP
014000
014000
014000
014000
014000
014000
014000
014000
017FC0
014000
014000
014000
014000
014000
014000
014000
014000
014000
ENDCHAR
STARTCHAR SF420000
ENCODING 9568
SWIDTH 1080 0
DWIDTH 18 0
BBX 18 18 0 -3
BITMAP
014000
014000
014000
014000
014000
014000
014000
017FC0
010000
017FC0
014000
014000
014000
014000
014000
014000
014000
014000
ENDCHAR
STARTCHAR SF190000
ENCODING 9569
SWIDTH 1080 0
DWIDTH 18 0
BBX 18 18 0 -3
BITMAP
008000
008000
008000
008000
008000
008000
008000
FF8000
008000
FF8000
008000
008000
008000
008000
008000
008000
008000
008000
ENDCHAR
STARTCHAR SF200000
ENCODING 9570
SWIDTH 1080 0
DWIDTH 18 0
BBX 18 18 0 -3
BITMAP
014000
014000
014000
014000
014000
014000
014000
014000
FF4000
014000
014000
014000
014000
014000
014000
014000
014000
014000
ENDCHAR
STARTCHAR SF230000
ENCODING 9571
SWIDTH 1080 0
DWIDTH 18 0
BBX 18 18 0 -3
BITMAP
014000
014000
014000
014000
014000
014000
014000
FF4000
004000
FF4000
014000
014000
014000
014000
014000
014000
014000
014000
ENDCHAR
STARTCHAR SF470000
ENCODING 9572
SWIDTH 1080 0
DWIDTH 18 0
BBX 18 18 0 -3
BITMAP
000000
000000
000000
000000
000000
000000
000000
FFFFC0
000000
FFFFC0
008000
008000
008000
008000
008000
008000
008000
008000
ENDCHAR
STARTCHAR SF480000
ENCODING 9573
SWIDTH 1080 0
DWIDTH 18 0
BBX 18 18 0 -3
BITMAP
000000
000000
000000
000000
000000
000000
000000
000000
FFFFC0
014000
014000
014000
014000
014000
014000
014000
014000
014000
ENDCHAR
STARTCHAR SF410000
ENCODING 9574
SWIDTH 1080 0
DWIDTH 18 0
BBX 18 18 0 -3
BITMAP
000000
000000
000000
000000
000000
000000
000000
FFFFC0
000000
FF7FC0
014000
014000
014000
014000
014000
014000
014000
014000
ENDCHAR
STARTCHAR SF450000
ENCODING 9575
SWIDTH 1080 0
DWIDTH 18 0
BBX 18 18 0 -3
BITMAP
008000
008000
008000
008000
008000
008000
008000
FFFFC0
000000
FFFFC0
000000
000000
000000
000000
000000
000000
000000
000000
ENDCHAR
STARTCHAR SF460000
ENCODING 9576
SWIDTH 1080 0
DWIDTH 18 0
BBX 18 18 0 -3
BITMAP
014000
014000
014000
014000
014000
014000
014000
014000
FFFFC0
000000
000000
000000
000000
000000
000000
000000
000000
000000
ENDCHAR
STARTCHAR SF400000
ENCODING 9577
SWIDTH 1080 0
DWIDTH 18 0
BBX 18 18 0 -3
BITMAP
014000
014000
014000
014000
014000
014000
014000
FF7FC0
000000
FFFFC0
000000
000000
000000
000000
000000
000000
000000
000000
ENDCHAR
STARTCHAR SF540000
ENCODING 9578
SWIDTH 1080 0
DWIDTH 18 0
BBX 18 18 0 -3
BITMAP
008000
008000
008000
008000
008000
008000
008000
FFFFC0
008000
FFFFC0
008000
008000
008000
008000
008000
008000
008000
008000
ENDCHAR
STARTCHAR SF530000
ENCODING 9579
SWIDTH 1080 0
DWIDTH 18 0
BBX 18 18 0 -3
BITMAP
014000
014000
014000
014000
014000
014000
014000
014000
FFFFC0
014000
014000
014000
014000
014000
014000
014000
014000
014000
ENDCHAR
STARTCHAR SF440000
ENCODING 9580
SWIDTH 1080 0
DWIDTH 18 0
BBX 18 18 0 -3
BITMAP
014000
014000
014000
014000
014000
014000
014000
FF7FC0
000000
FF7FC0
014000
014000
014000
014000
014000
014000
014000
014000
ENDCHAR
STARTCHAR uni256D
ENCODING 9581
SWIDTH 1080 0
DWIDTH 18 0
BBX 18 18 0 -3
BITMAP
000000
000000
000000
000000
000000
000000
000000
000000
0007C0
001800
002000
004000
004000
008000
008000
008000
008000
008000
ENDCHAR
STARTCHAR uni256E
ENCODING 9582
SWIDTH 1080 0
DWIDTH 18 0
BBX 18 18 0 -3
BITMAP
000000
000000
000000
000000
000000
000000
000000
000000
F00000
0C0000
020000
010000
010000
008000
008000
008000
008000
008000
ENDCHAR
STARTCHAR uni256F
ENCODING 9583
SWIDTH 1080 0
DWIDTH 18 0
BBX 18 18 0 -3
BITMAP
008000
008000
008000
008000
010000
010000
020000
0C0000
F00000
000000
000000
000000
000000
000000
000000
000000
000000
000000
ENDCHAR
STARTCHAR uni2570
ENCODING 9584
SWIDTH 1080 0
DWIDTH 18 0
BBX 18 18 0 -3
BITMAP
008000
008000
008000
008000
004000
004000
002000
001800
0007C0
000000
000000
000000
000000
000000
000000
000000
000000
000000
ENDCHAR
STARTCHAR uni2571
ENCODING 9585
SWIDTH 1080 0
DWIDTH 18 0
BBX 18 18 0 -3
BITMAP
000040
000080
000100
000200
000400
000800
001000
002000
004000
008000
010000
020000
040000
080000
100000
200000
400000
800000
ENDCHAR
STARTCHAR uni2572
ENCODING 9586
SWIDTH 1080 0
DWIDTH 18 0
BBX 18 18 0 -3
BITMAP
800000
400000
200000
100000
080000
040000
020000
010000
008000
004000
002000
001000
000800
000400
000200
000100
000080
000040
ENDCHAR
STARTCHAR uni2573
ENCODING 9587
SWIDTH 1080 0
DWIDTH 18 0
BBX 18 18 0 -3
BITMAP
800040
400080
200100
100200
080400
040800
021000
012000
00C000
00C000
012000
021000
040800
080400
100200
200100
400080
800040
ENDCHAR
STARTCHAR uni2574
ENCODING 9588
SWIDTH 1080 0
DWIDTH 18 0
BBX 18 18 0 -3
BITMAP
000000
000000
000000
000000
000000
000000
000000
000000
FF8000
000000
000000
000000
000000
000000
000000
000000
000000
000000
ENDCHAR
STARTCHAR uni2575
ENCODING 9589
SWIDTH 1080 0
DWIDTH 18 0
BBX 18 18 0 -3
BITMAP
008000
008000
008000
008000
008000
008000
008000
008000
008000
000000
000000
000000
000000
000000
000000
000000
000000
000000
ENDCHAR
STARTCHAR uni2576
ENCODING 9590
SWIDTH 1080 0
DWIDTH 18 0
BBX 18 18 0 -3
BITMAP
000000
000000
000000
000000
000000
000000
000000
000000
00FFC0
000000
000000
000000
000000
000000
000000
000000
000000
000000
ENDCHAR
STARTCHAR uni2577
ENCODING 9591
SWIDTH 1080 0
DWIDTH 18 0
BBX 18 18 0 -3
BITMAP
000000
000000
000000
000000
000000
000000
000000
000000
008000
008000
008000
008000
008000
008000
008000
008000
008000
008000
ENDCHAR
STARTCHAR uni2578
ENCODING 9592
SWIDTH 1080 0
DWIDTH 18 0
BBX 18 18 0 -3
BITMAP
000000
000000
000000
000000
000000
000000
000000
000000
FFC000
FFC000
000000
000000
000000
000000
000000
000000
000000
000000
ENDCHAR
STARTCHAR uni2579
ENCODING 9593
SWIDTH 1080 0
DWIDTH 18 0
BBX 18 18 0 -3
BITMAP
00C000
00C000
00C000
00C000
00C000
00C000
00C000
00C000
00C000
00C000
000000
000000
000000
000000
000000
000000
000000
000000
ENDCHAR
STARTCHAR uni257A
ENCODING 9594
SWIDTH 1080 0
DWIDTH 18 0
BBX 18 18 0 -3
BITMAP
000000
000000
000000
000000
000000
000000
000000
000000
00FFC0
00FFC0
000000
000000
000000
000000
000000
000000
000000
000000
ENDCHAR
STARTCHAR uni257B
ENCODING 9595
SWIDTH 1080 0
DWIDTH 18 0
BBX 18 18 0 -3
BITMAP
000000
000000
000000
000000
000000
000000
000000
000000
00C000
00C000
00C000
00C000
00C000
00C000
00C000
00C000
00C000
00C000
ENDCHAR
STARTCHAR uni257C
ENCODING 9596
SWIDTH 1080 0
DWIDTH 18 0
BBX 18 18 0 -3
BITMAP
000000
000000
000000
000000
000000
000000
000000
000000
FFFFC0
00FFC0
000000
000000
000000
000000
000000
000000
000000
000000
ENDCHAR
STARTCHAR uni257D
ENCODING 9597
SWIDTH 1080 0
DWIDTH 18 0
BBX 18 18 0 -3
BITMAP
008000
008000
008000
008000
008000
008000
008000
008000
00C000
00C000
00C000
00C000
00C000
00C000
00C000
00C000
00C000
00C000
ENDCHAR
STARTCHAR uni257E
ENCODING 9598
SWIDTH 1080 0
DWIDTH 18 0
BBX 18 18 0 -3
BITMAP
000000
000000
000000
000000
000000
000000
000000
000000
FFFFC0
FF8000
000000
000000
000000
000000
000000
000000
000000
000000
ENDCHAR
STARTCHAR uni257F
ENCODING 9599
SWIDTH 1080 0
DWIDTH 18 0
BBX 18 18 0 -3
BITMAP
00C000
00C000
00C000
00C000
00C000
00C000
00C000
00C000
00C000
00C000
008000
008000
008000
008000
008000
008000
008000
008000
ENDCHAR
STARTCHAR upblock
ENCODING 9600
SWIDTH 1080 0
DWIDTH 18 0
BBX 18 18 0 -3
BITMAP
FFFFC0
FFFFC0
FFFFC0
FFFFC0
FFFFC0
FFFFC0
FFFFC0
FFFFC0
FFFFC0
000000
000000
000000
000000
000000
000000
000000
000000
000000
ENDCHAR
STARTCHAR uni2581
ENCODING 9601
SWIDTH 1080 0
DWIDTH 18 0
BBX 18 18 0 -3
BITMAP
000000
000000
000000
000000
000000
000000
000000
000000
000000
000000
000000
000000
000000
000000
000000
000000
FFFFC0
FFFFC0
ENDCHAR
STARTCHAR uni2582
ENCODING 9602
SWIDTH 1080 0
DWIDTH 18 0
BBX 18 18 0 -3
BITMAP
000000
000000
000000
000000
000000
000000
000000
000000
000000
000000
000000
000000
000000
000000
FFFFC0
FFFFC0
FFFFC0
FFFFC0
ENDCHAR
STARTCHAR uni2583
ENCODING 9603
SWIDTH 1080 0
DWIDTH 18 0
BBX 18 18 0 -3
BITMAP
000000
000000
000000
000000
000000
000000
000000
000000
000000
000000
000000
FFFFC0
FFFFC0
FFFFC0
FFFFC0
FFFFC0
FFFFC0
FFFFC0
ENDCHAR
STARTCHAR dnblock
ENCODING 9604
SWIDTH 1080 0
DWIDTH 18 0
BBX 18 18 0 -3
BITMAP
000000
000000
000000
000000
000000
000000
000000
000000
000000
FFFFC0
FFFFC0
FFFFC0
FFFFC0
FFFFC0
FFFFC0
FFFFC0
FFFFC0
FFFFC0
ENDCHAR
STARTCHAR uni2585
ENCODING 9605
SWIDTH 1080 0
DWIDTH 18 0
BBX 18 18 0 -3
BITMAP
000000
000000
000000
000000
000000
000000
000000
FFFFC0
FFFFC0
FFFFC0
FFFFC0
FFFFC0
FFFFC0
FFFFC0
FFFFC0
FFFFC0
FFFFC0
FFFFC0
ENDCHAR
STARTCHAR uni2586
ENCODING 9606
SWIDTH 1080 0
DWIDTH 18 0
BBX 18 18 0 -3
BITMAP
000000
000000
000000
000000
FFFFC0
FFFFC0
FFFFC0
FFFFC0
FFFFC0
FFFFC0
FFFFC0
FFFFC0
FFFFC0
FFFFC0
FFFFC0
FFFFC0
FFFFC0
FFFFC0
ENDCHAR
STARTCHAR uni2587
ENCODING 9607
SWIDTH 1080 0
DWIDTH 18 0
BBX 18 18 0 -3
BITMAP
000000
000000
FFFFC0
FFFFC0
FFFFC0
FFFFC0
FFFFC0
FFFFC0
FFFFC0
FFFFC0
FFFFC0
FFFFC0
FFFFC0
FFFFC0
FFFFC0
FFFFC0
FFFFC0
FFFFC0
ENDCHAR
STARTCHAR block
ENCODING 9608
SWIDTH 1080 0
DWIDTH 18 0
BBX 18 18 0 -3
BITMAP
FFFFC0
FFFFC0
FFFFC0
FFFFC0
FFFFC0
FFFFC0
FFFFC0
FFFFC0
FFFFC0
FFFFC0
FFFFC0
FFFFC0
FFFFC0
FFFFC0
FFFFC0
FFFFC0
FFFFC0
FFFFC0
ENDCHAR
STARTCHAR uni2589
ENCODING 9609
SWIDTH 1080 0
DWIDTH 18 0
BBX 18 18 0 -3
BITMAP
FFFF00
FFFF00
FFFF00
FFFF00
FFFF00
FFFF00
FFFF00
FFFF00
FFFF00
FFFF00
FFFF00
FFFF00
FFFF00
FFFF00
FFFF00
FFFF00
FFFF00
FFFF00
ENDCHAR
STARTCHAR uni258A
ENCODING 9610
SWIDTH 1080 0
DWIDTH 18 0
BBX 18 18 0 -3
BITMAP
FFFC00
FFFC00
FFFC00
FFFC00
FFFC00
FFFC00
FFFC00
FFFC00
FFFC00
FFFC00
FFFC00
FFFC00
FFFC00
FFFC00
FFFC00
FFFC00
FFFC00
FFFC00
ENDCHAR
STARTCHAR uni258B
ENCODING 9611
SWIDTH 1080 0
DWIDTH 18 0
BBX 18 18 0 -3
BITMAP
FFE000
FFE000
FFE000
FFE000
FFE000
FFE000
FFE000
FFE000
FFE000
FFE000
FFE000
FFE000
FFE000
FFE000
FFE000
FFE000
FFE000
FFE000
ENDCHAR
STARTCHAR lfblock
ENCODING 9612
SWIDTH 1080 0
DWIDTH 18 0
BBX 18 18 0 -3
BITMAP
FF8000
FF8000
FF8000
FF8000
FF8000
FF8000
FF8000
FF8000
FF8000
FF8000
FF8000
FF8000
FF8000
FF8000
FF8000
FF8000
FF8000
FF8000
ENDCHAR
STARTCHAR uni258D
ENCODING 9613
SWIDTH 1080 0
DWIDTH 18 0
BBX 18 18 0 -3
BITMAP
FE0000
FE0000
FE0000
FE0000
FE0000
FE0000
FE0000
FE0000
FE0000
FE0000
FE0000
FE0000
FE0000
FE0000
FE0000
FE0000
FE0000
FE0000
ENDCHAR
STARTCHAR uni258E
ENCODING 9614
SWIDTH 1080 0
DWIDTH 18 0
BBX 18 18 0 -3
BITMAP
F00000
F00000
F00000
F00000
F00000
F00000
F00000
F00000
F00000
F00000
F00000
F00000
F00000
F00000
F00000
F00000
F00000
F00000
ENDCHAR
STARTCHAR uni258F
ENCODING 9615
SWIDTH 1080 0
DWIDTH 18 0
BBX 18 18 0 -3
BITMAP
C00000
C00000
C00000
C00000
C00000
C00000
C00000
C00000
C00000
C00000
C00000
C00000
C00000
C00000
C00000
C00000
C00000
C00000
ENDCHAR
STARTCHAR rtblock
ENCODING 9616
SWIDTH 1080 0
DWIDTH 18 0
BBX 18 18 0 -3
BITMAP
007FC0
007FC0
007FC0
007FC0
007FC0
007FC0
007FC0
007FC0
007FC0
007FC0
007FC0
007FC0
007FC0
007FC0
007FC0
007FC0
007FC0
007FC0
ENDCHAR
STARTCHAR ltshade
ENCODING 9617
SWIDTH 1080 0
DWIDTH 18 0
BBX 18 18 0 -3
BITMAP
222200
888880
222200
888880
222200
888880
222200
888880
222200
888880
222200
888880
222200
888880
222200
888880
222200
888880
ENDCHAR
STARTCHAR shade
ENCODING 9618
SWIDTH 1080 0
DWIDTH 18 0
BBX 18 18 0 -3
BITMAP
555540
AAAA80
555540
AAAA80
555540
AAAA80
555540
AAAA80
555540
AAAA80
555540
AAAA80
555540
AAAA80
555540
AAAA80
555540
AAAA80
ENDCHAR
ENDFONT
